<?xml version="1.0" encoding="UTF-8"?>
<svg version="1.1" xmlns="http://www.w3.org/2000/svg" width="1080" height="1081">
<path d="M0 0 C13.69343191 11.83846168 28.56006223 30.35136528 29.97216797 49.00512695 C30.13436685 63.83135223 23.85596064 75.49006046 14.21386719 86.42333984 C11.24468149 89.43388645 7.90289004 91.90479833 4.50390625 94.40625 C2.97640624 95.55187501 1.44906368 96.69771 -0.078125 97.84375 C-0.82400879 98.39933594 -1.56989258 98.95492187 -2.33837891 99.52734375 C-5.14342734 101.6244296 -7.91377839 103.76281119 -10.68359375 105.90625 C-25.75243846 117.50344306 -40.90811922 128.98349712 -56.13476562 140.37255859 C-58.28335976 141.98126597 -60.42942823 143.59325771 -62.57421875 145.20703125 C-70.34498224 151.051905 -78.15621852 156.83755925 -85.99829102 162.58642578 C-90.33964207 165.7795893 -94.64782363 169.01015435 -98.921875 172.29296875 C-100.30113159 173.35209473 -100.30113159 173.35209473 -101.70825195 174.43261719 C-103.46391924 175.78455807 -105.21660481 177.14038443 -106.96557617 178.50097656 C-124.97465681 192.37521932 -124.97465681 192.37521932 -132.43359375 192.09375 C-144.3341008 189.59848239 -150.89408385 177.46645356 -157.43359375 168.09375 C-164.20618816 172.47199285 -170.65979367 177.18861795 -177.05859375 182.09375 C-177.9609375 182.77953125 -178.86328125 183.4653125 -179.79296875 184.171875 C-191.92581816 192.54951535 -191.92581816 192.54951535 -198.43359375 205.09375 C-198.52977975 207.6059021 -198.57518255 210.08262099 -198.55859375 212.59375 C-198.55569336 213.661698 -198.55569336 213.661698 -198.55273438 214.7512207 C-198.5187775 218.95196909 -198.32474494 223.09593221 -197.93359375 227.28125 C-196.1845859 246.36601213 -198.63898558 263.18485049 -210.49609375 278.71875 C-215.74827182 284.82451589 -221.94322633 289.41999281 -228.43359375 294.09375 C-230.93496626 295.91979819 -233.43253624 297.75090515 -235.92822266 299.5847168 C-237.61048411 300.81898297 -239.29624223 302.04850065 -240.98583984 303.27270508 C-244.73274078 306.00509515 -248.29906647 308.64492053 -251.43359375 312.09375 C-251.08280762 312.53952393 -250.73202148 312.98529785 -250.37060547 313.44458008 C-243.03722271 322.77938006 -235.83596326 332.19136387 -228.82763672 341.77270508 C-224.43353464 347.76815098 -219.95239727 353.69184968 -215.43359375 359.59375 C-209.64151271 367.15990023 -203.94022649 374.78499041 -198.31616211 382.47680664 C-195.36006392 386.51172918 -192.36047291 390.49791276 -189.26147461 394.42407227 C-179.18960193 407.21649709 -173.08476291 418.61662258 -173.43359375 435.09375 C-172.53116943 435.10833252 -171.62874512 435.12291504 -170.69897461 435.13793945 C-167.32339368 435.19930577 -163.94858679 435.27351329 -160.57348633 435.35620117 C-159.11786381 435.38927983 -157.66211828 435.41736397 -156.20629883 435.44018555 C-154.10314939 435.47404921 -152.00111 435.5263736 -149.8984375 435.58203125 C-148.63636475 435.60821533 -147.37429199 435.63439941 -146.07397461 435.66137695 C-141.06376909 436.25644596 -137.18863415 437.76561132 -133.12109375 440.84375 C-128.09625318 447.54353742 -129.16217074 456.1510343 -129.20654297 464.10717773 C-129.20710773 465.52691134 -129.20678926 466.94664552 -129.20565796 468.36637878 C-129.20508597 472.20473651 -129.21681522 476.04296831 -129.23080587 479.88129687 C-129.24333901 483.89848355 -129.24448577 487.91567337 -129.24685669 491.93287659 C-129.25306388 499.53293778 -129.26946437 507.13294118 -129.28955567 514.73297697 C-129.31193839 523.38834738 -129.32291406 532.04372061 -129.33294654 540.69911277 C-129.35383129 558.4973579 -129.38899244 576.2955493 -129.43359375 594.09375 C-128.60340272 594.09098462 -128.60340272 594.09098462 -127.75644016 594.08816338 C-114.25910743 594.0439006 -100.7617875 594.01098068 -87.26439762 593.99012566 C-80.73702853 593.97970033 -74.20971193 593.96556386 -67.68237305 593.94287109 C-61.38001936 593.92109828 -55.07771609 593.90917196 -48.77532768 593.90399551 C-46.37405034 593.90030774 -43.97277567 593.89310647 -41.57151985 593.88228989 C-38.20134704 593.86771616 -34.83138103 593.86577454 -31.46118164 593.86669922 C-30.47430862 593.85950867 -29.48743561 593.85231812 -28.47065735 593.84490967 C-20.97390219 593.86708365 -12.46746825 594.12467688 -6.43359375 599.09375 C-2.91428954 604.87546406 -2.31021023 610.03668568 -2.29315186 616.70195007 C-2.29018073 617.35253492 -2.28720961 618.00311976 -2.28414845 618.6734193 C-2.27550163 620.8456879 -2.27395662 623.01790113 -2.27246094 625.19018555 C-2.26782986 626.7510337 -2.26280481 628.31188072 -2.25741577 629.87272644 C-2.24431641 634.10850348 -2.23785146 638.34426469 -2.23340511 642.58005881 C-2.23047001 645.22933205 -2.22636435 647.87860101 -2.22190094 650.52787209 C-2.20823162 658.82524046 -2.19856257 667.12259899 -2.19469905 675.41997784 C-2.19022153 684.98222568 -2.17268552 694.54433034 -2.14369845 704.10653466 C-2.12204423 711.50800736 -2.11199275 718.90943988 -2.11065793 726.3109439 C-2.10961245 730.72666136 -2.10375971 735.14224412 -2.08583832 739.55792809 C-2.06929313 743.71532633 -2.06723321 747.87248958 -2.07597733 752.02990913 C-2.0767443 753.54958605 -2.07245012 755.06927594 -2.06251907 756.58892059 C-1.94122316 776.31821423 -1.94122316 776.31821423 -7.74609375 782.59375 C-14.31502502 786.26013024 -20.14029845 786.37184367 -27.48779297 786.32080078 C-28.5908226 786.32109283 -29.69385223 786.32138489 -30.83030701 786.32168579 C-34.46637919 786.32029546 -38.10224498 786.30474796 -41.73828125 786.2890625 C-44.26319263 786.28533132 -46.78810545 786.28248484 -49.3130188 786.28048706 C-55.27335953 786.27363804 -61.23363434 786.25788438 -67.19394124 786.23778808 C-73.98233258 786.21539876 -80.77072754 786.20442804 -87.55914664 786.19439721 C-101.51733645 786.17351724 -115.47546105 786.13836024 -129.43359375 786.09375 C-129.42898479 786.79113816 -129.42437582 787.48852633 -129.41962719 788.20704746 C-129.30883467 805.2364567 -129.22628581 822.26577348 -129.17453289 839.29546452 C-129.14883537 847.53117441 -129.11384833 855.7666426 -129.05639648 864.00219727 C-129.00630067 871.18675822 -128.97424144 878.37114398 -128.96315128 885.55587476 C-128.95667636 889.35439132 -128.94163937 893.15240702 -128.90494347 896.9507618 C-128.87056784 900.53860298 -128.86062257 904.12574534 -128.86805534 907.71373558 C-128.86606076 909.63251118 -128.83938598 911.55121371 -128.81149292 913.4697876 C-128.87422809 924.25623855 -131.61211113 933.45078475 -136.43359375 943.09375 C-396.14359375 943.09375 -655.85359375 943.09375 -923.43359375 943.09375 C-923.43359375 883.36375 -923.43359375 823.63375 -923.43359375 762.09375 C-913.87478469 753.72979207 -909.39602887 752.78184228 -897.54125977 752.86669922 C-895.90448351 752.86633761 -895.90448351 752.86633761 -894.23464108 752.8659687 C-890.71884309 752.86745592 -887.20325982 752.88266174 -883.6875 752.8984375 C-881.51037701 752.90137976 -879.33325261 752.90341908 -877.15612793 752.90454102 C-869.10276156 752.9150071 -861.04942553 752.94292962 -852.99609375 752.96875 C-825.98765625 753.030625 -825.98765625 753.030625 -798.43359375 753.09375 C-798.43359375 711.51375 -798.43359375 669.93375 -798.43359375 627.09375 C-834.84271552 627.29148565 -834.84271552 627.29148565 -871.25146484 627.54418945 C-878.31567383 627.56677246 -878.31567383 627.56677246 -881.62954712 627.57096863 C-883.92915696 627.57861396 -886.22874756 627.59613173 -888.52822876 627.62162781 C-892.02486644 627.65843779 -895.52028631 627.6632732 -899.01708984 627.66137695 C-900.03036535 627.67936749 -901.04364086 627.69735804 -902.08762169 627.71589375 C-909.98506074 627.65888865 -915.75232529 625.38583494 -922.1873045 620.86045933 C-924.15623629 618.06934952 -923.82794023 615.55049793 -923.84819031 612.17437744 C-923.85639811 611.46621502 -923.86460591 610.75805259 -923.87306243 610.0284307 C-923.89678451 607.64936688 -923.89896355 605.27077565 -923.90112305 602.89160156 C-923.91337061 601.18824391 -923.92682239 599.48489456 -923.94139099 597.78155518 C-923.97649502 593.14917037 -923.99170899 588.51692813 -924.00122809 583.88442707 C-924.00779911 580.99027296 -924.01814243 578.09615681 -924.02973366 575.20201874 C-924.06949155 565.10504295 -924.09149649 555.00818141 -924.09936523 544.91113281 C-924.10723373 535.50017809 -924.15645287 526.0900389 -924.22443074 516.67934442 C-924.2807511 508.60023504 -924.30627839 500.5213968 -924.30831271 492.44209266 C-924.31015378 487.61645896 -924.32480841 482.79168451 -924.37112999 477.96625519 C-924.41379438 473.42518542 -924.41815481 468.88566159 -924.39333534 464.34447479 C-924.39075013 462.67999107 -924.40178768 461.01542063 -924.4276123 459.35113525 C-924.60969085 446.8643295 -924.60969085 446.8643295 -921.76438332 442.58080292 C-916.49327005 437.74342672 -911.15934865 435.84390838 -904.04106998 435.84321022 C-902.74247518 435.83821152 -901.44388037 435.83321283 -900.1059342 435.82806265 C-898.66665599 435.83260305 -897.22737832 435.8373197 -895.7881012 435.8421936 C-894.25775969 435.84005514 -892.72741922 435.83702979 -891.19708103 435.83319318 C-886.98994791 435.82514538 -882.78290357 435.82946364 -878.57577074 435.83571196 C-874.03922563 435.84024123 -869.50269758 435.83320794 -864.96615601 435.82740784 C-857.10431371 435.81877045 -849.24249393 435.81696774 -841.38064766 435.81935501 C-830.00716525 435.82245002 -818.63373271 435.81082319 -807.26026284 435.79480521 C-788.7994082 435.76883549 -770.33855352 435.74882033 -751.87768555 435.73535156 C-750.22001048 435.73413601 -750.22001048 435.73413601 -748.52884703 435.7328959 C-732.84182893 435.72167169 -717.15481438 435.71639271 -701.4677928 435.71350877 C-700.36297928 435.71330478 -699.25816576 435.71310079 -698.11987305 435.71289062 C-697.01640372 435.71269069 -695.9129344 435.71249075 -694.77602661 435.71228476 C-676.38599051 435.70855398 -657.99600845 435.68948393 -639.60599941 435.65779626 C-628.25926278 435.63886325 -616.91266462 435.63293149 -605.56591653 435.64361344 C-597.79325177 435.6499244 -590.02068643 435.64191506 -582.24804348 435.62255932 C-577.76121911 435.6118589 -573.27463607 435.60775694 -568.78781319 435.62103081 C-564.6814461 435.63305742 -560.57553211 435.62676955 -556.46920454 435.60583882 C-554.98271986 435.60152667 -553.49619705 435.60399457 -552.00973899 435.61387999 C-549.99050847 435.62633502 -547.97116538 435.61182245 -545.95195866 435.59597206 C-544.8299374 435.59553733 -543.70791615 435.59510259 -542.55189425 435.59465468 C-538.66184484 434.96978099 -536.50020487 433.52688745 -533.43359375 431.09375 C-531.93273818 428.86765358 -530.73206431 426.85433473 -529.55078125 424.4765625 C-529.2146582 423.83192047 -528.87853516 423.18727844 -528.53222656 422.52310181 C-527.4436707 420.42856564 -526.37642509 418.32391513 -525.30859375 416.21875 C-524.55136298 414.75464245 -523.79239489 413.2914322 -523.03173828 411.82910156 C-521.5184409 408.91840247 -520.01109427 406.00475013 -518.5078125 403.08886719 C-515.85629187 397.96221073 -513.09525568 392.89797561 -510.30859375 387.84375 C-505.82017082 379.6624773 -501.39577805 371.44799279 -496.99609375 363.21875 C-491.78472418 353.47251609 -486.54553675 343.74195827 -481.27539062 334.02734375 C-476.14771168 324.57338135 -471.04826609 315.10434217 -465.953125 305.6328125 C-463.66279555 301.37546452 -461.36853735 297.12027826 -459.0703125 292.8671875 C-447.44381156 271.34006013 -435.91677663 249.75602392 -424.69799805 228.01318359 C-421.95634705 222.69983589 -419.19850846 217.39502262 -416.43359375 212.09375 C-415.9648584 211.19124512 -415.49612305 210.28874023 -415.01318359 209.35888672 C-408.0731479 196.07912968 -400.49917443 182.63344631 -385.703125 177.06640625 C-375.17451567 173.91508456 -364.89816993 174.33216608 -354.9453125 179.34765625 C-345.08566203 185.59721017 -338.87342113 194.09616179 -332.48046875 203.6171875 C-323.57847223 216.81850999 -313.73613557 229.40438216 -304.02929688 242.01855469 C-301.38666687 245.45526752 -298.75417142 248.89971677 -296.12109375 252.34375 C-295.60047363 253.02397217 -295.07985352 253.70419434 -294.54345703 254.4050293 C-291.39707734 258.51773599 -288.25983205 262.6372329 -285.12890625 266.76171875 C-284.40098877 267.71981445 -283.67307129 268.67791016 -282.9230957 269.66503906 C-281.49326761 271.54753114 -280.06467965 273.43096592 -278.63745117 275.31542969 C-277.98881104 276.16911133 -277.3401709 277.02279297 -276.671875 277.90234375 C-276.09477783 278.66345459 -275.51768066 279.42456543 -274.9230957 280.20874023 C-273.42446332 282.18048553 -273.42446332 282.18048553 -271.43359375 284.09375 C-270.634375 283.47628906 -269.83515625 282.85882813 -269.01171875 282.22265625 C-267.90245391 281.36704466 -266.79306962 280.51158792 -265.68359375 279.65625 C-265.09739258 279.2039502 -264.51119141 278.75165039 -263.90722656 278.28564453 C-261.02707963 276.06865878 -258.13950259 273.86505844 -255.21484375 271.70703125 C-239.25525511 260.16762959 -239.25525511 260.16762959 -231.7421875 242.6328125 C-230.74158439 234.40000208 -231.45949562 226.14881342 -232.203125 217.92578125 C-233.62572979 200.44462073 -229.87824632 185.58209053 -218.43359375 172.09375 C-210.85294742 164.08765924 -201.83161072 157.83767222 -192.94140625 151.390625 C-187.97365033 147.78109448 -183.16441933 144.00975472 -178.43359375 140.09375 C-178.77616211 139.65619385 -179.11873047 139.2186377 -179.47167969 138.76782227 C-181.05201763 136.73797902 -182.61775829 134.69729831 -184.18359375 132.65625 C-184.72242188 131.96853516 -185.26125 131.28082031 -185.81640625 130.57226562 C-191.0143243 123.75792184 -195.20920784 117.23685102 -194.28125 108.4296875 C-191.59640895 101.03090893 -186.14392324 96.99619842 -179.93359375 92.65625 C-178.22142936 91.42748901 -176.51053728 90.19695365 -174.80078125 88.96484375 C-173.47385254 88.01327393 -173.47385254 88.01327393 -172.12011719 87.04248047 C-167.70906612 83.84282493 -163.38442086 80.53224437 -159.05859375 77.21875 C-157.75172607 76.22041138 -157.75172607 76.22041138 -156.41845703 75.2019043 C-153.75572767 73.16729718 -151.09444528 71.13081216 -148.43359375 69.09375 C-137.52810241 60.74485737 -126.60230851 52.43462579 -115.52685547 44.31201172 C-109.80033475 40.11033945 -104.10985154 35.8630392 -98.43359375 31.59375 C-90.29554657 25.47595957 -82.12192881 19.4090951 -73.91015625 13.390625 C-71.03187421 11.27914397 -68.17331716 9.14535302 -65.33203125 6.984375 C-45.90814313 -7.71563911 -21.59272651 -16.91372478 0 0 Z M-42.55859375 31.28125 C-43.14423096 31.70631836 -43.72986816 32.13138672 -44.33325195 32.56933594 C-50.74331335 37.25534578 -57.03700364 42.0985648 -63.34033203 46.92651367 C-69.15936656 51.37951658 -75.02145735 55.76526594 -80.93359375 60.09375 C-89.61022359 66.44960969 -98.16670927 72.95595773 -106.7109375 79.48828125 C-111.16691683 82.89466482 -115.6496973 86.2622538 -120.14453125 89.6171875 C-122.93412982 91.70893209 -125.70376298 93.82625116 -128.47265625 95.9453125 C-129.39046875 96.64720703 -130.30828125 97.34910156 -131.25390625 98.07226562 C-133.07035828 99.4624333 -134.88554586 100.85425536 -136.69921875 102.24804688 C-142.50464801 106.68981412 -148.41203708 110.94979632 -154.43359375 115.09375 C-153.05395114 118.03454548 -151.45855451 120.57433368 -149.52734375 123.18359375 C-148.95258301 123.9624292 -148.37782227 124.74126465 -147.78564453 125.54370117 C-147.17446777 126.36459229 -146.56329102 127.1854834 -145.93359375 128.03125 C-145.31081543 128.87212158 -144.68803711 129.71299316 -144.04638672 130.5793457 C-138.92234347 137.4800309 -133.71632411 144.3138403 -128.43359375 151.09375 C-123.21095164 149.45649315 -119.2491117 146.2151561 -114.93359375 142.96875 C-114.10408203 142.35128906 -113.27457031 141.73382813 -112.41992188 141.09765625 C-105.32999306 135.80539824 -98.29950314 130.43469645 -91.2734375 125.05810547 C-84.7703798 120.08862968 -78.20026838 115.21883944 -71.59765625 110.3828125 C-64.7604844 105.36282918 -58.01939633 100.22221917 -51.28491211 95.06567383 C-45.403041 90.57052777 -39.46929538 86.15410947 -33.49609375 81.78125 C-16.3043784 70.48497691 -16.3043784 70.48497691 -3.43359375 55.09375 C-2.69338492 45.80867428 -9.07126282 37.8909934 -14.71484375 30.97265625 C-18.06884594 27.30612204 -21.09896824 25.45773877 -25.87109375 24.15625 C-32.46635345 24.04054369 -37.37281943 27.50564238 -42.55859375 31.28125 Z M-375.43359375 208.09375 C-377.00973277 209.85185137 -377.00973277 209.85185137 -378.24609375 212.28125 C-378.76042969 213.1990625 -379.27476562 214.116875 -379.8046875 215.0625 C-380.61099609 216.56296875 -380.61099609 216.56296875 -381.43359375 218.09375 C-381.98144531 219.0940625 -382.52929688 220.094375 -383.09375 221.125 C-384.89356014 224.43763461 -386.66606514 227.76378575 -388.43359375 231.09375 C-389.42800596 232.9598872 -390.423356 234.8255224 -391.41870117 236.69116211 C-392.09625152 237.96134491 -392.7734968 239.23169049 -393.45043945 240.50219727 C-396.75853336 246.70996855 -400.09437241 252.90267372 -403.43359375 259.09375 C-408.28048579 268.08651466 -413.11237933 277.08719489 -417.93359375 286.09375 C-423.32862111 296.17225036 -428.74067341 306.24142377 -434.1640625 316.3046875 C-438.43263783 324.2279307 -442.68619199 332.1591396 -446.93359375 340.09375 C-452.32862111 350.17225036 -457.74067341 360.24142377 -463.1640625 370.3046875 C-467.43263783 378.2279307 -471.68619199 386.1591396 -475.93359375 394.09375 C-480.75480876 403.10030621 -485.58707313 412.10078452 -490.43359375 421.09375 C-495.88065232 431.20193111 -501.31772361 441.31541264 -506.72705078 451.44384766 C-509.66714556 456.94643154 -512.61734132 462.44241062 -515.6098175 467.91671753 C-517.01060514 470.48070931 -518.40507544 473.04811153 -519.79910278 475.61578369 C-520.46496401 476.83800207 -521.13390685 478.05854732 -521.80612183 479.27728271 C-522.73927498 480.96961282 -523.66089188 482.66828837 -524.58203125 484.3671875 C-525.10974121 485.33060059 -525.63745117 486.29401367 -526.18115234 487.28662109 C-527.52196062 490.29180893 -528.20022496 492.81211003 -528.43359375 496.09375 C-526.64637377 498.286416 -526.64637377 498.286416 -524.29239273 498.3772707 C-516.71841339 498.37242255 -509.72307272 497.20148429 -502.33886719 495.5847168 C-501.0659444 495.31543428 -499.79302162 495.04615177 -498.48152542 494.76870918 C-494.98482943 494.02871595 -491.49122864 493.27496039 -487.99800491 492.51877046 C-484.2400847 491.70788813 -480.47938252 490.91010618 -476.71899414 490.11076355 C-470.24807998 488.73343923 -463.77891792 487.34813442 -457.31091309 485.95721436 C-447.99142718 483.95314015 -438.66935434 481.96133104 -429.34651423 479.97292566 C-415.4263281 477.00385662 -401.50758752 474.02808963 -387.5899024 471.04732084 C-368.1802954 466.89059648 -348.76560977 462.75817271 -329.34774685 458.64020085 C-325.67395224 457.86105669 -322.00021901 457.08162322 -318.32647705 456.30223083 C-313.36381147 455.24943441 -308.40112822 454.19672136 -303.43842912 453.14408296 C-290.98311808 450.50215211 -278.5278941 447.85982233 -266.07394409 445.21148109 C-263.78658678 444.72528076 -261.49913731 444.23951369 -259.21157837 443.75426292 C-253.02722121 442.44230641 -246.84520836 441.12009885 -240.66545105 439.78664398 C-237.11714929 439.0259059 -233.56590084 438.27970342 -230.01477051 437.5322876 C-227.54781776 437.00399626 -225.08097751 436.47517922 -222.61425781 435.94580078 C-220.87808512 435.58532056 -220.87808512 435.58532056 -219.10683823 435.21755791 C-218.03132832 434.98423822 -216.95581841 434.75091854 -215.84771729 434.51052856 C-214.42213186 434.20828464 -214.42213186 434.20828464 -212.96774673 433.89993477 C-210.27667389 433.04382941 -208.57326052 431.91127776 -206.43359375 430.09375 C-207.86551618 424.24673339 -210.97135067 420.47666749 -214.68359375 415.90625 C-215.96435762 414.29595316 -217.24294036 412.68391954 -218.51953125 411.0703125 C-219.17276367 410.24563477 -219.82599609 409.42095703 -220.49902344 408.57128906 C-223.51985603 404.70261047 -226.41623838 400.74640174 -229.30859375 396.78125 C-234.27330191 389.99152856 -239.3202131 383.27221318 -244.43359375 376.59375 C-249.62724172 369.80932822 -254.7565149 362.98427237 -259.80859375 356.09375 C-268.96798736 343.03999464 -268.96798736 343.03999464 -279.43359375 331.09375 C-279.97024658 331.50512207 -280.50689941 331.91649414 -281.05981445 332.34033203 C-291.38624032 340.24932834 -301.73985016 348.11114022 -312.24511719 355.78149414 C-316.52160839 358.91393028 -320.75042597 362.0964046 -324.9375 365.34765625 C-325.86433594 366.06501953 -326.79117188 366.78238281 -327.74609375 367.52148438 C-329.52134031 368.89956995 -331.29129152 370.28451694 -333.0546875 371.67773438 C-339.40357325 376.59962294 -346.06494137 381.51126302 -354.18359375 382.59375 C-359.43367103 381.7860458 -362.41436828 380.06767656 -366.24609375 376.40625 C-369.24077882 371.87144118 -369.94096523 368.43719795 -369.12890625 363.0859375 C-366.14859427 352.67525868 -354.25266095 346.6634317 -346 340.64990234 C-340.39547612 336.56435147 -334.88695067 332.37861662 -329.43359375 328.09375 C-322.24575452 322.44787495 -314.93637037 316.98883344 -307.53710938 311.62304688 C-306.78236328 311.07326172 -306.02761719 310.52347656 -305.25 309.95703125 C-304.58427979 309.47532471 -303.91855957 308.99361816 -303.23266602 308.49731445 C-301.48816615 307.13632521 -299.96017152 305.69241698 -298.43359375 304.09375 C-298.78437988 303.64797607 -299.13516602 303.20220215 -299.49658203 302.74291992 C-306.82996479 293.40811994 -314.03122424 283.99613613 -321.03955078 274.41479492 C-325.43365319 268.41934857 -329.91481153 262.49566685 -334.43359375 256.59375 C-339.56372946 249.89184377 -344.63217594 243.15145675 -349.62109375 236.34375 C-354.25104813 230.02819044 -358.93082824 223.7550306 -363.68359375 217.53125 C-364.23297607 216.8103418 -364.7823584 216.08943359 -365.34838867 215.34667969 C-365.8560376 214.68442383 -366.36368652 214.02216797 -366.88671875 213.33984375 C-367.33176758 212.75904053 -367.77681641 212.1782373 -368.23535156 211.57983398 C-369.50451104 209.95175315 -369.50451104 209.95175315 -371.43359375 208.09375 C-372.75359375 208.09375 -374.07359375 208.09375 -375.43359375 208.09375 Z M-241.90655518 472.58074951 C-244.67601472 473.14296258 -247.44705586 473.69694901 -250.21826172 474.25048828 C-266.89376264 477.59172947 -283.53633859 481.08661247 -300.1730957 484.61471558 C-302.52475421 485.11306831 -304.8766099 485.61048137 -307.22851562 486.10766602 C-317.37932795 488.25389 -327.52750959 490.41205468 -337.67272949 492.58456421 C-341.00318646 493.29761383 -344.33434381 494.00724412 -347.6661377 494.71401978 C-351.60832229 495.55070536 -355.54865188 496.39564074 -359.48773193 497.24681854 C-360.94464433 497.56029717 -362.40215489 497.87101048 -363.86029053 498.17874908 C-365.86855519 498.60314226 -367.87435704 499.03772688 -369.87988281 499.47485352 C-371.56939056 499.8369265 -371.56939056 499.8369265 -373.29302979 500.20631409 C-376.62523174 501.14790156 -379.43301806 502.3702225 -382.43359375 504.09375 C-395.85082976 530.92822203 -383.43359375 564.09189821 -383.43359375 594.09375 C-310.83359375 594.09375 -238.23359375 594.09375 -163.43359375 594.09375 C-163.43359375 552.84375 -163.43359375 511.59375 -163.43359375 469.09375 C-190.78666404 467.72609649 -215.12023156 467.13376147 -241.90655518 472.58074951 Z M-890.43359375 469.09375 C-890.43359375 478.99375 -890.43359375 488.89375 -890.43359375 499.09375 C-880.6371267 499.30312141 -880.6371267 499.30312141 -870.84008789 499.48168945 C-854.56250055 499.91766784 -854.56250055 499.91766784 -847.99609375 504.96875 C-844.5408599 509.66786804 -843.58667804 514.3083258 -844.43359375 520.09375 C-845.48594837 523.58276466 -847.06988922 526.11168534 -850.05273438 528.25976562 C-857.82774222 532.15880517 -865.98532006 531.76184733 -874.49609375 531.84375 C-879.75546875 531.92625 -885.01484375 532.00875 -890.43359375 532.09375 C-890.43359375 552.55375 -890.43359375 573.01375 -890.43359375 594.09375 C-817.83359375 594.09375 -745.23359375 594.09375 -670.43359375 594.09375 C-670.43359375 552.84375 -670.43359375 511.59375 -670.43359375 469.09375 C-743.03359375 469.09375 -815.63359375 469.09375 -890.43359375 469.09375 Z M-636.43359375 469.09375 C-636.43359375 510.34375 -636.43359375 551.59375 -636.43359375 594.09375 C-563.83359375 594.09375 -491.23359375 594.09375 -416.43359375 594.09375 C-416.43359375 566.70375 -416.43359375 539.31375 -416.43359375 511.09375 C-423.46825649 511.73326479 -429.91481884 512.4323543 -436.72192383 513.95141602 C-437.57886337 514.13687988 -438.43580292 514.32234375 -439.31871033 514.51342773 C-441.15852593 514.91224099 -442.99772565 515.31390457 -444.83634377 515.71820259 C-447.7589574 516.35991526 -450.68352102 516.9919268 -453.60881042 517.62132263 C-461.91877545 519.41056998 -470.22576992 521.21322795 -478.52954102 523.03100586 C-483.62950437 524.14673024 -488.73237952 525.24821511 -493.83725548 526.34123039 C-495.76666778 526.7572574 -497.69494591 527.17858502 -499.62195778 527.60559273 C-530.942168 534.54213851 -530.942168 534.54213851 -543.8359375 526.6171875 C-551.92296341 520.72348143 -558.14893309 512.97267375 -560.43359375 503.09375 C-561.61823158 491.86736909 -560.11541643 483.45516086 -555.43359375 473.09375 C-555.10359375 471.77375 -554.77359375 470.45375 -554.43359375 469.09375 C-581.49359375 469.09375 -608.55359375 469.09375 -636.43359375 469.09375 Z M-763.43359375 628.09375 C-763.43359375 669.34375 -763.43359375 710.59375 -763.43359375 753.09375 C-690.83359375 753.09375 -618.23359375 753.09375 -543.43359375 753.09375 C-543.43359375 711.84375 -543.43359375 670.59375 -543.43359375 628.09375 C-616.03359375 628.09375 -688.63359375 628.09375 -763.43359375 628.09375 Z M-510.43359375 628.09375 C-510.43359375 669.34375 -510.43359375 710.59375 -510.43359375 753.09375 C-437.83359375 753.09375 -365.23359375 753.09375 -290.43359375 753.09375 C-290.43359375 711.84375 -290.43359375 670.59375 -290.43359375 628.09375 C-363.03359375 628.09375 -435.63359375 628.09375 -510.43359375 628.09375 Z M-256.43359375 628.09375 C-256.49546875 648.161875 -256.55734375 668.23 -256.62109375 688.90625 C-256.64840576 695.2481958 -256.67571777 701.5901416 -256.70385742 708.12426758 C-256.71388929 713.79774993 -256.71388929 713.79774993 -256.71992493 719.47123718 C-256.72453864 722.00278808 -256.73510411 724.5343323 -256.75032043 727.06584167 C-256.77219249 730.89532975 -256.7753147 734.72441416 -256.77416992 738.55395508 C-256.78496425 739.68610097 -256.79575857 740.81824686 -256.80688 741.9847002 C-256.80274751 743.01320937 -256.79861502 744.04171854 -256.7943573 745.10139465 C-256.79712268 745.99829923 -256.79988806 746.8952038 -256.80273724 747.8192873 C-256.34822169 750.61976652 -255.61491456 751.33508137 -253.43359375 753.09375 C-250.48397676 753.38227934 -247.74676704 753.48522175 -244.79670715 753.45451355 C-243.45754062 753.45835846 -243.45754062 753.45835846 -242.09132022 753.46228105 C-239.08779834 753.46723821 -236.0847747 753.45069414 -233.08129883 753.43432617 C-230.9331005 753.43348032 -228.78490131 753.43395423 -226.63670349 753.43565369 C-220.79401678 753.43651669 -214.95151371 753.41884155 -209.10886979 753.39793181 C-203.00697138 753.3792158 -196.90506905 753.37741858 -190.80314636 753.37385559 C-179.24343381 753.36452019 -167.68380606 753.33988616 -156.1241309 753.30980712 C-140.50697907 753.27004978 -124.88980414 753.25382032 -109.27261448 753.23630047 C-84.659544 753.20806615 -60.04665253 753.14830649 -35.43359375 753.09375 C-35.43359375 711.84375 -35.43359375 670.59375 -35.43359375 628.09375 C-108.36359375 628.09375 -181.29359375 628.09375 -256.43359375 628.09375 Z M-890.43359375 787.09375 C-890.43359375 828.34375 -890.43359375 869.59375 -890.43359375 912.09375 C-817.83359375 912.09375 -745.23359375 912.09375 -670.43359375 912.09375 C-670.43359375 870.84375 -670.43359375 829.59375 -670.43359375 787.09375 C-743.03359375 787.09375 -815.63359375 787.09375 -890.43359375 787.09375 Z M-636.43359375 787.09375 C-636.43359375 828.01375 -636.43359375 868.93375 -636.43359375 911.09375 C-563.83359375 911.09375 -491.23359375 911.09375 -416.43359375 911.09375 C-416.43359375 870.17375 -416.43359375 829.25375 -416.43359375 787.09375 C-489.03359375 787.09375 -561.63359375 787.09375 -636.43359375 787.09375 Z M-382.43359375 787.09375 C-382.43359375 828.01375 -382.43359375 868.93375 -382.43359375 911.09375 C-309.83359375 911.09375 -237.23359375 911.09375 -162.43359375 911.09375 C-162.43359375 870.17375 -162.43359375 829.25375 -162.43359375 787.09375 C-235.03359375 787.09375 -307.63359375 787.09375 -382.43359375 787.09375 Z " fill="#01e0eb" transform="translate(987.43359375,56.90625)"/>
</svg>
