<?xml version="1.0" encoding="UTF-8"?>
<svg version="1.1" xmlns="http://www.w3.org/2000/svg" width="1080" height="1081">
<path d="M0 0 C2.01437674 -0.00315305 4.02870009 -0.01088204 6.04306179 -0.0191384 C12.36076096 -0.04484009 18.67771396 -0.03562865 24.99536133 -0.00268555 C31.46539019 0.0305434 37.93358446 0.00942691 44.40347332 -0.03938764 C50.00412418 -0.07997753 55.60421773 -0.0887991 61.20499188 -0.07255656 C64.53028562 -0.06305395 67.85378725 -0.06748715 71.17910576 -0.09495354 C86.39916345 -0.19874424 98.36893269 0.27409155 111.19140625 8.96484375 C112.10977768 9.56180557 113.02814911 10.1587674 113.97434998 10.77381897 C120.90222531 15.47204533 125.71068402 22.49450673 129.73046875 29.73828125 C131.05947215 32.26514596 131.05947215 32.26514596 134.19140625 32.96484375 C135.81978193 33.06515555 137.45183444 33.11044599 139.08325195 33.12255859 C140.07891678 33.13282074 141.0745816 33.14308289 142.10041809 33.15365601 C143.178452 33.16095734 144.2564859 33.16825867 145.3671875 33.17578125 C147.6634182 33.20388116 149.95964205 33.23254577 152.25585938 33.26171875 C155.86498593 33.30272878 159.47398885 33.33962336 163.08325195 33.36621094 C188.57400371 33.57015102 210.03885948 36.37716208 229.44140625 54.65234375 C244.04507159 69.98267623 249.92633683 89.12899799 249.5 109.828125 C248.67395493 128.29931534 239.57096936 144.58042454 231.11425781 160.58056641 C226.77251885 168.79740884 222.5852829 177.08459794 218.44140625 185.40234375 C218.12718719 186.0327356 217.81296814 186.66312744 217.48922729 187.31262207 C215.72052654 190.8619935 213.95466504 194.41276599 212.19140625 197.96484375 C213.44953125 198.16078125 214.70765625 198.35671875 216.00390625 198.55859375 C232.10597555 201.28467772 247.12343122 205.69391726 257.01171875 219.5078125 C264.90386466 231.74228974 268.17763124 246.49057478 265.68359375 260.8984375 C261.958153 276.33546497 251.57521311 287.77441152 238.19140625 295.96484375 C237.53140625 295.96484375 236.87140625 295.96484375 236.19140625 295.96484375 C236.19140625 296.62484375 236.19140625 297.28484375 236.19140625 297.96484375 C236.98224609 298.32255859 236.98224609 298.32255859 237.7890625 298.6875 C240.91317437 300.34861314 243.75669872 302.34753745 246.62890625 304.40234375 C247.24072754 304.83973877 247.85254883 305.27713379 248.48291016 305.7277832 C255.01633213 310.46539567 261.11599331 315.66013096 267.19140625 320.96484375 C267.93003906 321.60292969 268.66867187 322.24101562 269.4296875 322.8984375 C271.36160355 324.57482958 273.2781683 326.26718191 275.19140625 327.96484375 C275.94550781 328.62613281 276.69960938 329.28742188 277.4765625 329.96875 C286.97499217 338.3833652 296.00496423 347.26108705 304.19140625 356.96484375 C304.97515625 357.85945313 305.75890625 358.7540625 306.56640625 359.67578125 C324.50616176 380.27500637 338.98019537 403.13383436 352.19140625 426.96484375 C352.62308105 427.73489746 353.05475586 428.50495117 353.49951172 429.29833984 C372.33144535 463.04287067 385.36422759 500.46595695 394.1015625 538.03125 C394.25751389 538.69760971 394.41346527 539.36396942 394.57414246 540.05052185 C395.32541364 543.27155185 396.05636571 546.49402821 396.75854492 549.72631836 C397.01998291 550.87753174 397.2814209 552.02874512 397.55078125 553.21484375 C397.77217773 554.230625 397.99357422 555.24640625 398.22167969 556.29296875 C399.42961249 559.62117031 400.32507712 560.84828235 403.19140625 562.96484375 C406.31479543 563.56533354 409.4022673 563.50795177 412.57470703 563.47900391 C413.5248317 563.486129 414.47495636 563.49325409 415.45387268 563.50059509 C418.59836497 563.51990901 421.74218659 563.51158727 424.88671875 563.50390625 C427.07665997 563.51381317 429.26659286 563.52575439 431.45651245 563.53964233 C437.22965012 563.57205657 443.00259817 563.58239948 448.77581787 563.58648682 C457.99476325 563.59522756 467.21355211 563.63092597 476.43236923 563.67866135 C479.64394781 563.69119062 482.85532711 563.69049249 486.06692505 563.68838501 C488.05519764 563.69497175 490.0434689 563.70197927 492.03173828 563.70947266 C492.91522446 563.70534866 493.79871063 563.70122467 494.70896912 563.69697571 C509.76174775 563.79332517 523.228501 568.43339452 534.19140625 578.96484375 C546.03124393 591.89758952 547.86164573 606.14717838 547.19140625 622.96484375 C546.95812929 626.32561357 546.61595016 629.62156042 546.19140625 632.96484375 C546.73667969 633.10019531 547.28195312 633.23554687 547.84375 633.375 C554.48966174 635.27220899 559.03083468 638.44102779 564.19140625 642.96484375 C564.79855469 643.4546875 565.40570312 643.94453125 566.03125 644.44921875 C574.18635003 651.6242274 580.87181978 664.68653116 581.59765625 675.43359375 C582.12109096 692.27715423 577.66368734 704.1819875 566.19140625 716.96484375 C560.96310231 721.88193912 553.65120429 727.96484375 546.19140625 727.96484375 C546.19140625 740.50484375 546.19140625 753.04484375 546.19140625 765.96484375 C547.84140625 766.29484375 549.49140625 766.62484375 551.19140625 766.96484375 C563.64181044 772.37417555 570.60937987 781.5206525 577.19140625 792.96484375 C577.67222656 793.76535156 578.15304687 794.56585937 578.6484375 795.390625 C583.16504993 804.37597058 582.67196467 816.97054751 580.30859375 826.5390625 C579.13318098 829.51651539 577.79630368 832.19680096 576.19140625 834.96484375 C575.6603125 835.91746094 575.12921875 836.87007812 574.58203125 837.8515625 C567.32545502 850.0512652 560.56437538 854.27835918 547.19140625 860.96484375 C547.19140625 873.17484375 547.19140625 885.38484375 547.19140625 897.96484375 C551.81140625 900.27484375 556.43140625 902.58484375 561.19140625 904.96484375 C569.0718449 911.53187596 573.66728083 918.9165929 578.19140625 927.96484375 C578.76761719 929.08632812 578.76761719 929.08632812 579.35546875 930.23046875 C583.33959341 939.68811047 582.50061112 952.59989749 579.06640625 962.02734375 C576.65714554 967.42273042 573.77284457 972.27288192 570.19140625 976.96484375 C569.76472656 977.56683594 569.33804688 978.16882813 568.8984375 978.7890625 C562.1740804 987.56424992 551.73858931 993.19210177 541.19140625 995.96484375 C536.10546375 996.51669753 531.04267565 996.50538288 525.93346786 996.47100163 C524.40223365 996.47548427 522.87100375 996.48171645 521.33978289 996.48952696 C517.13932934 996.50589371 512.93923967 996.49746838 508.73878657 996.48491533 C504.16618709 996.47565726 499.59364785 996.48960027 495.02106023 996.5005545 C487.00926733 996.51653484 478.99757947 996.51763536 470.9857769 996.50895691 C459.07176691 996.49608621 447.15785191 996.50604708 435.24384763 996.52045646 C413.96458062 996.54539855 392.6853581 996.54727786 371.40608074 996.53918234 C352.78181554 996.53211152 334.1575676 996.53205021 315.53330231 996.53904533 C313.03575043 996.53995666 310.53819856 996.54086742 308.04064669 996.54177762 C304.2771175 996.54316074 300.51358832 996.54455183 296.75005914 996.54596376 C261.75567719 996.5589464 226.76130103 996.5640566 191.76691818 996.55243015 C190.44752842 996.55199218 189.12813866 996.55155421 187.7687674 996.55110297 C181.08150739 996.54886124 174.39424743 996.54651531 167.70698747 996.54413248 C166.71109847 996.54377767 166.71109847 996.54377767 165.6950905 996.54341569 C163.01012546 996.54245831 160.32516042 996.54150076 157.64019538 996.54053554 C115.17660927 996.52528999 72.71309063 996.53327723 30.24951172 996.56176758 C-16.69973571 996.59320718 -63.64895188 996.60816634 -110.59821105 996.59796757 C-115.60388294 996.59693078 -120.60955484 996.59594355 -125.61522675 996.59498405 C-126.84775728 996.59473517 -128.08028781 996.59448628 -129.35016775 996.59422985 C-147.95975948 996.59078908 -166.56931705 996.60009871 -185.17890167 996.61575508 C-206.34274396 996.63351937 -227.5065031 996.63366245 -248.67034182 996.61040343 C-260.51386895 996.59789848 -272.35720507 996.59915897 -284.20072101 996.62028429 C-292.11404866 996.6330113 -300.02722923 996.62752653 -307.94054089 996.60729948 C-312.4478763 996.59628511 -316.95483628 996.59306054 -321.46215394 996.61197478 C-325.56957076 996.62904545 -329.67629021 996.62275973 -333.78366487 996.59850894 C-335.25359893 996.59379918 -336.7235906 996.59729752 -338.19347356 996.61042796 C-358.75193416 996.78122257 -377.83800772 988.29092861 -392.6953125 974.171875 C-398.3068662 968.25767571 -402.17336507 961.198141 -405.80859375 953.96484375 C-406.2149707 953.16739746 -406.62134766 952.36995117 -407.04003906 951.54833984 C-415.50663035 934.48883859 -418.33870558 917.82834752 -412.30859375 899.40234375 C-404.92070093 879.20177223 -392.14646252 862.5586496 -372.49609375 853.15234375 C-361.99304593 848.37712556 -351.29540815 845.92437323 -339.80859375 844.96484375 C-339.91405518 844.0826416 -340.0195166 843.20043945 -340.12817383 842.29150391 C-342.11640318 825.55499273 -344.00413445 808.81618142 -345.49609375 792.02734375 C-345.55648834 791.36156311 -345.61688293 790.69578247 -345.67910767 790.00982666 C-346.10081231 785.33099952 -346.47521848 780.65063748 -346.80859375 775.96484375 C-346.8827803 774.93182129 -346.8827803 774.93182129 -346.95846558 773.87792969 C-348.04906948 757.93411248 -347.99605202 741.96195902 -347.99389648 725.98925781 C-347.9938159 722.91465282 -348.00066493 719.84019899 -348.0144043 716.765625 C-348.13851631 688.49906118 -347.1579808 660.33134861 -344.05859375 632.21484375 C-343.97655701 631.45198059 -343.89452026 630.68911743 -343.80999756 629.90313721 C-340.78683149 602.0026182 -336.29448535 574.27447205 -329.80859375 546.96484375 C-329.52822266 545.76972168 -329.24785156 544.57459961 -328.95898438 543.34326172 C-315.74873546 487.71003354 -294.65347006 432.43661606 -260.80859375 385.96484375 C-260.41333496 385.41940918 -260.01807617 384.87397461 -259.61083984 384.31201172 C-254.27268651 376.97903946 -248.62402368 369.92259027 -242.80859375 362.96484375 C-241.96480162 361.9323261 -241.12105315 360.89977276 -240.27734375 359.8671875 C-228.96395373 346.18904684 -216.40149658 332.84064052 -202.3515625 321.94921875 C-199.92640255 320.05677443 -197.60700964 318.07025963 -195.28955078 316.04833984 C-187.24044925 309.0515684 -178.59522222 302.99447023 -169.80859375 296.96484375 C-170.57042969 296.41957031 -171.33226562 295.87429688 -172.1171875 295.3125 C-184.90759352 285.97119223 -195.83204715 276.27205328 -198.80859375 259.96484375 C-200.18719521 243.66207996 -197.44052765 228.50163781 -186.84375 215.56640625 C-177.30322785 205.18052138 -164.31001449 200.43283744 -150.46484375 199.390625 C-149.40072266 199.30852783 -148.33660156 199.22643066 -147.24023438 199.1418457 C-146.03657227 199.05422974 -146.03657227 199.05422974 -144.80859375 198.96484375 C-147.09667119 194.35888425 -149.38883451 189.75497669 -151.68359375 185.15234375 C-152.02561829 184.46601868 -152.36764282 183.7796936 -152.72003174 183.0725708 C-156.77603157 174.93986634 -160.88545064 166.84799065 -165.18359375 158.83984375 C-179.40560687 132.13572902 -179.40560687 132.13572902 -181.80859375 117.96484375 C-181.93621094 117.24425781 -182.06382812 116.52367187 -182.1953125 115.78125 C-184.89378056 97.80314464 -180.37628356 79.09732966 -170.05859375 64.21484375 C-157.54834444 48.07258657 -141.55999915 37.52033272 -121.20773315 34.25097656 C-111.80447416 33.12949903 -102.20161854 33.41125111 -92.74609375 33.33984375 C-89.25371873 33.3032315 -85.76145195 33.26260417 -82.2691803 33.2171936 C-80.11009641 33.19016634 -77.95093321 33.16873008 -75.79173279 33.15365601 C-74.81623978 33.14339386 -73.84074677 33.13313171 -72.83569336 33.12255859 C-71.55667397 33.11281509 -71.55667397 33.11281509 -70.2518158 33.10287476 C-67.6919544 32.95825415 -65.30770889 32.52524261 -62.80859375 31.96484375 C-62.55078125 31.07539062 -62.29296875 30.1859375 -62.02734375 29.26953125 C-57.6797871 17.48096419 -45.719362 8.68956442 -34.78948116 3.35024929 C-23.94644386 -1.24258412 -11.53874267 -0.05806283 0 0 Z M-28.68359375 40.58984375 C-32.76757499 47.07616689 -33.10467824 54.25906973 -33.06396484 61.77001953 C-33.0675853 62.59889679 -33.07120575 63.42777405 -33.07493591 64.2817688 C-33.08177883 66.06427035 -33.08434504 67.84679262 -33.08298874 69.62930679 C-33.08201584 72.45490733 -33.09505342 75.28013543 -33.11196899 78.10568237 C-33.15802511 86.13308922 -33.18285709 94.16045361 -33.18945312 102.18798828 C-33.19447404 107.11333437 -33.21874377 112.03828511 -33.25477982 116.96349716 C-33.264555 118.83329772 -33.26692225 120.70315278 -33.26160812 122.57297134 C-33.25451841 125.18856272 -33.27185526 127.80297686 -33.29443359 130.41845703 C-33.28217491 131.5657428 -33.28217491 131.5657428 -33.26966858 132.73620605 C-33.35363452 138.22272271 -34.71687567 141.41886126 -37.80859375 145.96484375 C-42.02758216 149.80028776 -46.02153454 150.26012952 -51.52734375 150.1796875 C-56.07876233 149.75104363 -58.88878285 147.88465465 -62.05859375 144.71484375 C-65.38729134 139.48403325 -66.05821474 134.12325939 -66.12744141 128.01977539 C-66.13748703 127.36526398 -66.14753265 126.71075256 -66.15788269 126.03640747 C-66.18847244 123.8992796 -66.2056813 121.76227554 -66.22265625 119.625 C-66.24138748 118.13283745 -66.26096232 116.64068527 -66.28134155 115.14854431 C-66.33246256 111.24093773 -66.37219479 107.33329688 -66.40948486 103.42553711 C-66.44965083 99.43009098 -66.50068543 95.43478491 -66.55078125 91.43945312 C-66.64730302 83.61467976 -66.73178293 75.78983808 -66.80859375 67.96484375 C-73.139894 67.88810669 -79.47107214 67.83595889 -85.80273438 67.80004883 C-87.95186851 67.78506162 -90.10097258 67.76466488 -92.25 67.73852539 C-109.9147436 67.52920803 -124.77410725 67.70796149 -138.62109375 80.15234375 C-145.50323653 87.4575024 -148.19818567 97.21284281 -148.01069641 107.03712463 C-147.36169544 116.43874534 -143.85285334 124.71574049 -139.546875 132.96875 C-138.78264473 134.47380348 -138.78264473 134.47380348 -138.00297546 136.00926208 C-136.38717418 139.18798187 -134.75548637 142.35814862 -133.12109375 145.52734375 C-130.98368674 149.69101906 -128.85478963 153.85889557 -126.734375 158.03125 C-126.21959091 159.04201096 -125.70480682 160.05277191 -125.17442322 161.09416199 C-121.56844845 168.2519345 -118.31185888 175.49871669 -115.39424133 182.96412659 C-112.73307317 189.65250057 -109.13190654 195.85678214 -102.4453125 199.1171875 C-96.64709868 200.98120587 -91.03973786 201.09938284 -85.01763916 201.05386353 C-83.7068277 201.05007818 -83.7068277 201.05007818 -82.36953521 201.04621637 C-79.44585985 201.0365083 -76.52227402 201.01946959 -73.59863281 201.00244141 C-71.49843513 200.99393028 -69.39823562 200.9858594 -67.29803467 200.97819519 C-61.58497975 200.95598343 -55.87197399 200.92728899 -50.15895557 200.89724016 C-44.14079518 200.86646066 -38.12261228 200.84089083 -32.10443115 200.81454468 C-21.9592496 200.7693022 -11.81409483 200.7198738 -1.66894531 200.66796875 C9.94895716 200.60857717 21.56687468 200.55557124 33.18482375 200.50620043 C44.44328536 200.45820573 55.7017207 200.40552209 66.96015167 200.35084152 C71.70377329 200.32787546 76.44739779 200.30643035 81.19103241 200.28633499 C96.19163132 200.22158557 111.1914998 200.12456968 126.19140625 199.96484375 C127.2176391 199.95428168 128.24387196 199.94371962 129.30120277 199.93283749 C135.29883468 199.86881197 141.2957527 199.78659141 147.29274797 199.6779716 C149.11876784 199.64664515 150.94487571 199.62003466 152.77103758 199.59852338 C155.2633919 199.5677517 157.75470626 199.51853896 160.24664307 199.46420288 C160.96901106 199.45892633 161.69137906 199.45364978 162.435637 199.44821334 C167.05011194 199.320527 170.27058231 198.40167846 174.19140625 195.96484375 C176.09694113 193.45525564 176.09694113 193.45525564 177.48828125 190.43359375 C178.32939453 188.76804443 178.32939453 188.76804443 179.1875 187.06884766 C179.77239125 185.86763756 180.35702056 184.66629988 180.94140625 183.46484375 C181.56065807 182.22482715 182.18177118 180.98573841 182.8046875 179.74755859 C184.04401598 177.28136267 185.27563245 174.81155432 186.50195312 172.33886719 C188.28647643 168.77497816 190.14059387 165.25675425 192.0300293 161.74780273 C196.44449709 153.54526315 200.59847823 145.21292752 204.68188477 136.84173584 C205.3038 135.5681243 205.9280764 134.2956625 206.55493164 133.0244751 C212.97267377 119.98751569 218.36868508 107.74223954 213.56640625 93.21484375 C209.50312694 83.30614509 202.27465553 75.28527688 192.44869995 70.8420105 C184.85927746 67.89282004 176.97392864 67.68453302 168.93359375 67.76953125 C167.90452911 67.77236115 166.87546448 67.77519104 165.81521606 67.77810669 C162.56548869 67.78919896 159.31604871 67.8142826 156.06640625 67.83984375 C153.84766026 67.84988772 151.62890991 67.85901108 149.41015625 67.8671875 C144.0038101 67.88910226 138.59762872 67.92246876 133.19140625 67.96484375 C133.18776062 68.82404419 133.18411499 69.68324463 133.18035889 70.56848145 C133.14239753 78.68952968 133.08545271 86.81017964 133.00750351 94.93094635 C132.96809547 99.10534676 132.93587454 103.27953834 132.92041016 107.45410156 C132.90519921 111.48737313 132.87067614 115.52007032 132.82309723 119.55308533 C132.80832891 121.08710216 132.80036786 122.62120101 132.7995224 124.1552887 C132.7828355 139.25956953 132.7828355 139.25956953 128.19140625 145.96484375 C123.79093989 149.83359062 119.41342258 150.61196778 113.625 150.34765625 C109.59647128 149.7139551 107.43796831 148.48258576 104.19140625 145.96484375 C100.43430502 139.95348178 100.04288885 134.59196912 100.03369141 127.65136719 C100.02861069 126.81507278 100.02352997 125.97877838 100.01829529 125.11714172 C100.00760565 123.30290519 99.99897997 121.48865559 99.99217606 119.67440033 C99.98036348 116.79859085 99.96090367 113.92292995 99.9390564 111.04718018 C99.87752562 102.87118505 99.82344936 94.69520523 99.79003906 86.51904297 C99.769043 81.5152004 99.73369939 76.51162924 99.68928146 71.5079422 C99.67515976 69.60548354 99.66640771 67.70297686 99.66322708 65.80046844 C99.6582943 63.13199147 99.63507543 60.46422911 99.60791016 57.79589844 C99.61091629 57.01743057 99.61392242 56.23896271 99.61701965 55.43690491 C99.52169579 49.1016107 98.4534524 43.28802629 93.87890625 38.58984375 C87.74000179 34.87794803 82.15551062 34.67158896 75.18212891 34.69018555 C74.18948532 34.68507462 73.19684174 34.67996368 72.17411804 34.67469788 C68.90117317 34.66082739 65.62843948 34.66175684 62.35546875 34.6640625 C60.07392295 34.66017404 57.79237788 34.65583905 55.51083374 34.65107727 C50.73115695 34.64362041 45.95155402 34.64390239 41.171875 34.64916992 C35.05652607 34.65496222 28.94148024 34.63803649 22.82618141 34.61482525 C18.11461631 34.60007004 13.40312388 34.59921869 8.69153976 34.60233498 C6.43736547 34.60182261 4.18318701 34.5966009 1.92903519 34.58652306 C-1.22768408 34.5741423 -4.38381697 34.58096064 -7.54052734 34.5925293 C-8.92793373 34.58106369 -8.92793373 34.58106369 -10.34336853 34.56936646 C-17.47927384 34.62696643 -23.23172124 35.61204711 -28.68359375 40.58984375 Z M-161.74609375 239.96484375 C-164.8155676 244.42953299 -165.24774375 247.6072138 -164.80859375 252.96484375 C-163.37968313 257.57867562 -161.51981873 260.90277796 -157.30859375 263.40234375 C-152.48319551 265.55653939 -148.93220466 266.09028905 -143.64399529 266.09627151 C-141.7341404 266.10203323 -141.7341404 266.10203323 -139.78570259 266.10791135 C-138.36982014 266.1071311 -136.95393775 266.10625232 -135.53805542 266.10528564 C-134.03617722 266.10786925 -132.5342997 266.1108824 -131.03242314 266.11428905 C-126.89918878 266.12236297 -122.76597179 266.12414884 -118.63273048 266.12488651 C-114.1772121 266.12673641 -109.72170275 266.13428348 -105.26618958 266.14102173 C-95.52019929 266.15460889 -85.77421311 266.16063051 -76.02821493 266.16503239 C-69.94282157 266.16779445 -63.8574298 266.17203177 -57.77203751 266.17653656 C-40.92399889 266.18873028 -24.07596156 266.19902903 -7.22791862 266.20241165 C-6.14939662 266.20263122 -5.07087462 266.20285078 -3.95967013 266.203077 C-2.87856111 266.20329528 -1.79745209 266.20351356 -0.68358219 266.20373845 C1.50716917 266.20418192 3.69792052 266.20462848 5.88867188 266.20507812 C6.97536116 266.20529955 8.06205044 266.20552098 9.1816697 266.20574912 C26.78626368 266.20969634 44.39081625 266.22714758 61.99539424 266.25043765 C80.06898915 266.27415519 98.14256328 266.28661371 116.21617401 266.28777957 C126.36409057 266.28869616 136.51195319 266.29444441 146.65985489 266.31259918 C155.30206277 266.32800567 163.94420005 266.33311742 172.58641906 266.32486108 C176.99471898 266.32095638 181.40287674 266.32187535 185.81115913 266.33591843 C189.85046227 266.3486682 193.88951656 266.34745043 197.9288194 266.33532771 C199.3864748 266.33337257 200.84414789 266.33644073 202.30177845 266.34517208 C215.46729584 266.64849007 215.46729584 266.64849007 227.1544143 261.38229489 C230.49964537 258.02564629 232.11714151 254.68435802 232.35546875 249.9453125 C231.93551186 244.87583286 229.92763548 241.71780546 226.44140625 238.15234375 C221.12248033 234.57229746 215.95183601 233.71532144 209.62084293 233.71036816 C208.33343301 233.70453596 207.04602308 233.69870377 205.71960074 233.69269484 C204.30330613 233.6963275 202.88701201 233.70015185 201.47071838 233.70414734 C199.95657489 233.70112525 198.44243292 233.69723548 196.92829365 233.69255477 C192.77515004 233.68227349 188.62209274 233.68445692 184.46894205 233.68873537 C179.98692479 233.69120233 175.50492834 233.68218883 171.0229187 233.67469788 C162.24537291 233.66194832 153.46785771 233.66015748 144.69030423 233.66249814 C137.55619176 233.66428106 130.42208858 233.66253221 123.28797722 233.6582737 C121.76502817 233.65738091 121.76502817 233.65738091 120.21131248 233.65647009 C118.14875007 233.65525835 116.08618766 233.65404421 114.02362525 233.65282772 C94.68104308 233.64195133 75.33847835 233.64411523 55.9958952 233.65021256 C38.2996066 233.6553826 20.60337303 233.64412416 2.90709532 233.62511434 C-15.26376953 233.60574433 -33.43460834 233.59747842 -51.60548359 233.6012376 C-61.80694296 233.60315081 -72.00835549 233.6006503 -82.20980644 233.58652306 C-90.89372535 233.57461901 -99.57756856 233.57319346 -108.26148849 233.58531322 C-112.69183539 233.59120857 -117.12204378 233.5922832 -121.55238152 233.58031082 C-125.60935352 233.56947481 -129.66607095 233.5725281 -133.72303093 233.58657251 C-135.18930682 233.58922572 -136.65560252 233.5868333 -138.12185901 233.57883664 C-151.17136427 233.24235146 -151.17136427 233.24235146 -161.74609375 239.96484375 Z M-116.55859375 305.58984375 C-117.58364014 306.12206543 -117.58364014 306.12206543 -118.62939453 306.66503906 C-120.69834666 307.74861621 -122.7547704 308.85290117 -124.80859375 309.96484375 C-125.96617187 310.58617187 -127.12375 311.2075 -128.31640625 311.84765625 C-144.43701259 320.7869252 -159.41853178 331.47819907 -173.80859375 342.96484375 C-174.37400879 343.41166504 -174.93942383 343.85848633 -175.52197266 344.31884766 C-184.27303753 351.29594101 -192.19318386 359.14593275 -200.12109375 367.02734375 C-200.6334256 367.53431793 -201.14575745 368.04129211 -201.6736145 368.56362915 C-208.5217865 375.35742333 -214.83211234 382.37552574 -220.80859375 389.96484375 C-221.66632988 391.02501215 -222.52433214 392.0849654 -223.3828125 393.14453125 C-278.17162807 463.02305757 -301.99501454 554.38979142 -314.01171875 694.74609375 C-314.01874029 696.31829354 -314.02582711 697.89049304 -314.03297424 699.46269226 C-314.05238759 704.46341357 -314.05740884 709.46408857 -314.05859375 714.46484375 C-314.05903561 715.31707645 -314.05947746 716.16930916 -314.05993271 717.0473671 C-314.06693805 742.80788714 -313.71498843 768.34261077 -310.80859375 793.96484375 C-310.6081131 795.78333445 -310.40793234 797.60185823 -310.20800781 799.42041016 C-309.20168802 808.49501015 -308.14394666 817.56374166 -306.9921875 826.62109375 C-306.90264801 827.34935867 -306.81310852 828.0776236 -306.72085571 828.82795715 C-305.97721617 837.44690711 -305.97721617 837.44690711 -302.08454895 844.66992188 C-299.26957667 846.27152158 -297.44747983 846.3428763 -294.21728516 846.34960938 C-292.53501328 846.364776 -292.53501328 846.364776 -290.8187561 846.38024902 C-289.61141815 846.37722778 -288.4040802 846.37420654 -287.16015625 846.37109375 C-285.91487152 846.38192993 -284.66958679 846.39276611 -283.38656616 846.40393066 C-279.40218191 846.43824143 -275.41809162 846.4544059 -271.43359375 846.46484375 C-266.19639202 846.47858969 -260.95968278 846.51309226 -255.72265625 846.55859375 C-254.51936676 846.55557251 -253.31607727 846.55255127 -252.07632446 846.54943848 C-245.27411908 846.61042138 -240.07970382 846.78363734 -234.9609375 851.76171875 C-232.25945761 856.926582 -232.95973641 864.01666182 -234.53515625 869.48828125 C-236.44559211 873.66638895 -238.43563407 876.19483626 -242.80859375 877.96484375 C-247.90412189 879.06090894 -252.85174146 879.11619745 -258.03588867 879.12255859 C-258.94568481 879.12763931 -259.85548096 879.13272003 -260.79284668 879.13795471 C-262.76201108 879.14862496 -264.73118736 879.15725815 -266.70036888 879.16407394 C-269.82499268 879.17591744 -272.94948163 879.19538517 -276.0740509 879.2171936 C-284.95597803 879.27861963 -293.83789054 879.33276621 -302.7199707 879.36621094 C-308.16053874 879.38724393 -313.60085888 879.42261567 -319.04128456 879.46696854 C-321.10594056 879.48105965 -323.1706404 879.48983528 -325.23534203 879.49302292 C-341.78111229 879.52126792 -356.30666762 880.55330253 -369.1796875 892.171875 C-372.39110827 895.70674822 -374.61910602 899.74510377 -376.80859375 903.96484375 C-377.15148437 904.5784375 -377.494375 905.19203125 -377.84765625 905.82421875 C-381.83229971 914.24038157 -380.81764967 925.78017403 -378.18359375 934.46484375 C-374.39913062 944.2435789 -367.28067914 952.16374304 -358.05859375 957.21484375 C-344.9212394 962.89187865 -331.95808916 962.38138891 -317.89093018 962.3256073 C-315.43869068 962.32691638 -312.98645159 962.32954468 -310.53421474 962.3333748 C-305.21338829 962.33867511 -299.89269033 962.33470755 -294.57188416 962.32246017 C-286.66015784 962.30429986 -278.74849475 962.30345787 -270.83675139 962.30608614 C-257.5257639 962.31002139 -244.2148212 962.30002819 -230.90384674 962.28203392 C-217.7286685 962.26426897 -204.55350892 962.25273328 -191.37831879 962.24947548 C-190.14848016 962.24916615 -190.14848016 962.24916615 -188.89379631 962.24885057 C-184.72979724 962.24783554 -180.56579816 962.2469314 -176.40179905 962.24606995 C-146.92573095 962.23977254 -117.4496872 962.21957116 -87.97363281 962.19116211 C-59.34212371 962.16359893 -30.71062128 962.14235293 -2.07910156 962.12963867 C-1.19619878 962.12924409 -0.31329599 962.12884951 0.59636142 962.12844298 C9.46301869 962.12448734 18.32967601 962.12065991 27.19633338 962.1169264 C45.25794412 962.10931823 63.31955444 962.10085447 81.38116455 962.09187317 C82.6267675 962.09125536 82.6267675 962.09125536 83.89753414 962.09062508 C139.32883518 962.06303373 194.7601219 962.01526846 250.19140625 961.96484375 C250.19140625 950.41484375 250.19140625 938.86484375 250.19140625 926.96484375 C245.57140625 924.65484375 240.95140625 922.34484375 236.19140625 919.96484375 C224.63295623 910.90196817 218.254825 900.51833702 216.19140625 885.96484375 C215.19010737 871.3112197 218.05316053 858.34523075 227.01953125 846.5625 C233.89093203 838.89118424 240.1861794 836.96745718 250.19140625 831.96484375 C250.19140625 819.75484375 250.19140625 807.54484375 250.19140625 794.96484375 C245.24140625 792.32484375 240.29140625 789.68484375 235.19140625 786.96484375 C225.0930832 779.53135595 219.02724102 769.38965745 216.63671875 757.1171875 C214.54709 742.32481553 217.12610485 728.15589367 225.68359375 715.8125 C232.25099392 707.62681701 241.58153591 702.78506381 251.19140625 698.96484375 C251.04703125 698.05863281 250.90265625 697.15242188 250.75390625 696.21875 C248.94750543 684.36424463 249.14596951 674.7808935 251.19140625 662.96484375 C249.94037109 662.32869141 249.94037109 662.32869141 248.6640625 661.6796875 C232.70672266 653.36286089 223.14616905 644.36160946 217.19140625 626.96484375 C213.93106288 614.04728079 216.38209102 600.02889787 222.62109375 588.41015625 C230.38819822 576.31511297 240.4508423 569.58078163 254.19140625 565.96484375 C259.63871892 564.81611415 264.97003348 564.79273362 270.51123047 564.75952148 C271.53623154 564.74962189 272.5612326 564.73972229 273.61729431 564.72952271 C276.99353757 564.69802304 280.36979489 564.67319594 283.74609375 564.6484375 C286.09164793 564.62785802 288.43719849 564.60686128 290.78274536 564.58546448 C296.94760191 564.53034656 303.11249136 564.480892 309.27740479 564.43261719 C315.57168496 564.38232703 321.86591752 564.32668022 328.16015625 564.27148438 C340.50386555 564.16402856 352.84761624 564.06255575 365.19140625 563.96484375 C364.67152007 560.04915389 364.11306411 556.25157298 363.02734375 552.4519043 C362.79585129 551.63448257 362.56435883 550.81706085 362.32585144 549.97486877 C361.94992607 548.67633217 361.94992607 548.67633217 361.56640625 547.3515625 C361.17241386 545.97332558 361.17241386 545.97332558 360.77046204 544.56724548 C359.91726906 541.59369366 359.05553473 538.62273505 358.19140625 535.65234375 C357.89728851 534.63863708 357.60317078 533.62493042 357.30014038 532.58050537 C350.62577275 509.62812823 343.28251594 487.29745063 333.35400391 465.51611328 C332.28978065 463.18072205 331.24461121 460.83777719 330.203125 458.4921875 C311.75362257 417.51075983 282.37886595 376.43295058 247.01953125 348.234375 C244.14899651 345.93081052 241.36155411 343.54654827 238.56640625 341.15234375 C225.68453062 330.4285143 211.62058315 321.4445345 197.19140625 312.96484375 C196.10085938 312.31974854 196.10085938 312.31974854 194.98828125 311.66162109 C181.69316686 303.83340513 171.02061816 299.80722236 155.47674561 299.83113098 C154.39653334 299.82886542 153.31632107 299.82659987 152.2033751 299.82426566 C148.58316368 299.81793475 144.96298978 299.81875445 141.34277344 299.81958008 C138.74730887 299.81658801 136.15184476 299.81318537 133.55638123 299.80940247 C127.23718615 299.80110438 120.9180004 299.798348 114.59880033 299.79779009 C109.46029761 299.79731448 104.32179796 299.79525751 99.1832962 299.79208946 C84.60495514 299.78328481 70.02662143 299.77866973 55.44827768 299.77941994 C54.66274351 299.77945989 53.87720933 299.77949985 53.06787109 299.77954102 C52.28137429 299.7795819 51.49487749 299.77962278 50.68454745 299.7796649 C37.94291494 299.78007121 25.201312 299.77050498 12.45968804 299.75640265 C-0.63287598 299.74202662 -13.72542559 299.73513316 -26.81799769 299.73599643 C-34.16459957 299.73632799 -41.51117045 299.73359856 -48.8577652 299.72281837 C-55.76882942 299.71274206 -62.67982723 299.71306128 -69.5908947 299.72033501 C-72.12486555 299.72138032 -74.65884048 299.71902111 -77.19280434 299.71297455 C-80.65727911 299.70524426 -84.12152853 299.70990652 -87.58599854 299.71760559 C-89.08281878 299.70989025 -89.08281878 299.70989025 -90.60987782 299.70201904 C-100.00557662 299.74801971 -108.24227946 301.14561911 -116.55859375 305.58984375 Z M252.5703125 604.33203125 C249.5204262 607.94351135 248.98612805 611.39309818 249.31640625 615.96484375 C250.12697997 620.95225614 252.46884694 624.45107951 256.25390625 627.77734375 C259.29261095 629.63977566 261.80755133 630.09027803 265.29195881 630.09627151 C266.1302467 630.10011266 266.96853459 630.1039538 267.83222514 630.10791135 C269.21371967 630.10661162 269.21371967 630.10661162 270.62312317 630.10528564 C271.60150562 630.10825677 272.57988806 630.11122789 273.58791846 630.11428905 C276.88129339 630.12299229 280.17463204 630.12448566 283.46801758 630.12597656 C285.82322772 630.13060357 288.17843712 630.13562806 290.53364563 630.14102173 C297.61146168 630.15552926 304.68926995 630.16153131 311.76709822 630.16641724 C315.1000958 630.16899466 318.43309206 630.17278489 321.76608849 630.17653656 C332.8451475 630.18872914 343.92420457 630.19902851 355.00327015 630.20241165 C355.71238211 630.20263122 356.42149408 630.20285078 357.15209429 630.203077 C358.21830998 630.20340442 358.21830998 630.20340442 359.30606538 630.20373845 C360.74644268 630.20418192 362.18681997 630.20462848 363.62719727 630.20507812 C364.69891303 630.20541027 364.69891303 630.20541027 365.79227962 630.20574912 C377.36961347 630.20969722 388.94688438 630.22715162 400.52419392 630.25043765 C412.40979081 630.27415083 424.29535612 630.28661348 436.18097705 630.28777957 C442.8545821 630.28869634 449.52811634 630.29476755 456.20170021 630.31259918 C462.47827876 630.32904345 468.75470149 630.33125304 475.03129387 630.32246017 C477.33634991 630.32168786 479.6414142 630.32605796 481.94644928 630.33591843 C485.09073261 630.34858131 488.23445931 630.34279166 491.3787384 630.33233643 C492.29304259 630.34039283 493.20734677 630.34844923 494.14935714 630.35674977 C499.95429373 630.31153866 504.41045788 629.56083593 508.8359375 625.4296875 C512.96275897 620.03307481 514.01168875 616.72078159 513.19140625 609.96484375 C510.5263965 604.73352831 507.04603117 601.17725692 501.61675739 598.87134171 C497.25442631 597.71687781 493.25288658 597.68797724 488.76078796 597.71087646 C487.81871091 597.70775648 486.87663386 597.7046365 485.90600902 597.70142198 C482.75327481 597.69345291 479.60073365 597.69976151 476.44799805 597.70605469 C474.18588142 597.70334429 471.92376568 597.69978309 469.66165161 597.69543457 C463.51901454 597.68631257 457.37644462 597.6898545 451.23380637 597.69619274 C444.80380303 597.70125554 438.37380545 597.69656033 431.94380188 597.69342041 C420.45029205 597.68954763 408.95681653 597.69576586 397.46331207 597.70593908 C387.05373261 597.71486796 376.64419778 597.71332763 366.23461914 597.70410156 C354.13666741 597.69338405 342.0387507 597.6894227 329.94079334 597.69532609 C323.54046578 597.69844134 317.14016894 597.69886748 310.73984337 597.69225311 C304.71931406 597.68646607 298.6988688 597.69050151 292.67834854 597.70204163 C290.47130917 597.70468129 288.2642627 597.703935 286.05722618 597.6995163 C283.03904781 597.69403184 280.02113691 597.70093029 277.00297546 597.71087646 C275.70022432 597.7041843 275.70022432 597.7041843 274.37115496 597.69735694 C266.12767861 597.74985989 258.69181778 598.45197745 252.5703125 604.33203125 Z M284.31640625 672.02734375 C282.54411675 676.65498855 282.55186077 681.07842885 283.19140625 685.96484375 C285.50455544 690.85804397 288.45379569 693.40653405 293.19140625 695.96484375 C298.30219146 697.1336043 303.32777254 697.10786818 308.53936768 697.09855652 C309.93917425 697.10195485 309.93917425 697.10195485 311.36725974 697.10542184 C314.48996965 697.11174493 317.61263597 697.11093356 320.73535156 697.11010742 C322.97614091 697.11309999 325.21692974 697.11650274 327.4577179 697.12028503 C333.54255348 697.12911983 339.627375 697.13146295 345.71221638 697.13210082 C349.51513376 697.13281168 353.31804756 697.13494669 357.12096405 697.13759804 C369.70715439 697.14637263 382.29333674 697.15101796 394.87952951 697.15026756 C395.89653301 697.15020763 395.89653301 697.15020763 396.93408203 697.15014648 C397.6129167 697.1501056 398.29175137 697.15006472 398.99115679 697.1500226 C409.98682918 697.14961636 420.98246729 697.15918133 431.97812977 697.17328485 C443.28075376 697.18766715 454.58336157 697.19437109 465.88599658 697.19369107 C472.22655697 697.19343631 478.56707857 697.19627572 484.90763092 697.20686913 C490.87316469 697.21656378 496.8386227 697.21661984 502.80415916 697.20935249 C504.98981779 697.20830832 507.17548117 697.21065957 509.36113167 697.21671295 C512.35267962 697.22445963 515.34396768 697.21977031 518.33551025 697.21208191 C519.62221929 697.21979725 519.62221929 697.21979725 520.93492246 697.22766846 C527.94604524 697.18805376 535.98626981 697.10421381 541.69140625 692.58984375 C546.02452806 688.04006585 546.64361382 684.58992034 546.5078125 678.43359375 C545.89531723 673.65461832 543.22599505 670.99943255 539.94140625 667.71484375 C533.75585625 663.77858466 526.92302455 663.6730862 519.8129425 663.71087646 C518.90056373 663.70775648 517.98818496 663.7046365 517.04815835 663.70142198 C514.00770608 663.69347992 510.96745551 663.69975094 507.92700195 663.70605469 C505.740045 663.70334305 503.55308896 663.69978115 501.36613464 663.69543457 C495.43614973 663.68632621 489.50623452 663.68984918 483.57624841 663.69619274 C477.36033458 663.70126395 471.14442664 663.69655787 464.92851257 663.69342041 C453.81663962 663.68954977 442.70479401 663.69576022 431.59292646 663.70593908 C421.54053229 663.71486295 411.48818435 663.71333105 401.43579102 663.70410156 C389.74137775 663.69340744 378.04699339 663.68943081 366.35257596 663.69532609 C360.17012656 663.69843525 353.98770893 663.69888448 347.80526161 663.69225311 C341.98660322 663.68644801 336.1680315 663.69053422 330.3493824 663.70204163 C328.22142429 663.70467196 326.09345881 663.70395116 323.96550369 663.6995163 C302.36497686 662.55010596 302.36497686 662.55010596 284.31640625 672.02734375 Z M252.81640625 736.27734375 C249.79496908 741.274336 248.70885857 745.27010612 249.65234375 751.0078125 C250.84616697 755.34190986 253.10326325 758.17594007 256.69140625 760.77734375 C260.28539958 762.48449058 263.38291932 763.08932248 267.34695053 763.09627151 C268.58461847 763.10203323 268.58461847 763.10203323 269.8472898 763.10791135 C270.74844527 763.10704487 271.64960075 763.10617838 272.57806396 763.10528564 C273.53955549 763.10825677 274.50104702 763.11122789 275.49167466 763.11428905 C278.7219976 763.12297893 281.95228348 763.12448454 285.18261719 763.12597656 C287.49532145 763.13060453 289.80802494 763.13562916 292.12072754 763.14102173 C298.41008316 763.15414974 304.6994281 763.16059147 310.98879528 763.16503239 C314.91731854 763.16796244 318.84583887 763.17206712 322.77436066 763.17653656 C333.6552965 763.18864544 344.53622913 763.1990275 355.41717148 763.20241165 C356.11337475 763.20263122 356.80957803 763.20285078 357.52687837 763.203077 C358.22473002 763.20329528 358.92258167 763.20351356 359.64158034 763.20373845 C361.05564992 763.20418191 362.46971949 763.20462848 363.88378906 763.20507812 C364.93592596 763.20541027 364.93592596 763.20541027 366.00931814 763.20574912 C377.37184248 763.20969613 388.73430265 763.2271477 400.0968022 763.25043765 C411.7677392 763.27416633 423.43864085 763.28635634 435.10960221 763.28777957 C441.66030213 763.28882811 448.21091153 763.29474645 454.76158905 763.31259918 C460.9241001 763.32906714 467.08645247 763.33124145 473.24897766 763.32246017 C475.5096555 763.32168912 477.77034183 763.32604142 480.03099823 763.33591843 C483.11979255 763.34862119 486.20802347 763.34276986 489.29681396 763.33233643 C490.63516285 763.34442103 490.63516285 763.34442103 492.00054908 763.35674977 C497.97847983 763.30960243 504.1082272 762.75969632 508.75407386 758.54831052 C512.51560711 754.21595485 513.50034755 750.72156713 513.40625 745.0234375 C512.94024561 740.55826821 511.00820698 737.73865497 507.81640625 734.71484375 C502.07819992 730.88937287 497.36227859 730.67601294 490.64653015 730.70414734 C489.68010064 730.70032179 488.71367114 730.69649624 487.71795589 730.69255477 C484.47687308 730.68222911 481.23596757 730.68621616 477.99487305 730.69018555 C475.67216833 730.6858388 473.34946506 730.68065577 471.02676392 730.67469788 C464.71472456 730.66129161 458.40274501 730.66073111 452.09069419 730.66326118 C446.15596654 730.66446511 440.221249 730.6582549 434.28652439 730.65282772 C421.81216109 730.64195207 409.33782481 730.64411456 396.86345998 730.65021256 C385.45896232 730.65537959 374.05455013 730.644132 362.65006938 730.62511434 C350.9338958 730.60572708 339.21776263 730.59748164 327.50157291 730.6012376 C320.92630297 730.60305114 314.35111129 730.60040717 307.77585411 730.58652306 C301.59115915 730.57395281 295.40663522 730.5758814 289.2219429 730.58893394 C286.95320516 730.59130113 284.68445541 730.58855996 282.41573143 730.58031082 C279.31603353 730.56985386 276.21691059 730.57793607 273.11723328 730.59062195 C272.22179186 730.58324766 271.32635044 730.57587338 270.40377444 730.56827563 C263.76265977 730.62535928 257.77228476 731.45188309 252.81640625 736.27734375 Z M286.25390625 802.58984375 C283.76046242 806.67002457 282.38399008 810.16699451 282.19140625 814.96484375 C283.68154834 820.22416878 286.00746443 823.47822556 290.19140625 826.96484375 C294.90726143 829.52249656 299.58801953 829.25848999 304.81221008 829.25245667 C305.78680669 829.25910448 306.76140331 829.26575229 307.76553315 829.27260154 C311.03422789 829.29230068 314.30278569 829.29767391 317.5715332 829.30297852 C319.91394408 829.313873 322.25635145 829.32554464 324.59875488 829.3379364 C330.96448806 829.36845205 337.33018507 829.38546176 343.6959765 829.39815259 C347.67258457 829.40623556 351.64918223 829.41641598 355.62578392 829.42716789 C366.641432 829.45636306 377.65707403 829.48115814 388.67275715 829.49179173 C389.72961363 829.49282777 389.72961363 829.49282777 390.80782075 829.49388474 C391.51404914 829.49457675 392.22027754 829.49526877 392.94790679 829.49598175 C394.3789268 829.49739373 395.8099468 829.49881454 397.2409668 829.50024414 C397.95079774 829.50094931 398.66062868 829.50165448 399.39196964 829.50238102 C410.89358653 829.51463136 422.39487382 829.55742965 433.89635394 829.61318434 C445.71197005 829.66999581 457.52741959 829.70044396 469.34317368 829.70480388 C475.97447981 829.70788333 482.60538043 829.72310338 489.23656654 829.76608467 C495.47398488 829.80580623 501.71055959 829.812253 507.94806671 829.79318428 C510.23618067 829.79191709 512.52433751 829.80261221 514.81233025 829.82619858 C517.93911316 829.85659018 521.06287631 829.8436862 524.18965149 829.82008362 C525.0928748 829.83910927 525.99609811 829.85813492 526.92669183 829.8777371 C533.05995144 829.76767245 536.14160274 828.06041295 540.5427863 823.81392711 C543.74816105 820.21879585 546.09914472 817.08685901 546.31640625 812.08984375 C544.54276283 807.16305647 541.85308084 801.78257274 537.4296875 798.76171875 C531.41116616 796.61899911 524.98345721 796.81811074 518.67849731 796.82440186 C517.73964939 796.82143073 516.80080147 796.81845961 515.8335036 796.81539845 C512.69774979 796.80674922 509.56203432 796.80520643 506.42626953 796.80371094 C504.17385782 796.7990802 501.92144689 796.79405519 499.66903687 796.78866577 C493.55747204 796.77556698 487.44591819 796.76910208 481.33434153 796.76465511 C477.51484308 796.76172115 473.69534762 796.75761579 469.87585068 796.75315094 C459.28989093 796.7410488 448.70393379 796.73066376 438.11796761 796.72727585 C437.44142692 796.72705628 436.76488624 796.72683672 436.06784432 796.7266105 C435.38974212 796.72639222 434.71163992 796.72617394 434.01298916 796.72594905 C432.63903054 796.72550559 431.26507191 796.72505903 429.89111328 796.72460938 C429.20959119 796.72438795 428.5280691 796.72416652 427.82589482 796.72393838 C416.78109574 796.71998971 405.73636261 796.7025302 394.69158901 796.67924985 C383.33808436 796.65551278 371.98462392 796.64333078 360.63109004 796.64190793 C354.26204868 796.64086016 347.89310047 796.63495774 341.52408218 796.61708832 C335.53388982 796.60060767 329.54386068 796.59845221 323.55365372 796.60722733 C321.35789554 796.60799762 319.16212857 796.60365606 316.96639252 796.59376907 C313.96349544 796.58104261 310.96117591 796.58693036 307.95828247 796.59735107 C306.66239093 796.58526647 306.66239093 796.58526647 305.34031975 796.57293773 C298.1662153 796.63096078 291.7148245 797.70987425 286.25390625 802.58984375 Z M252.94140625 869.27734375 C249.81084042 874.08499842 248.58701644 878.1536879 249.51953125 883.9375 C251.07077142 888.61827703 254.43634317 891.99955906 258.69140625 894.33984375 C264.70980537 895.84444353 270.41797241 896.11141762 276.58406067 896.10528564 C277.99105092 896.10974233 277.99105092 896.10974233 279.42646521 896.11428905 C282.56532509 896.12295139 285.70414671 896.1244822 288.84301758 896.12597656 C291.09528179 896.13060642 293.34754522 896.1356313 295.59980774 896.14102173 C301.71556388 896.15413012 307.83130905 896.16058745 313.94707704 896.16503239 C317.76874771 896.16796515 321.59041541 896.17207031 325.41208458 896.17653656 C336.00229294 896.18864108 346.5924987 896.19902501 357.18271351 896.20241165 C357.85978931 896.20263122 358.53686512 896.20285078 359.23445837 896.203077 C359.91310867 896.20329528 360.59175897 896.20351356 361.29097444 896.20373845 C362.66606955 896.20418191 364.04116466 896.20462847 365.41625977 896.20507812 C366.09834736 896.20529955 366.78043495 896.20552098 367.48319187 896.20574912 C378.53452104 896.20969687 389.58578427 896.22715253 400.63708798 896.25043765 C411.99508102 896.27417502 423.35302986 896.28635677 434.71105212 896.28777957 C441.08346182 896.28882742 447.45577842 896.29473146 453.82816505 896.31259918 C459.82244801 896.32908035 465.81656786 896.33123503 471.8108654 896.32246017 C474.00823529 896.32168988 476.20561395 896.32603152 478.40296173 896.33591843 C481.40810171 896.34864486 484.41266456 896.34275712 487.4178009 896.33233643 C488.71471563 896.34442103 488.71471563 896.34442103 490.03783065 896.35674977 C496.53405367 896.30424905 503.17157344 895.42119327 508.34765625 891.2109375 C508.79109375 890.61410156 509.23453125 890.01726563 509.69140625 889.40234375 C510.3875 888.50322266 510.3875 888.50322266 511.09765625 887.5859375 C513.81763146 883.55454567 513.7674489 879.70919504 513.19140625 874.96484375 C510.65900243 869.99382885 507.20279491 866.47053808 502.19140625 863.96484375 C499.06773306 863.86203262 495.96610306 863.8214842 492.84197998 863.82440186 C491.86036841 863.82143073 490.87875683 863.81845961 489.86739945 863.81539845 C486.55709896 863.80668253 483.24683451 863.80520077 479.93652344 863.80371094 C477.5716087 863.79908479 475.20669472 863.7940604 472.84178162 863.78866577 C466.40162125 863.77551965 459.96146781 863.76905596 453.5212965 863.76465511 C449.5006694 863.76189398 445.48004472 863.75765682 441.45941925 863.75315094 C430.32978847 863.74095617 419.20015963 863.73065778 408.07052231 863.72727585 C407.35790761 863.72705628 406.64529291 863.72683672 405.91108383 863.7266105 C405.19675032 863.72639222 404.48241681 863.72617394 403.74643683 863.72594905 C402.29889409 863.72550558 400.85135134 863.72505902 399.40380859 863.72460938 C398.6857753 863.72438795 397.967742 863.72416652 397.22795013 863.72393838 C385.59558735 863.71999115 373.96328725 863.70254036 362.33094868 863.67924985 C350.39114286 863.65553655 338.45136849 863.64307398 326.51153874 863.64190793 C319.80661562 863.64099107 313.10177412 863.63523625 306.39687347 863.61708832 C300.08993969 863.6006438 293.78316099 863.59843459 287.47621346 863.60722733 C285.15987038 863.60799966 282.8435191 863.60362929 280.52719688 863.59376907 C277.36753423 863.58110664 274.20842553 863.58689564 271.04876709 863.59735107 C269.67045121 863.58526647 269.67045121 863.58526647 268.26429057 863.57293773 C261.94463648 863.6219203 257.51889187 864.57270575 252.94140625 869.27734375 Z M284.75390625 936.77734375 C282.306044 941.77098274 281.57224543 945.76458447 283.25390625 951.08984375 C285.42065709 956.17185936 288.68502106 958.88946318 293.79367256 961.08136272 C298.17737403 962.22121576 302.23226829 962.24474608 306.74264526 962.22554016 C308.17519518 962.23127848 308.17519518 962.23127848 309.63668549 962.23713273 C312.83320457 962.2474421 316.02954334 962.24347445 319.22607422 962.23950195 C321.51937018 962.24384957 323.81266469 962.24903289 326.10595703 962.25498962 C332.33322937 962.26838569 338.56044103 962.26895759 344.78772497 962.26642632 C349.98658364 962.26535699 355.18543001 962.27023903 360.38428605 962.27503175 C373.3509206 962.28676366 386.31751642 962.28590065 399.28415264 962.27947494 C410.5366238 962.27430677 421.78900837 962.28555921 433.04146241 962.30457316 C444.60398913 962.32396079 456.16646466 962.33191462 467.72900879 962.3284499 C474.21707375 962.32663658 480.70505939 962.32927823 487.19311142 962.34316444 C493.29492206 962.35573517 499.39655935 962.35380565 505.49836731 962.34075356 C507.73646732 962.33838657 509.9745795 962.3411268 512.21266556 962.34937668 C515.2707115 962.35983527 518.32817485 962.3517502 521.38619995 962.33906555 C522.71082963 962.35012698 522.71082963 962.35012698 524.0622195 962.36141187 C531.8369487 962.29369034 538.43775278 960.54927212 544.19140625 954.96484375 C546.92604305 950.49347271 546.71385309 946.05662719 546.19140625 940.96484375 C544.35121614 936.36436848 541.07568142 933.87805013 537.19140625 930.96484375 C534.47432426 930.05914975 532.90289804 929.83755018 530.11205769 929.83062267 C528.86170104 929.82393591 528.86170104 929.82393591 527.58608466 929.81711406 C526.6703435 929.81729842 525.75460234 929.81748278 524.81111145 929.81767273 C523.83822369 929.81399604 522.86533593 929.81031935 521.86296672 929.80653125 C518.58808256 929.79547805 515.31323011 929.79164779 512.03833008 929.7878418 C509.69621682 929.78157839 507.35410457 929.7749317 505.01199341 929.76792908 C498.6378737 929.75050813 492.2637615 929.73996433 485.88962388 929.73172355 C481.90867561 929.72657574 477.92772968 929.72049991 473.94678307 929.71421242 C462.92263146 929.69720042 451.89848084 929.68270672 440.87431812 929.67546368 C438.01378694 929.67355381 435.15325576 929.67163348 432.29272461 929.66967773 C431.58176267 929.66919399 430.87080072 929.66871025 430.13829448 929.66821185 C418.62372307 929.65991331 407.10925561 929.63457927 395.59472958 929.60209706 C383.77014413 929.56901244 371.94561147 929.55101363 360.12097949 929.54781944 C353.48305337 929.54565558 346.84526152 929.53648142 340.20737648 929.51135826 C333.96194827 929.48810274 327.71679281 929.48383438 321.47133255 929.49411964 C319.18001207 929.49461572 316.88867827 929.48827422 314.59739876 929.4745636 C311.46681163 929.45688005 308.33720702 929.46393412 305.20661926 929.47709656 C304.30203171 929.46612731 303.39744416 929.45515807 302.46544486 929.44385642 C295.20360034 929.51745952 289.6032193 931.18198254 284.75390625 936.77734375 Z " fill="#01e0eb" transform="translate(456.80859375,42.03515625)"/>
<path d="M0 0 C5.40103283 2.83023554 8.82087074 7.03440314 11.796875 12.328125 C14.55311378 15.89722064 17.13742123 16.90359637 21.2890625 18.1875 C22.72723912 18.68309686 24.16338448 19.18461958 25.59765625 19.69140625 C26.33870605 19.95195801 27.07975586 20.21250977 27.84326172 20.48095703 C39.46863286 24.76160721 49.59321834 30.35596275 59.1015625 38.3125 C59.88789062 38.93640625 60.67421875 39.5603125 61.484375 40.203125 C80.06458349 55.61110278 91.87471915 80.46671916 94.1015625 104.3125 C94.6773312 113.80240202 94.6762863 120.28554466 89.1015625 128.125 C84.27112376 131.64719492 78.73353619 132.85147755 72.78515625 131.96875 C67.68230468 130.34203451 65.04181998 127.72288621 62.1015625 123.3125 C60.1180365 118.33888258 59.4460843 113.38862286 58.7265625 108.125 C56.03532667 90.06634266 48.89320016 75.02910085 34.3515625 63.625 C28.89625611 59.65501543 23.36434866 56.77606043 17.1015625 54.3125 C15.4515625 53.6525 13.8015625 52.9925 12.1015625 52.3125 C12.1015625 95.2125 12.1015625 138.1125 12.1015625 182.3125 C14.4115625 182.6425 16.7215625 182.9725 19.1015625 183.3125 C45.97821068 190.96810681 67.90015063 207.07235652 82.04931641 231.42089844 C94.76327016 254.27651647 98.18124353 281.0111785 91.296875 306.37109375 C86.87520777 321.33311831 80.27080519 334.45190717 70.1015625 346.3125 C69.43447266 347.19615234 69.43447266 347.19615234 68.75390625 348.09765625 C57.35199467 362.84691802 38.58700096 372.33201914 20.98925781 377.19848633 C16.22725352 378.58839229 13.82675739 379.92964399 11.1015625 384.3125 C10.43159442 385.64499207 9.80116444 386.99869154 9.2265625 388.375 C7.1765792 392.49835044 5.48141143 394.46835308 1.1015625 396.3125 C-4.6898172 397.02895934 -10.69401591 397.3919826 -16.0234375 394.6875 C-19.9226498 391.46641158 -21.2024172 388.3077582 -22.8359375 383.625 C-24.1529705 380.7585164 -25.22146008 379.98506501 -27.8984375 378.3125 C-30.35680396 377.4873931 -32.77882085 376.75194298 -35.2734375 376.0625 C-48.35643918 372.17521835 -59.32674167 365.9995481 -69.8984375 357.3125 C-71.19394531 356.26449219 -71.19394531 356.26449219 -72.515625 355.1953125 C-92.66047678 338.06277501 -103.66285739 313.33216856 -105.8984375 287.3125 C-105.970625 286.52101563 -106.0428125 285.72953125 -106.1171875 284.9140625 C-106.4353723 278.20566629 -104.58852149 272.55071934 -100.5859375 267.25 C-95.6979482 263.69174079 -88.58232078 264.53742501 -82.8984375 265.3125 C-77.70504489 267.19637771 -75.35850471 269.37069098 -72.8984375 274.3125 C-71.86504809 278.27357825 -71.1991717 282.2772391 -70.5234375 286.3125 C-67.11455666 304.72920746 -60.53970479 320.88413357 -44.8984375 332.3125 C-38.21354477 336.69600383 -31.65211179 340.19807106 -23.8984375 342.3125 C-23.69725963 327.75204459 -23.51403169 313.19145428 -23.35184956 298.63051033 C-23.27612309 291.868772 -23.19464569 285.10719652 -23.09936523 278.34570312 C-23.00737524 271.8165451 -22.93176145 265.28731462 -22.86598778 258.7578392 C-22.83828638 256.27080567 -22.8051622 253.78382625 -22.76644325 251.29693985 C-22.71301474 247.80488375 -22.6791366 244.31313016 -22.6496582 240.82080078 C-22.62952164 239.80012009 -22.60938507 238.77943939 -22.58863831 237.72782898 C-22.55016735 229.07850081 -23.7265605 220.38652936 -29.9296875 213.89453125 C-35.68614678 209.26880504 -42.75214823 206.7242405 -49.58740234 204.11621094 C-70.81729313 195.98834859 -87.45539146 178.59175473 -96.92822266 158.08300781 C-107.86130948 132.74327329 -108.85345704 105.08899129 -99.46875 79.0703125 C-94.70768333 67.28369289 -88.55700691 56.66860741 -79.8984375 47.3125 C-79.21394531 46.54808594 -78.52945312 45.78367187 -77.82421875 44.99609375 C-64.69405089 31.04073974 -48.34677353 22.85578751 -30.140625 17.6484375 C-25.31901937 15.66170361 -22.67571214 12.89943572 -20.3984375 8.25 C-18.68249236 4.88960743 -16.99185152 3.42507543 -13.8984375 1.3125 C-13.3003125 0.9 -12.7021875 0.4875 -12.0859375 0.0625 C-8.02445317 -1.33000891 -4.02389658 -1.45721358 0 0 Z M-52.3046875 68.55859375 C-64.14214006 80.90278658 -71.23137042 96.50712648 -71.9921875 113.64453125 C-71.47582926 133.84704731 -62.74227253 151.3688403 -48.25390625 165.30859375 C-41.04393697 171.44244821 -32.48678618 176.3125 -22.8984375 176.3125 C-22.8984375 135.7225 -22.8984375 95.1325 -22.8984375 53.3125 C-34.15196387 53.3125 -44.39904671 61.17914009 -52.3046875 68.55859375 Z M12.1015625 218.3125 C12.1015625 259.2325 12.1015625 300.1525 12.1015625 342.3125 C24.89386366 339.46976641 32.88452946 334.48202256 42.1015625 325.3125 C42.72804688 324.72082031 43.35453125 324.12914062 44 323.51953125 C54.86593857 312.38317339 60.01394618 296.21246072 60.5390625 281 C60.06430855 262.52257641 52.95593316 245.97664737 39.89453125 232.90625 C31.68815519 225.28522384 23.10128228 220.51244396 12.1015625 218.3125 Z " fill="#01e0eb" transform="translate(495.8984375,458.6875)"/>
</svg>
