<?xml version="1.0" standalone="no"?>
<!DOCTYPE svg PUBLIC "-//W3C//DTD SVG 20010904//EN"
 "http://www.w3.org/TR/2001/REC-SVG-20010904/DTD/svg10.dtd">
<svg version="1.0" xmlns="http://www.w3.org/2000/svg"
 width="512.000000pt" height="512.000000pt" viewBox="0 0 512.000000 512.000000"
 preserveAspectRatio="xMidYMid meet">

<g transform="translate(0.000000,512.000000) scale(0.100000,-0.100000)"
fill="#01e0eb" stroke="none">
<path d="M78 5099 c-23 -12 -46 -35 -58 -59 -20 -39 -20 -54 -20 -2480 0
-2377 0 -2442 19 -2478 11 -22 35 -46 59 -60 l40 -22 2441 0 c2428 0 2442 0
2481 20 45 23 80 80 80 130 0 50 -35 107 -80 130 -39 20 -54 20 -2390 20
l-2350 0 0 2350 c0 2336 0 2351 -20 2390 -37 73 -127 99 -202 59z"/>
<path d="M2590 5114 c-335 -28 -633 -160 -867 -387 -171 -165 -286 -345 -357
-557 -53 -157 -70 -269 -69 -450 0 -237 42 -410 150 -623 210 -412 607 -689
1070 -748 113 -14 322 -7 432 16 491 99 905 468 1054 941 48 152 61 245 61
429 -1 242 -39 408 -143 613 -168 329 -440 569 -783 690 -153 54 -397 88 -548
76z m320 -324 c518 -111 882 -583 857 -1110 -22 -446 -303 -826 -721 -976
-178 -63 -362 -80 -542 -49 -354 61 -642 277 -800 600 -204 419 -123 903 206
1236 262 266 636 377 1000 299z"/>
<path d="M2625 4566 c-64 -29 -95 -84 -95 -171 l0 -54 -45 -20 c-64 -28 -150
-113 -181 -178 -52 -111 -40 -254 29 -345 53 -69 105 -101 273 -167 173 -68
229 -99 239 -131 10 -31 -20 -69 -72 -92 -80 -36 -207 -6 -283 66 -47 45 -74
58 -125 58 -89 0 -145 -57 -145 -147 0 -62 26 -104 102 -162 52 -41 171 -103
196 -103 8 0 12 -19 12 -63 0 -109 57 -177 150 -177 92 0 150 67 150 172 0 56
0 56 38 69 103 33 214 137 253 236 50 130 22 267 -77 373 -63 68 -90 83 -294
166 -154 63 -175 74 -178 96 -5 38 29 61 97 66 69 5 116 -8 192 -55 91 -55
185 -43 229 30 26 42 27 122 2 160 -33 49 -131 111 -219 137 l-43 13 0 61 c0
80 -23 124 -80 154 -50 25 -82 27 -125 8z"/>
<path d="M3701 2468 c-87 -45 -81 19 -81 -928 0 -816 1 -836 20 -868 11 -18
34 -41 52 -52 32 -19 52 -20 523 -20 557 0 539 -3 582 81 l23 43 -2 832 c-3
823 -3 833 -24 860 -11 15 -33 37 -48 48 -27 20 -40 21 -514 24 l-487 2 -44
-22z m819 -923 l0 -645 -300 0 -300 0 0 645 0 645 300 0 300 0 0 -645z"/>
<path d="M2205 2056 c-37 -16 -70 -52 -84 -89 -7 -19 -11 -230 -11 -636 l0
-607 23 -44 c42 -83 23 -81 589 -78 484 3 497 4 525 24 65 48 63 25 63 707 0
595 -1 619 -20 656 -13 27 -33 46 -63 60 -42 20 -55 21 -518 21 -373 -1 -480
-4 -504 -14z m805 -721 l0 -435 -300 0 -300 0 0 435 0 435 300 0 300 0 0 -435z"/>
<path d="M693 1681 c-25 -12 -51 -34 -63 -53 -19 -32 -20 -49 -20 -478 0 -426
1 -446 20 -478 11 -18 34 -41 52 -52 32 -19 52 -20 524 -20 l491 0 33 23 c18
12 43 35 54 50 21 28 21 38 21 470 0 491 1 480 -67 529 l-33 23 -485 2 c-462
3 -487 2 -527 -16z m815 -533 l2 -248 -300 0 -300 0 0 250 0 250 298 -2 297
-3 3 -247z"/>
</g>
</svg>
