<?xml version="1.0" encoding="UTF-8"?>
<svg version="1.1" xmlns="http://www.w3.org/2000/svg" width="1080" height="1081">
<path d="M0 0 C4.34765888 5.18507517 7.07730471 11.27001089 10.02636719 17.31347656 C10.66549325 18.60364062 11.30558932 19.89332455 11.94659424 21.18255615 C13.62833382 24.57066497 15.29835583 27.96440905 16.9654541 31.35974121 C19.60848291 36.73711329 22.26997561 42.10540477 24.92908096 47.47484016 C25.57714724 48.78367958 26.2249008 50.09267389 26.87234116 51.40182304 C34.96580642 67.76331649 43.48255422 83.87034219 52.38964844 99.80371094 C62.80282406 118.839932 65.67785695 138.77964626 60.60449219 159.86035156 C57.17564936 171.39151339 52.201284 180.82020385 44.13745117 189.64794922 C32.46544277 202.46007285 35.09252949 218.41628658 35.14770508 234.73950195 C35.15126628 236.91058787 35.15435087 239.08167462 35.15699768 241.25276184 C35.16352108 245.90814767 35.17306233 250.56351391 35.18489265 255.21888924 C35.20326516 262.58654988 35.21280523 269.95420591 35.22080994 277.32188416 C35.24490245 298.26579851 35.28084843 319.20968408 35.32543945 340.15356445 C35.35002119 351.73590796 35.36736182 363.31824031 35.37699884 374.9006061 C35.3835238 382.21846911 35.39904417 389.53623961 35.42131627 396.85407078 C35.43308023 401.41173903 35.43641561 405.96938507 35.43741417 410.52706718 C35.43955397 412.63330099 35.44511904 414.73953466 35.45444489 416.8457489 C35.56477744 442.77607301 35.56477744 442.77607301 31.16699219 449.17285156 C23.03762741 454.70773822 14.46294524 454.60188841 4.91368103 454.54707336 C3.46793198 454.54981717 2.02218492 454.55387199 0.57644278 454.55911702 C-3.37840806 454.56966574 -7.33303162 454.56159976 -11.28787243 454.55036652 C-15.55990059 454.54150224 -19.83189972 454.54997443 -24.10392761 454.55622864 C-32.46545933 454.56570546 -40.82690461 454.55912669 -49.1884299 454.5469657 C-58.92836394 454.53332881 -68.66827751 454.53498503 -78.40821867 454.53709903 C-95.78754437 454.54028724 -113.16682905 454.5286305 -130.54614258 454.5090332 C-147.4058558 454.49002685 -164.26552097 454.48294664 -181.12524414 454.48852539 C-199.49093657 454.49458449 -217.85660788 454.49440392 -236.22229856 454.48303956 C-238.18094377 454.48183228 -240.13958897 454.4806263 -242.09823418 454.47942162 C-243.54372119 454.47851631 -243.54372119 454.47851631 -245.01840996 454.47759271 C-251.80600297 454.47371514 -258.59358813 454.47410655 -265.38118172 454.47600746 C-273.65331995 454.47813052 -281.92541611 454.4728968 -290.1975425 454.45839391 C-294.41724505 454.45115524 -298.63688636 454.44706842 -302.85659409 454.45163727 C-306.72100193 454.45571962 -310.58528345 454.45053132 -314.44967216 454.43801119 C-315.84589937 454.43508828 -317.24213853 454.43550888 -318.63836265 454.43965427 C-336.02952203 454.4865917 -336.02952203 454.4865917 -342.14550781 449.92285156 C-347.20106114 444.6265576 -347.06339019 438.84171707 -347.04225159 431.91427612 C-347.04988184 430.52883691 -347.04988184 430.52883691 -347.05766624 429.11540902 C-347.07231211 426.02497626 -347.07286027 422.93470328 -347.07348633 419.84423828 C-347.08114893 417.62639558 -347.08969557 415.40855578 -347.09906006 413.1907196 C-347.1173353 408.41573645 -347.1293763 403.64079243 -347.13659859 398.86577988 C-347.14809202 391.30924995 -347.17355399 383.75280634 -347.20091248 376.19631958 C-347.23783579 365.59573355 -347.26854607 354.99515019 -347.29370117 344.39453125 C-347.29529847 343.72220243 -347.29689577 343.04987361 -347.29854148 342.35717119 C-347.30014038 341.68404358 -347.30173928 341.01091598 -347.30338663 340.31739056 C-347.32604063 330.7893868 -347.35067941 321.2613909 -347.37768555 311.73339844 C-347.38052977 310.72886821 -347.38052977 310.72886821 -347.38343144 309.70404445 C-347.41528138 298.51214308 -347.4510474 287.32025558 -347.48872703 276.12837231 C-347.51357405 268.6235086 -347.5330404 261.11865593 -347.54810917 253.61376643 C-347.55835404 248.93367113 -347.57250114 244.25359308 -347.58758545 239.57351112 C-347.5937122 237.41127367 -347.59818752 235.24903077 -347.60084343 233.08678627 C-346.47786717 209.8511412 -346.47786717 209.8511412 -356.52050781 190.04785156 C-371.58581076 173.63592936 -375.70336806 152.46251487 -374.94091797 130.82470703 C-374.0105809 116.34716942 -367.27837402 104.21363143 -360.33227539 91.80371094 C-353.95094396 80.3572804 -347.99288799 68.7392955 -342.18847656 56.99316406 C-341.81458424 56.23758587 -341.44069191 55.48200768 -341.05546951 54.70353317 C-337.55690103 47.63283521 -334.06534165 40.55872472 -330.59301758 33.47509766 C-328.6703762 29.55416636 -326.735828 25.63930354 -324.79375648 21.72796249 C-324.06651923 20.25753981 -323.34370213 18.78492132 -322.62569237 17.30997086 C-312.82171103 -2.82185307 -312.82171103 -2.82185307 -302.77050781 -6.82714844 C-299.00150262 -7.27341332 -295.25377426 -7.2473985 -291.46188354 -7.23260498 C-289.74567659 -7.24363357 -289.74567659 -7.24363357 -287.99479878 -7.25488496 C-284.15807179 -7.2758907 -280.32164345 -7.27559057 -276.48486328 -7.27539062 C-273.73499617 -7.28439162 -270.98515516 -7.29786932 -268.23530579 -7.31114197 C-261.53844673 -7.34075751 -254.84164396 -7.35453761 -248.14472847 -7.36304441 C-240.33904017 -7.37358779 -232.53343077 -7.40012363 -224.72778596 -7.42738846 C-210.79217553 -7.47554837 -196.85656635 -7.50964888 -182.92089844 -7.53564453 C-169.41467451 -7.56085539 -155.9085167 -7.59518364 -142.40234375 -7.64013672 C-141.57135917 -7.64290095 -140.74037459 -7.64566518 -139.88420866 -7.64851317 C-138.21003774 -7.65408788 -136.53586682 -7.65966266 -134.86169589 -7.6652375 C-133.62274398 -7.66935957 -133.62274398 -7.66935957 -132.35876274 -7.67356491 C-131.53481213 -7.67630875 -130.71086151 -7.67905258 -129.8619427 -7.68187957 C-116.97309336 -7.72445398 -104.0842212 -7.75911239 -91.19534596 -7.79278003 C-86.53290706 -7.80503523 -81.87047261 -7.81835023 -77.20803885 -7.83242026 C-69.80594257 -7.85469626 -62.40385472 -7.87349336 -55.00173382 -7.8853592 C-51.62204313 -7.89083122 -48.24239469 -7.89839738 -44.86271477 -7.90935326 C-41.18881161 -7.92093055 -37.51495242 -7.92608335 -33.84103394 -7.92962646 C-32.78672428 -7.9343839 -31.73241462 -7.93914133 -30.64615619 -7.94404292 C-7.77686228 -7.93585347 -7.77686228 -7.93585347 0 0 Z M-290.30859375 29.26757812 C-293.8808499 33.92320388 -296.3072327 39.30719882 -298.89550781 44.54785156 C-299.55372816 45.85497802 -300.21341461 47.16136716 -300.87451172 48.46704102 C-302.21043152 51.10770062 -303.54034686 53.75125122 -304.86621094 56.39697266 C-307.55815908 61.75356964 -310.3537574 67.05529662 -313.14550781 72.36035156 C-316.81543009 79.37933866 -320.45293381 86.4137318 -324.02050781 93.48535156 C-324.40384277 94.23905029 -324.78717773 94.99274902 -325.18212891 95.76928711 C-327.10242886 99.29688703 -327.10242886 99.29688703 -327.77050781 103.17285156 C-302.69050781 103.17285156 -277.61050781 103.17285156 -251.77050781 103.17285156 C-249.13050781 95.27347656 -246.49050781 87.37410156 -243.77050781 79.23535156 C-242.95582031 76.80039307 -242.14113281 74.36543457 -241.30175781 71.85668945 C-237.54917968 60.62426071 -233.83812594 49.37910263 -230.20800781 38.10644531 C-229.68787109 36.50011986 -229.68787109 36.50011986 -229.15722656 34.86134338 C-228.68542969 33.38829994 -228.68542969 33.38829994 -228.20410156 31.88549805 C-227.92622803 31.02085434 -227.64835449 30.15621063 -227.36206055 29.2653656 C-226.6798285 27.21450986 -226.6798285 27.21450986 -226.77050781 25.17285156 C-233.72647312 25.14737988 -240.68242627 25.12993374 -247.63842773 25.11791992 C-250.00203908 25.1129085 -252.36564735 25.1060976 -254.72924805 25.09741211 C-258.1375403 25.0852063 -261.54579135 25.07959119 -264.95410156 25.07519531 C-266.52495766 25.06745338 -266.52495766 25.06745338 -268.12754822 25.05955505 C-280.02943754 24.46794051 -280.02943754 24.46794051 -290.30859375 29.26757812 Z M-183.33129883 25.22857666 C-187.11328781 25.44983863 -189.13914398 25.64883872 -192.10522461 28.1105957 C-194.3944003 32.32011494 -195.91847734 36.62512768 -197.41503906 41.16894531 C-197.91435188 42.64488914 -197.91435188 42.64488914 -198.42375183 44.15065002 C-199.48653245 47.30071868 -200.53474793 50.45542512 -201.58300781 53.61035156 C-202.27546087 55.66599562 -202.96881244 57.72133725 -203.66308594 59.77636719 C-207.10702687 70.00099507 -210.47420293 80.25111685 -213.78222656 90.52050781 C-214.23563164 91.91431923 -214.23563164 91.91431923 -214.69819641 93.33628845 C-214.97173447 94.19251297 -215.24527252 95.04873749 -215.52709961 95.9309082 C-215.88882515 97.05536095 -215.88882515 97.05536095 -216.25785828 98.20252991 C-216.89640891 100.31742065 -216.89640891 100.31742065 -216.77050781 103.17285156 C-176.51050781 103.17285156 -136.25050781 103.17285156 -94.77050781 103.17285156 C-102.48998113 78.21650018 -102.48998113 78.21650018 -110.63842773 53.40600586 C-111.28264116 51.4993406 -111.92107417 49.59071488 -112.55444336 47.68041992 C-113.496455 44.83924089 -114.45377489 42.00365967 -115.41503906 39.16894531 C-115.69426712 38.31811874 -115.97349518 37.46729218 -116.26118469 36.59068298 C-118.27887061 30.50966964 -118.27887061 30.50966964 -122.77050781 26.17285156 C-129.30910716 24.59615243 -136.37019006 25.0264751 -143.05175781 25.04003906 C-144.10528442 25.03908234 -145.15881104 25.03812561 -146.2442627 25.03713989 C-148.45955465 25.03646297 -150.67484864 25.03828301 -152.89013672 25.04248047 C-156.26046245 25.0478356 -159.63065493 25.04251879 -163.00097656 25.03613281 C-165.16373727 25.03679368 -167.3264979 25.03807502 -169.48925781 25.04003906 C-170.48638794 25.03801483 -171.48351807 25.0359906 -172.51086426 25.03390503 C-176.11981881 25.04586356 -179.72350132 25.15006777 -183.33129883 25.22857666 Z M-85.77050781 25.17285156 C-81.30012546 40.56481905 -76.33953134 55.78111067 -71.25512695 70.97973633 C-70.15709547 74.2622114 -69.0646475 77.54651575 -67.9736433 80.83133221 C-66.92315314 83.99171382 -65.8681312 87.15057595 -64.81347656 90.30957031 C-64.42185837 91.48847336 -64.03024017 92.6673764 -63.62675476 93.88200378 C-63.08532585 95.49683403 -63.08532585 95.49683403 -62.53295898 97.14428711 C-62.21574387 98.09434128 -61.89852875 99.04439545 -61.57170105 100.02323914 C-60.95854821 102.12335352 -60.95854821 102.12335352 -59.77050781 103.17285156 C-57.39749912 103.2677989 -55.05372078 103.29844476 -52.68041992 103.28637695 C-51.93900253 103.28652298 -51.19758514 103.28666901 -50.43370056 103.28681946 C-47.9717216 103.28612021 -45.50981738 103.27832731 -43.04785156 103.27050781 C-41.34534242 103.26864367 -39.64283274 103.26721975 -37.94032288 103.26622009 C-33.45057708 103.26239459 -28.96086343 103.25256403 -24.47113037 103.24151611 C-19.8931929 103.23130269 -15.31525026 103.22672262 -10.73730469 103.22167969 C-1.74835824 103.21094179 7.2405643 103.19386497 16.22949219 103.17285156 C11.20633134 92.44556384 6.11823261 81.78320207 0.60449219 71.29785156 C-0.59266531 69.0103752 -1.7892582 66.72260328 -2.98535156 64.43457031 C-3.29009903 63.85254349 -3.5948465 63.27051666 -3.90882874 62.67085266 C-6.27075963 58.15231084 -8.58979121 53.61284082 -10.89941406 49.06738281 C-11.92033312 47.06570032 -12.94193757 45.06436929 -13.96380615 43.06317139 C-14.62309814 41.76818415 -15.27974582 40.47184704 -15.93365479 39.1741333 C-16.84486761 37.36674339 -17.76644375 35.56458949 -18.68847656 33.76269531 C-19.21207764 32.73007568 -19.73567871 31.69745605 -20.27514648 30.63354492 C-21.68327847 27.92551837 -21.68327847 27.92551837 -24.77050781 26.17285156 C-31.8547232 25.05484832 -38.86554624 25.04132779 -46.02441406 25.07519531 C-47.16587387 25.07661026 -48.30733368 25.07802521 -49.48338318 25.07948303 C-53.0999523 25.08504405 -56.71645766 25.09758925 -60.33300781 25.11035156 C-62.79719962 25.1153716 -65.26139241 25.11993363 -67.72558594 25.12402344 C-73.74058135 25.1350007 -79.75554003 25.15169963 -85.77050781 25.17285156 Z M-341.77050781 137.17285156 C-341.77050781 148.72833325 -339.29102329 156.68541774 -332.77050781 166.17285156 C-332.04863281 167.22472656 -331.32675781 168.27660156 -330.58300781 169.36035156 C-321.65410029 178.28925909 -310.23516438 183.28299321 -297.64550781 183.61035156 C-284.1481066 183.15054998 -273.15495846 177.64533747 -263.87597656 167.84082031 C-256.37020065 158.32979072 -254.32683179 149.10236346 -251.77050781 137.17285156 C-281.47050781 137.17285156 -311.17050781 137.17285156 -341.77050781 137.17285156 Z M-216.77050781 137.17285156 C-211.53172353 154.63546583 -203.05199771 166.15924977 -187.21972656 175.41503906 C-170.358467 184.00797995 -152.65555153 185.69382879 -134.67089844 179.86181641 C-119.26112839 174.27518086 -106.46300197 163.51793921 -99.09863281 148.84082031 C-96.57932398 143.19921628 -96.57932398 143.19921628 -95.77050781 137.17285156 C-135.70050781 137.17285156 -175.63050781 137.17285156 -216.77050781 137.17285156 Z M-59.77050781 137.17285156 C-58.19054071 152.97252257 -53.1924586 164.39084327 -40.93847656 174.60644531 C-30.76187549 181.95926879 -20.17232021 184.28619608 -7.77050781 183.17285156 C5.22619574 180.66075724 15.54419658 173.96642228 23.22949219 163.17285156 C28.29923044 153.99183304 29.22949219 147.85648636 29.22949219 137.17285156 C-0.14050781 137.17285156 -29.51050781 137.17285156 -59.77050781 137.17285156 Z M-232.77050781 181.17285156 C-233.71164612 182.13414761 -234.61775075 183.12978553 -235.50878906 184.13769531 C-251.49643587 201.94392842 -267.60367102 212.15199696 -291.77050781 215.17285156 C-299.03050781 215.17285156 -306.29050781 215.17285156 -313.77050781 215.17285156 C-313.77050781 282.82285156 -313.77050781 350.47285156 -313.77050781 420.17285156 C-209.82050781 420.17285156 -105.87050781 420.17285156 1.22949219 420.17285156 C1.22949219 352.52285156 1.22949219 284.87285156 1.22949219 215.17285156 C-5.37050781 215.17285156 -11.97050781 215.17285156 -18.77050781 215.17285156 C-41.14672251 213.06910488 -60.25209632 204.17063776 -74.78222656 186.76269531 C-76.16874256 184.93016718 -77.50231007 183.08852578 -78.77050781 181.17285156 C-82.25604488 182.64990651 -84.32659812 184.60659413 -86.89550781 187.36035156 C-104.96240157 205.69035542 -130.64648369 214.83819261 -156.02050781 215.48535156 C-183.90256661 214.99416503 -209.43461303 203.79446941 -229.08300781 183.98535156 C-229.96988281 183.05722656 -230.85675781 182.12910156 -231.77050781 181.17285156 C-232.10050781 181.17285156 -232.43050781 181.17285156 -232.77050781 181.17285156 Z " fill="#FFCA54" transform="translate(713.7705078125,316.8271484375)"/>
<path d="M0 0 C0.75378707 -0.00297112 1.50757413 -0.00594224 2.28420323 -0.0090034 C4.81750631 -0.01769551 7.35076216 -0.01919908 9.88407898 -0.02069092 C11.69742433 -0.02531872 13.5107687 -0.03034333 15.32411194 -0.03573608 C20.25599768 -0.04886556 25.1878698 -0.05530609 30.11977029 -0.05974674 C33.20017127 -0.06267654 36.28056853 -0.06678116 39.36096764 -0.07125092 C48.99637819 -0.08492718 58.63178023 -0.09459325 68.26719981 -0.09845281 C79.394453 -0.10293426 90.52158339 -0.12048569 101.64879924 -0.1494534 C110.24676176 -0.17106064 118.84468972 -0.18115657 127.44267911 -0.18249393 C132.57928922 -0.18354262 137.71578393 -0.18946427 142.85236549 -0.20731354 C147.68439271 -0.22377766 152.51621754 -0.22595778 157.34826279 -0.21717453 C159.12117619 -0.21640327 160.89410039 -0.22075856 162.66698647 -0.23063278 C165.08877925 -0.24332944 167.50985282 -0.2374882 169.93164062 -0.22705078 C170.98209367 -0.23913539 170.98209367 -0.23913539 172.05376798 -0.25146413 C176.64374623 -0.20525158 179.75185452 0.74462121 183.65629578 3.14044189 C187.51562016 7.31268447 188.77592226 10.38411179 188.8034668 16.0030365 C188.81419975 17.5064283 188.81419975 17.5064283 188.82514954 19.04019165 C188.82783844 20.13892609 188.83052734 21.23766052 188.83329773 22.36968994 C188.83986893 23.52770615 188.84644012 24.68572235 188.85321045 25.87882996 C188.87295795 29.71994081 188.88460966 33.56101254 188.89457703 37.40216064 C188.89865255 38.7133317 188.90272808 40.02450275 188.90692711 41.37540627 C188.92597593 47.6000342 188.94020606 53.82465033 188.94853908 60.0493018 C188.95830248 67.22320544 188.98459943 74.39679978 189.02503997 81.57059449 C189.05525701 87.12232902 189.07001333 92.67397519 189.07332009 98.22579032 C189.07566479 101.53828102 189.08653781 104.85036674 189.10978127 108.16278648 C189.13413418 111.86351473 189.13321398 115.5634373 189.12626648 119.26422119 C189.14548157 120.89714111 189.14548157 120.89714111 189.16508484 122.56304932 C189.11965221 129.21298244 188.1786435 133.46127525 184.65629578 139.14044189 C180.17984994 143.4769988 175.2337884 143.28919197 169.28172302 143.28761292 C168.53665977 143.2912896 167.79159651 143.29496629 167.02395558 143.29875439 C164.5260698 143.30977199 162.02822564 143.31363179 159.53031921 143.31744385 C157.73977527 143.32370991 155.94923263 143.33035684 154.15869141 143.33735657 C148.27769371 143.35838083 142.39669581 143.36875681 136.51567078 143.37872314 C134.49010962 143.38277118 132.46454861 143.38688812 130.43898773 143.39107323 C120.92318051 143.41012059 111.40738103 143.42435309 101.89155841 143.4326852 C90.91088915 143.44245902 79.9304214 143.46878429 68.94982314 143.50918609 C60.45966476 143.53935171 51.96956412 143.55415446 43.47935319 143.55746621 C38.40972084 143.559816 33.34030388 143.56876749 28.27072906 143.59392738 C23.50019704 143.61722113 18.73002203 143.62143607 13.95944786 143.611166 C12.21155548 143.61067086 10.46364543 143.6169848 8.71580696 143.63072205 C-7.79745484 143.75321595 -7.79745484 143.75321595 -14.34370422 139.14044189 C-17.7197715 134.78422606 -18.46519873 130.67748705 -18.48414612 125.27148438 C-18.48985626 124.29309097 -18.49556641 123.31469757 -18.50144958 122.30665588 C-18.50312637 120.70602547 -18.50312637 120.70602547 -18.50483704 119.07305908 C-18.50980194 117.94415756 -18.51476685 116.81525604 -18.5198822 115.65214539 C-18.53449855 111.91386304 -18.54130517 108.17562313 -18.54682922 104.43731689 C-18.55258133 101.83902994 -18.55833906 99.24074299 -18.56410217 96.64245605 C-18.57326777 91.88837103 -18.57956853 87.13430297 -18.58259892 82.38021064 C-18.58707569 75.3965429 -18.6046086 68.41307128 -18.63359952 61.42946315 C-18.65787824 55.36929596 -18.66554604 49.30922108 -18.66727448 43.24900055 C-18.67029872 40.6766376 -18.67831949 38.10427544 -18.69145966 35.53194427 C-18.70854697 31.92961345 -18.70663293 28.32775794 -18.70014954 24.72540283 C-18.70936432 23.66641281 -18.7185791 22.60742279 -18.72807312 21.51634216 C-18.69338671 15.35235323 -18.00824648 10.73099414 -15.34370422 5.14044189 C-10.52758744 0.44472803 -6.46226944 -0.00792007 0 0 Z M15.65629578 33.14044189 C15.65629578 58.55044189 15.65629578 83.96044189 15.65629578 110.14044189 C61.85629578 110.14044189 108.05629578 110.14044189 155.65629578 110.14044189 C155.65629578 84.73044189 155.65629578 59.32044189 155.65629578 33.14044189 C109.45629578 33.14044189 63.25629578 33.14044189 15.65629578 33.14044189 Z " fill="#FFCA54" transform="translate(472.3437042236328,563.8595581054688)"/>
<path d="M0 0 C1.52088221 0.26024612 3.04190197 0.51968946 4.56304932 0.77838135 C8.55368481 1.45927142 12.54235614 2.15104889 16.53070068 2.84521484 C20.5128115 3.53630757 24.4967139 4.21689808 28.48046875 4.8984375 C36.71851098 6.30976852 44.95415538 7.73468011 53.18881226 9.1656189 C55.13405502 9.50362343 57.07935556 9.84129538 59.0246582 10.17895508 C65.41791108 11.28871573 71.81077749 12.40066134 78.203125 13.515625 C77.71032426 18.81326347 77.20798782 24.07023057 76.23046875 29.3046875 C76.05322266 30.26503906 75.87597656 31.22539063 75.69335938 32.21484375 C75.51095703 33.18035156 75.32855469 34.14585938 75.140625 35.140625 C74.95435547 36.14480469 74.76808594 37.14898437 74.57617188 38.18359375 C74.12215267 40.62831255 73.66441956 43.07227048 73.203125 45.515625 C69.32611206 46.80796265 66.27221625 46.02136479 62.359375 45.30078125 C61.59387329 45.16619003 60.82837158 45.03159882 60.03967285 44.89292908 C57.59286701 44.46159553 55.14798342 44.0203518 52.703125 43.578125 C50.25800733 43.14113649 47.81254331 42.70624657 45.36657715 42.27403259 C43.84461147 42.00453703 42.32318318 41.73198493 40.80236816 41.45606995 C37.88997491 40.93603308 35.16859188 40.515625 32.203125 40.515625 C100.183125 108.495625 168.163125 176.475625 238.203125 246.515625 C233.45808528 252.05150467 228.67357561 257.32286544 223.578125 262.515625 C222.82789063 263.30324219 222.07765625 264.09085937 221.3046875 264.90234375 C220.57765625 265.64097656 219.850625 266.37960937 219.1015625 267.140625 C218.44849121 267.81351562 217.79541992 268.48640625 217.12255859 269.1796875 C215.203125 270.515625 215.203125 270.515625 213.31401992 270.30690914 C210.74907778 269.34542213 209.44351313 268.12870333 207.50937271 266.1910162 C206.78731242 265.47492906 206.06525214 264.75884191 205.32131124 264.02105516 C204.5353182 263.2263236 203.74932517 262.43159204 202.93951416 261.61277771 C202.09896823 260.77479505 201.25842229 259.93681239 200.39240527 259.07343632 C198.05861416 256.74373845 195.7317573 254.40748238 193.40754962 252.06824648 C190.90040522 249.54816528 188.38461627 247.03674056 185.86985779 244.52426147 C181.51333198 240.16930989 177.16233935 235.80889245 172.81504059 231.44473076 C166.52954782 225.1348728 160.23580254 218.83329998 153.94000229 212.53372849 C143.72609784 202.31325565 133.51891296 192.08609913 123.31591797 181.85473633 C113.40374016 171.91502795 103.48842118 161.97847048 93.56884766 152.04614258 C92.95756446 151.43407121 92.34628126 150.82199984 91.71647432 150.19138085 C88.64987387 147.12086533 85.58321141 144.05041173 82.51651812 140.97998893 C57.0690999 115.50146278 31.63257129 90.01208784 6.203125 64.515625 C6.38488281 65.61028076 6.56664062 66.70493652 6.75390625 67.83276367 C7.42884444 71.90420609 8.09850758 75.97650165 8.76660156 80.04907227 C9.05618372 81.8097253 9.34718528 83.5701455 9.63964844 85.33032227 C10.06040148 87.86414291 10.47599973 90.39876409 10.890625 92.93359375 C11.02186768 93.71711716 11.15311035 94.50064056 11.28833008 95.3079071 C11.90147892 99.08706398 12.36373104 102.671118 12.203125 106.515625 C8.18293856 107.33134757 4.16186728 108.14262475 0.140625 108.953125 C-0.99310547 109.18322266 -2.12683594 109.41332031 -3.29492188 109.65039062 C-4.95297852 109.98393555 -4.95297852 109.98393555 -6.64453125 110.32421875 C-7.65523682 110.52845459 -8.66594238 110.73269043 -9.70727539 110.94311523 C-13.05984294 111.56435355 -16.41892007 112.05423675 -19.796875 112.515625 C-29.58676919 60.15505798 -29.58676919 60.15505798 -32.98529053 40.60220337 C-33.23064953 39.19264013 -33.47801722 37.78342475 -33.7276001 36.37460327 C-38.26344988 10.70434561 -38.26344988 10.70434561 -33.796875 2.515625 C-24.50526857 -6.32273234 -11.49321471 -2.0186477 0 0 Z " fill="#FFCA54" transform="translate(106.796875,55.484375)"/>
<path d="M0 0 C3.92175855 1.96087927 5.94122867 3.70880463 8.984375 6.7890625 C9.67506073 7.48399307 9.67506073 7.48399307 10.37969971 8.19296265 C11.84125078 9.66565898 13.29567168 11.14517403 14.75 12.625 C15.74302611 13.62806322 16.73651089 14.63067257 17.73046875 15.6328125 C20.15897941 18.08330835 22.58114675 20.5399667 25 23 C23.63395898 26.05735288 22.08849555 28.1606509 19.72413445 30.52196121 C18.70449319 31.54757562 18.70449319 31.54757562 17.66425312 32.5939095 C16.91523483 33.33710211 16.16621654 34.08029471 15.39450073 34.8460083 C14.20362372 36.03944859 14.20362372 36.03944859 12.98868859 37.25699878 C10.31864561 39.93034441 7.64150139 42.59646412 4.96435547 45.26269531 C3.05176843 47.17360559 1.14069138 49.08602339 -0.77044678 50.99838257 C-4.89019041 55.11917516 -9.01358155 59.23628859 -13.13946915 63.35092926 C-19.10481079 69.30002031 -25.06462546 75.25462302 -31.02310346 81.21058759 C-40.69036837 90.87347471 -50.36209164 100.53188659 -60.03662109 110.1875 C-69.43479637 119.56731866 -78.83086983 128.94923455 -88.22412109 138.33398438 C-88.80307279 138.91241062 -89.38202448 139.49083687 -89.97852017 140.08679119 C-92.88292311 142.98858406 -95.78728474 145.89041827 -98.69162583 148.79227304 C-122.78801637 172.86792845 -146.89164305 196.9363273 -171 221 C-169.40345581 220.72736328 -169.40345581 220.72736328 -167.7746582 220.44921875 C-163.81506893 219.77417204 -159.85457918 219.10454299 -155.89379883 218.43652344 C-154.18163524 218.14697946 -152.46971735 217.85597865 -150.75805664 217.56347656 C-148.29376796 217.14262215 -145.82863516 216.7270628 -143.36328125 216.3125 C-142.60163162 216.18125732 -141.83998199 216.05001465 -141.05525208 215.91479492 C-137.33271296 215.29404648 -133.7764194 214.84332919 -130 215 C-127.89915105 220.5833373 -126.9128485 226.27460955 -125.875 232.125 C-125.69324219 233.11371094 -125.51148438 234.10242188 -125.32421875 235.12109375 C-124.59346008 239.18147465 -124 242.85827751 -124 247 C-134.84854251 248.93889583 -145.69715205 250.8774162 -156.54584694 252.81545925 C-161.58349469 253.71541173 -166.6211194 254.61549278 -171.65869141 255.51586914 C-176.52155591 256.38501473 -181.38448098 257.25382068 -186.24744797 258.12239265 C-188.10137461 258.45358281 -189.95527951 258.78489468 -191.80916214 259.1163311 C-194.40868711 259.58105158 -197.00828951 260.04533657 -199.60791016 260.50952148 C-200.37180054 260.64618729 -201.13569092 260.78285309 -201.92272949 260.92366028 C-208.50215427 262.09765406 -214.80466248 263.18322011 -221.5 263.3125 C-222.7684375 263.34988281 -224.036875 263.38726563 -225.34375 263.42578125 C-230.60956245 262.81256164 -234.63248993 260.07645956 -238 256 C-241.05471944 246.83584169 -237.24621582 234.47146628 -235.671875 225.171875 C-235.43828035 223.77067272 -235.20507426 222.36940562 -234.972229 220.96807861 C-234.48491069 218.04288344 -233.99371924 215.11837487 -233.49951172 212.19433594 C-232.88010142 208.52836028 -232.26920005 204.86103185 -231.66098785 201.1931839 C-228.76129196 183.72652821 -225.62317995 166.3341348 -222 149 C-216.70236153 149.49280074 -211.44539443 149.99513718 -206.2109375 150.97265625 C-205.25058594 151.14990234 -204.29023438 151.32714844 -203.30078125 151.50976562 C-202.33527344 151.69216797 -201.36976563 151.87457031 -200.375 152.0625 C-199.37082031 152.24876953 -198.36664063 152.43503906 -197.33203125 152.62695312 C-194.88733686 153.0809678 -192.4435675 153.53995883 -190 154 C-191.2803688 168.08405679 -193.74811325 182.03830218 -196 196 C-131.32 131.32 -66.64 66.64 0 0 Z " fill="#FFCA54" transform="translate(309,764)"/>
<path d="M0 0 C2.46807707 0.9340107 3.72360005 2.05653113 5.58478892 3.92308092 C6.60332813 4.93358546 6.60332813 4.93358546 7.6424439 5.96450424 C8.38038131 6.7118623 9.11831873 7.45922036 9.87861788 8.22922564 C11.06381614 9.41163733 11.06381614 9.41163733 12.2729578 10.61793613 C14.93022057 13.27259019 17.57659129 15.93784605 20.22319186 18.603127 C22.12134248 20.50375977 24.02008134 22.40378695 25.91958773 24.30306292 C30.01412427 28.3994382 34.10318064 32.50121882 38.18863451 36.60665178 C44.09721114 42.54401942 50.01451682 48.47262451 55.93409483 54.39902145 C65.53987867 64.01625341 75.13930851 73.63980105 84.73442233 83.26767778 C94.05219158 92.61722232 103.37168277 101.96504228 112.69438326 111.30966997 C113.26869171 111.88533199 113.84300016 112.46099401 114.43471189 113.05410033 C120.70108839 119.33510971 126.96816426 125.6154206 133.236076 131.89489794 C133.78652002 132.44636034 134.33696405 132.99782275 134.90408819 133.56599614 C137.10418177 135.77014115 139.30428295 137.97427856 141.50447397 140.17832631 C147.95343801 146.63862982 154.40019475 153.10111776 160.84303282 159.56753099 C164.88248256 163.62165948 168.92353045 167.67418981 172.96585144 171.7254554 C175.30055086 174.06548794 177.63408822 176.40666043 179.96599925 178.74947214 C182.48954082 181.28462439 185.01608724 183.81674303 187.5434128 186.34812212 C188.28581166 187.09548018 189.02821052 187.84283824 189.79310632 188.61284351 C190.46691697 189.28651321 191.14072761 189.96018291 191.83495677 190.65426683 C192.41831722 191.23963323 193.00167768 191.82499963 193.60271573 192.4281044 C195.05867252 193.89085731 195.05867252 193.89085731 197.0840317 194.78867388 C196.8667441 193.62819536 196.64945651 192.46771685 196.42558444 191.27207232 C195.62139187 186.96485612 194.82822899 182.65566984 194.0383774 178.34580278 C193.69502978 176.4809889 193.34869607 174.61672224 192.9993149 172.75302935 C192.49754411 170.0735876 192.00655637 167.39235938 191.51762545 164.71054888 C191.35934771 163.87811663 191.20106997 163.04568438 191.03799593 162.18802691 C190.82766474 161.0172661 190.82766474 161.0172661 190.61308444 159.82285357 C190.48650958 159.1389052 190.35993472 158.45495684 190.22952425 157.75028276 C190.06658579 155.5534587 190.44471455 153.88492408 191.0840317 151.78867388 C195.31171608 150.94769973 199.54139826 150.11723363 203.7715317 149.28867388 C204.96971529 149.05019732 206.16789889 148.81172075 207.40239108 148.56601763 C208.55932467 148.34043169 209.71625826 148.11484575 210.90825045 147.88242388 C211.97132418 147.67295122 213.03439791 147.46347857 214.129686 147.24765825 C216.84953346 146.8251053 219.34039264 146.75468103 222.0840317 146.78867388 C224.535164 156.81089467 226.42448168 166.87378573 228.1855942 177.03476763 C228.4700749 178.6609644 228.75486064 180.28710784 229.0399338 181.91320086 C229.78241572 186.15331864 230.52068094 190.39415975 231.25804293 194.63517046 C232.00984375 198.95438772 232.76593821 203.27285318 233.5215317 207.59140825 C234.62471565 213.90085551 235.72659983 220.21052688 236.82475436 226.52085161 C237.04442873 227.78291933 237.26410311 229.04498705 237.49043429 230.34529924 C240.68219088 248.86022779 240.68219088 248.86022779 236.4590317 256.08945513 C233.81747927 259.35387361 231.11436799 260.74755757 227.0840317 261.78867388 C216.90674194 261.91630998 206.53561868 259.45441583 196.5449692 257.69883013 C194.7701093 257.39074656 192.99517496 257.08309155 191.22017062 256.77584124 C187.51993636 256.13426883 183.8203072 255.48935464 180.12114108 254.84165239 C175.40382293 254.01569137 170.6855454 253.19538457 165.96686518 252.37724447 C161.43007935 251.59044706 156.89374323 250.80107216 152.3574692 250.01133013 C151.07935429 249.78906598 151.07935429 249.78906598 149.77541888 249.56231165 C141.19045598 248.06749145 132.61822621 246.55524458 124.0840317 244.78867388 C124.77365496 240.55214532 125.46751499 236.31633934 126.16533053 232.08115435 C126.402178 230.63993995 126.63786138 229.19853375 126.87236178 227.7569356 C127.20939692 225.68627151 127.5505961 223.61633061 127.89262545 221.54648638 C128.09686129 220.30012407 128.30109713 219.05376177 128.51152194 217.76963091 C129.0840317 214.78867388 129.0840317 214.78867388 130.0840317 212.78867388 C138.37559843 213.34404103 146.46640474 214.40340907 154.6465317 215.85117388 C156.75162471 216.21921494 158.85707857 216.58519976 160.96293795 216.94883013 C161.8763193 217.11004351 162.78970065 217.27125689 163.73076022 217.43735552 C166.18199281 217.86250039 166.18199281 217.86250039 169.0840317 217.78867388 C168.67315387 217.37969465 168.26227603 216.97071541 167.83894736 216.54934287 C143.50821016 192.3304021 119.19046629 168.09849365 94.88960594 143.84957476 C91.97428482 140.94050747 89.05885496 138.03154919 86.14335787 135.12265825 C85.27269551 134.25396322 85.27269551 134.25396322 84.38444401 133.36771879 C74.97545115 123.98050546 65.55766839 114.60215821 56.13662975 105.22703591 C46.47596722 95.6130672 36.82476029 85.98968287 27.18233651 76.35742116 C21.22813038 70.41008889 15.26659867 64.47029743 9.29559971 58.53982422 C5.20639657 54.47697217 1.12638245 50.405043 -2.94640917 46.32573989 C-5.29947591 43.96945827 -7.6576888 41.61900524 -10.02434385 39.2763257 C-12.58492863 36.74042645 -15.12984072 34.18979373 -17.67123258 31.63468218 C-18.42898939 30.89148957 -19.1867462 30.14829697 -19.96746534 29.38258338 C-20.64125303 28.69884044 -21.31504073 28.01509751 -22.00924623 27.31063509 C-22.5989519 26.72282802 -23.18865758 26.13502095 -23.79623312 25.52940154 C-24.9159683 23.78867388 -24.9159683 23.78867388 -24.74583179 21.7235806 C-23.42657139 18.6475978 -20.95559265 16.75115957 -18.4784683 14.60117388 C-17.38582424 13.63394749 -16.29337959 12.6664958 -15.20112455 11.69883013 C-14.65085599 11.21559282 -14.10058744 10.73235552 -13.53364408 10.23447466 C-12.00445881 8.86776244 -10.51910554 7.45246188 -9.03706205 6.03476763 C-8.17210111 5.21105669 -7.30714017 4.38734575 -6.4159683 3.53867388 C-5.6425308 2.79101763 -4.8690933 2.04336138 -4.0722183 1.27304888 C-1.9159683 -0.21132612 -1.9159683 -0.21132612 0 0 Z " fill="#FFCA54" transform="translate(805.915968298912,766.2113261222839)"/>
<path d="M0 0 C4.63047878 5.00592301 5.18870609 8.75478882 5.11719894 15.32254982 C4.94373709 19.28534559 4.35242646 23.11033193 3.65478516 27.01049805 C3.51169418 27.8492749 3.36860321 28.68805176 3.22117615 29.55224609 C2.75192699 32.2902094 2.27077235 35.02592267 1.7890625 37.76171875 C1.45692801 39.68111093 1.12542614 41.60061268 0.79452515 43.5202179 C0.10190559 47.52782421 -0.59626158 51.53440893 -1.29882812 55.5402832 C-2.19712901 60.66309496 -3.08466908 65.78769601 -3.96846581 70.91302776 C-4.65163525 74.87104328 -5.33888199 78.82834173 -6.02751541 82.78540993 C-6.35610128 84.67461757 -6.68380764 86.56397841 -7.01060104 88.45349693 C-7.46851475 91.09558957 -7.93151883 93.73673991 -8.39599609 96.37768555 C-8.59560188 97.53664085 -8.59560188 97.53664085 -8.79924011 98.7190094 C-9.60278573 103.25012695 -10.66184976 107.59610457 -12 112 C-16.07563135 111.30924728 -20.15072301 110.61540264 -24.2253418 109.91870117 C-25.61126487 109.68217506 -26.99733195 109.4464911 -28.38354492 109.21166992 C-30.3771682 108.87380399 -32.37023298 108.53264776 -34.36328125 108.19140625 C-35.56251221 107.98717041 -36.76174316 107.78293457 -37.99731445 107.57250977 C-41 107 -41 107 -44 106 C-43.81824219 104.83428467 -43.63648438 103.66856934 -43.44921875 102.4675293 C-42.77603588 98.14610503 -42.10582855 93.82422368 -41.43652344 89.50219727 C-41.14632121 87.63097719 -40.8553101 85.75988237 -40.56347656 83.88891602 C-40.1443597 81.20100841 -39.72814532 78.51266508 -39.3125 75.82421875 C-39.18125732 74.98662521 -39.05001465 74.14903168 -38.91479492 73.28605652 C-38.43392646 70.16131859 -38 67.16674811 -38 64 C-106.31 132.31 -174.62 200.62 -245 271 C-254.02576963 266.48711519 -263.55871594 256.17438327 -268 247 C-267.56448997 246.56486969 -267.12897994 246.12973938 -266.68027264 245.68142331 C-240.89116119 219.91467069 -215.10464586 194.14532268 -189.32151765 168.37258298 C-186.22844287 165.28075897 -183.13534633 162.18895674 -180.04223633 159.09716797 C-179.426432 158.48162595 -178.81062766 157.86608392 -178.17616259 157.23188911 C-168.19391359 147.25399612 -158.20990044 137.27787014 -148.22523875 127.30239154 C-137.98660506 117.07309631 -127.74985898 106.84191499 -117.51487726 96.60896575 C-111.1949522 90.29041553 -104.8735444 83.97335615 -98.55025565 77.65817212 C-94.21930735 73.33249363 -89.89018733 69.00499109 -85.56252439 64.67602576 C-83.06246577 62.17532414 -80.56158627 59.67545762 -78.05854034 57.17774582 C-75.34993761 54.47487343 -72.64517805 51.76817662 -69.94081116 49.06106567 C-69.14218865 48.26535601 -68.34356614 47.46964634 -67.52074295 46.64982426 C-66.80117242 45.92826268 -66.08160188 45.20670109 -65.34022617 44.463274 C-64.71482679 43.83825434 -64.08942741 43.21323467 -63.44507653 42.56927502 C-61.90655391 41.04386182 -61.90655391 41.04386182 -61 39 C-62.1960083 39.21205078 -63.3920166 39.42410156 -64.62426758 39.64257812 C-69.05740781 40.4278729 -73.49113521 41.20980745 -77.92504883 41.99072266 C-79.84480745 42.32932217 -81.76440513 42.66883548 -83.68383789 43.00927734 C-86.44115166 43.49816782 -89.19902553 43.98378032 -91.95703125 44.46875 C-92.81649857 44.62186646 -93.67596588 44.77498291 -94.56147766 44.93273926 C-95.36208115 45.07288452 -96.16268463 45.21302979 -96.98754883 45.35742188 C-97.6914827 45.48177612 -98.39541656 45.60613037 -99.12068176 45.73425293 C-101 46 -101 46 -104 46 C-104.81572257 41.97981356 -105.62699975 37.95874228 -106.4375 33.9375 C-106.66759766 32.80376953 -106.89769531 31.67003906 -107.13476562 30.50195312 C-107.35712891 29.39658203 -107.57949219 28.29121094 -107.80859375 27.15234375 C-108.01282959 26.14163818 -108.21706543 25.13093262 -108.42749023 24.08959961 C-109.04872855 20.73703206 -109.53861175 17.37795493 -110 14 C-91.70312677 10.23083473 -73.34722189 6.85278871 -54.95056152 3.61578369 C-52.14368414 3.12111757 -49.33734289 2.62344652 -46.53100395 2.12573624 C-43.79616364 1.6409023 -41.06110221 1.15732608 -38.32596207 0.67418671 C-36.41880652 0.33724466 -34.51175469 -0.00028431 -32.60470581 -0.33782959 C-7.00860325 -4.83927367 -7.00860325 -4.83927367 0 0 Z " fill="#FFCA54" transform="translate(1040,56)"/>
<path d="M0 0 C4.54364629 4.2361815 8.11850866 8.97303671 11.75 14 C12.33910156 14.7940625 12.92820312 15.588125 13.53515625 16.40625 C14.37626953 17.56640625 14.37626953 17.56640625 15.234375 18.75 C15.74194336 19.44609375 16.24951172 20.1421875 16.77246094 20.859375 C18.13851176 23.24154159 18.60427421 25.29725194 19 28 C16.50096719 29.77221015 14.00077664 31.54275318 11.5 33.3125 C10.82324219 33.79267578 10.14648438 34.27285156 9.44921875 34.76757812 C1.68526842 40.25829975 -6.16118529 45.61081489 -14 51 C30.88 51.33 75.76 51.66 122 52 C122 75 122 75 121 86 C76.45 86.33 31.9 86.66 -14 87 C0.64325909 97.58652443 0.64325909 97.58652443 15.47265625 107.87890625 C18 110 18 110 18.82080078 111.87524414 C19.06675936 114.79156231 18.14119768 115.80243183 16.39453125 118.1171875 C15.82283203 118.88933594 15.25113281 119.66148437 14.66210938 120.45703125 C14.05173828 121.25496094 13.44136719 122.05289063 12.8125 122.875 C11.63065485 124.45508959 10.44964711 126.03580594 9.26953125 127.6171875 C8.7070166 128.36452148 8.14450195 129.11185547 7.56494141 129.88183594 C5.60919019 132.52896504 3.78932454 135.238313 2 138 C-1.52451404 137.36766665 -3.80942088 135.94974804 -6.71875 133.89453125 C-7.64067139 133.24790527 -8.56259277 132.6012793 -9.51245117 131.93505859 C-10.99128784 130.88439209 -10.99128784 130.88439209 -12.5 129.8125 C-13.52520752 129.09143066 -14.55041504 128.37036133 -15.60668945 127.62744141 C-17.72205172 126.13925833 -19.83573179 124.64868133 -21.94775391 123.15576172 C-25.53955131 120.61892192 -29.14244156 118.0982842 -32.74731445 115.58007812 C-35.1952231 113.86960349 -37.64080737 112.15584987 -40.0859375 110.44140625 C-43.44150696 108.08955354 -46.80129267 105.74388882 -50.1640625 103.40234375 C-55.11988196 99.9497334 -60.064576 96.48169848 -65 93 C-66.1142334 92.21568604 -66.1142334 92.21568604 -67.25097656 91.41552734 C-69.3200978 89.95313037 -71.38023836 88.4790182 -73.4375 87 C-74.03409424 86.57952393 -74.63068848 86.15904785 -75.24536133 85.72583008 C-79.65864728 82.52133134 -83.53163046 78.93673908 -86 74 C-86.23828125 72.08203125 -86.23828125 72.08203125 -86.3125 69.8125 C-86.34988281 69.07644531 -86.38726562 68.34039063 -86.42578125 67.58203125 C-85.3389214 60.99107382 -81.43871822 57.06910732 -76.25 53.25 C-75.68418213 52.83008789 -75.11836426 52.41017578 -74.53540039 51.97753906 C-68.90245072 47.83604693 -63.12557017 43.89436144 -57.34375 39.96484375 C-52.67785643 36.79062868 -48.056429 33.55453223 -43.4375 30.3125 C-34.98624985 24.38531694 -26.51762811 18.48351653 -18.04077148 12.59301758 C-12.01860235 8.40753749 -6.00534329 4.20958808 0 0 Z " fill="#FFCA54" transform="translate(151,471)"/>
<path d="M0 0 C8.41468528 5.52803316 13.82839301 15.92506753 19.36523438 24.10302734 C23.1892732 29.74578957 27.1121283 35.30265424 31.125 40.8125 C36.55008603 48.2718923 41.82268944 55.82141321 47.01416016 63.44482422 C49.30230343 66.80222144 51.5990582 70.15371536 53.89453125 73.50610352 C56.43123931 77.21134144 58.96575974 80.91807392 61.5 84.625 C57.17709977 89.34734686 52.22178141 92.79311847 46.9375 96.375 C46.08736328 96.96410156 45.23722656 97.55320312 44.36132812 98.16015625 C43.12866211 99.00126953 43.12866211 99.00126953 41.87109375 99.859375 C41.12786865 100.36694336 40.38464355 100.87451172 39.61889648 101.39746094 C37.55289196 102.59435813 35.83339681 103.18293133 33.5 103.625 C32.84515625 102.66722656 32.1903125 101.70945312 31.515625 100.72265625 C30.59381196 99.37756171 29.67193323 98.03251217 28.75 96.6875 C28.11384766 95.75647461 28.11384766 95.75647461 27.46484375 94.80664062 C21.89358561 86.68515869 16.18139227 78.67363904 10.5 70.625 C10.17 114.845 9.84 159.065 9.5 204.625 C-1.72 204.625 -12.94 204.625 -24.5 204.625 C-24.83 160.075 -25.16 115.525 -25.5 69.625 C-32.43 79.525 -32.43 79.525 -39.5 89.625 C-42.82683803 94.29673 -46.15343043 98.96756216 -49.5 103.625 C-55.19469569 101.5412203 -59.75078906 98.21027848 -64.6875 94.75 C-65.60208984 94.12480469 -66.51667969 93.49960938 -67.45898438 92.85546875 C-68.33232422 92.24574219 -69.20566406 91.63601562 -70.10546875 91.0078125 C-70.90106201 90.45496582 -71.69665527 89.90211914 -72.51635742 89.33251953 C-74.58167338 87.55469555 -75.48478634 86.12835081 -76.5 83.625 C-75.52083333 82.21744792 -74.54166667 80.80989583 -73.5625 79.40234375 C-72.92296387 78.48300049 -72.28342773 77.56365723 -71.62451172 76.61645508 C-70.18867734 74.55246379 -68.75280393 72.48849965 -67.31689453 70.42456055 C-63.66609941 65.17688971 -60.01581432 59.92886634 -56.3671875 54.6796875 C-53.05889478 49.92041746 -49.74826512 45.16278068 -46.43603516 40.40625 C-45.15113319 38.5603984 -43.86694677 36.7140485 -42.58349609 34.8671875 C-38.57776004 29.10407618 -34.55671783 23.35236228 -30.5 17.625 C-30.05011719 16.98900879 -29.60023438 16.35301758 -29.13671875 15.69775391 C-21.78474748 5.37255896 -13.97504324 -5.49019556 0 0 Z " fill="#FFCA54" transform="translate(565.5,49.375)"/>
<path d="M0 0 C10.89 0 21.78 0 33 0 C33 44.88 33 89.76 33 136 C33.66 136 34.32 136 35 136 C35.32291016 134.99453125 35.32291016 134.99453125 35.65234375 133.96875 C37.43833712 130.03438779 39.9218639 126.90030476 42.5625 123.5 C47.35971689 117.24761042 51.85779747 110.88300723 56.16015625 104.28125 C56.76730469 103.5284375 57.37445312 102.775625 58 102 C61.52701715 102 62.40029258 102.71767293 65.23828125 104.703125 C66.46901367 105.55583984 66.46901367 105.55583984 67.72460938 106.42578125 C69.00561523 107.32876953 69.00561523 107.32876953 70.3125 108.25 C71.9959396 109.42209643 73.67952998 110.59397634 75.36328125 111.765625 C76.15814941 112.32185547 76.95301758 112.87808594 77.77197266 113.45117188 C80.48965946 115.34039005 83.23646929 117.17868449 86 119 C84.4854415 123.54367549 81.92939078 127.0437218 79.0625 130.8125 C75.16193746 136.03443829 71.358472 141.301552 67.6875 146.6875 C62.91509311 153.68248249 58.07266832 160.62570073 53.20532227 167.55493164 C49.9393973 172.21021064 46.70602714 176.88477378 43.51049805 181.58862305 C28.04602543 204.31799152 28.04602543 204.31799152 20 207 C14.71777793 207.39865827 11.43036789 206.95357859 7 204 C1.88750167 198.81671084 -2.23483346 192.98270182 -6.25 186.9375 C-10.2660342 180.97600013 -14.33661038 175.08148809 -18.625 169.3125 C-22.75719459 163.74195382 -26.73663381 158.08581881 -30.64697266 152.35766602 C-34.55953252 146.62801369 -38.52137986 140.93396333 -42.5 135.25 C-43.09981689 134.39188721 -43.69963379 133.53377441 -44.31762695 132.6496582 C-44.88312256 131.84230225 -45.44861816 131.03494629 -46.03125 130.203125 C-46.53205078 129.48801758 -47.03285156 128.77291016 -47.54882812 128.03613281 C-48.98461187 125.95281258 -48.98461187 125.95281258 -50.74804688 123.98730469 C-52 122 -52 122 -51.89697266 119.91381836 C-50.80834442 117.59107563 -49.78330838 116.78284302 -47.6484375 115.37890625 C-46.96136719 114.91806641 -46.27429688 114.45722656 -45.56640625 113.98242188 C-44.84324219 113.51384766 -44.12007813 113.04527344 -43.375 112.5625 C-41.96575234 111.62689451 -40.55689522 110.69070049 -39.1484375 109.75390625 C-38.10768066 109.07545654 -38.10768066 109.07545654 -37.04589844 108.38330078 C-35.0388287 107.02625339 -33.14296118 105.5708833 -31.2265625 104.08984375 C-28 102 -28 102 -25.97851562 102.14794922 C-23.5054926 103.21296037 -22.65214152 104.3416135 -21.1171875 106.54296875 C-20.58867188 107.28869141 -20.06015625 108.03441406 -19.515625 108.80273438 C-18.97421875 109.58970703 -18.4328125 110.37667969 -17.875 111.1875 C-17.35679687 111.92419922 -16.83859375 112.66089844 -16.3046875 113.41992188 C-14.53057547 115.94248742 -12.76564058 118.47149772 -11 121 C-7.7 125.62 -4.4 130.24 -1 135 C-0.67 90.45 -0.34 45.9 0 0 Z " fill="#FFCA54" transform="translate(541,826)"/>
<path d="M0 0 C6.48905329 3.30144817 12.19037983 7.23962399 18.00732422 11.57421875 C22.50385032 14.91923595 27.05743799 18.15511141 31.6875 21.3125 C40.35005711 27.22597102 48.94270809 33.23624586 57.52490234 39.265625 C59.93520323 40.95459496 62.3515197 42.63459367 64.76953125 44.3125 C84.76427882 58.22701103 84.76427882 58.22701103 87 64 C87.3359375 66.5859375 87.3359375 66.5859375 87.375 69.375 C87.40335938 70.29023437 87.43171875 71.20546875 87.4609375 72.1484375 C86.647474 77.18088117 84.04882116 80.1385721 80.1796875 83.31640625 C78.54386719 84.42822266 78.54386719 84.42822266 76.875 85.5625 C75.61520006 86.43129871 74.3561205 87.30114265 73.09765625 88.171875 C72.43137207 88.62884766 71.76508789 89.08582031 71.07861328 89.55664062 C68.20305864 91.5533847 65.37829271 93.61687421 62.55029297 95.68017578 C54.74096481 101.37657204 46.82632748 106.89769182 38.83203125 112.33081055 C33.55690478 115.91992042 28.34315541 119.58148275 23.16650391 123.31079102 C16.19167216 128.32324387 9.09192153 133.15538867 2 138 C-1.58758414 136.54508429 -3.19025895 134.76073927 -5.3828125 131.60546875 C-5.99253906 130.73212891 -6.60226562 129.85878906 -7.23046875 128.95898438 C-7.85566406 128.04439453 -8.48085938 127.12980469 -9.125 126.1875 C-9.75792969 125.28451172 -10.39085937 124.38152344 -11.04296875 123.45117188 C-13.85999156 119.3811421 -16.29098443 115.67051466 -18 111 C-15.3358153 109.05907075 -12.66813643 107.12299241 -10 105.1875 C-9.27554688 104.65962891 -8.55109375 104.13175781 -7.8046875 103.58789062 C0.03564948 97.90696849 8.01179139 92.49189342 16 87 C-50.825 86.505 -50.825 86.505 -119 86 C-119 75.11 -119 64.22 -119 53 C-52.175 52.505 -52.175 52.505 16 52 C7.21398927 45.55692546 -1.53279547 39.14412768 -10.51367188 32.9921875 C-11.55297852 32.26902344 -11.55297852 32.26902344 -12.61328125 31.53125 C-13.52267456 30.90573242 -13.52267456 30.90573242 -14.45043945 30.26757812 C-16 29 -16 29 -18 26 C-12.21235589 17.1730344 -6.17708274 8.55677855 0 0 Z " fill="#FFCA54" transform="translate(963,471)"/>
</svg>
