<?xml version="1.0" encoding="UTF-8"?>
<svg version="1.1" xmlns="http://www.w3.org/2000/svg" width="1080" height="1081">
<path d="M0 0 C0.83096191 0.24169922 1.66192383 0.48339844 2.51806641 0.73242188 C15.37626042 4.58127492 27.26707254 10.3394186 39.27845764 16.24671936 C77.90057813 35.23962774 117.61629428 51.86951377 159.375 62.625 C160.80017944 62.99709595 160.80017944 62.99709595 162.25415039 63.37670898 C169.06682612 65.04377756 176.22349604 66.6460908 182.75 63.375 C185.24987328 61.76346438 186.40117444 60.49040003 188.3125 58.0625 C194.96921516 49.61359229 206.95753894 48.23896811 217 47 C221.98452677 46.6098436 226.96760157 46.60553233 231.96435547 46.66381836 C234.13156153 46.68757192 236.29753851 46.68432267 238.46484375 46.67773438 C253.66940571 46.70678089 268.649818 47.39915296 280.40234375 58.20703125 C288.72780928 67.55027985 290.30405994 77.38322451 290.26069641 89.44869995 C290.26452196 90.58370725 290.26834751 91.71871454 290.27228898 92.888116 C290.28258706 96.68180578 290.27863283 100.4753433 290.2746582 104.26904297 C290.27791389 106.99288367 290.28412571 109.71671596 290.29014587 112.44055176 C290.30287569 119.06562216 290.30468871 125.69065201 290.30234561 132.31573258 C290.30056036 137.70256985 290.30231654 143.08939483 290.30657005 148.47623062 C290.30716524 149.2438099 290.30776043 150.01138917 290.30837366 150.80222843 C290.30958545 152.36172485 290.31079958 153.92122126 290.31201603 155.48071767 C290.32288497 170.09592629 290.32073215 184.71111182 290.31463119 199.32632174 C290.30946269 212.68539679 290.32071684 226.04439891 290.33972941 239.40345953 C290.35911945 253.13341866 290.36736175 266.8633433 290.36360615 280.5933162 C290.36169587 288.29648688 290.36416482 295.99959549 290.37832069 303.70275497 C290.39025035 310.26063419 290.39162167 316.81841313 290.37953053 323.37629376 C290.37365282 326.71938525 290.37414727 330.06214365 290.38453293 333.40524673 C290.39499794 337.03611125 290.38690093 340.66648572 290.3742218 344.29733276 C290.38159609 345.34443102 290.38897037 346.39152927 290.39656812 347.47035778 C290.31079196 359.17484913 287.2938751 367.50695164 279.1484375 375.91015625 C272.22544578 382.40563255 264.28616168 386.07480033 254.76342773 386.17700195 C253.71811386 386.18983719 252.67279999 386.20267242 251.59580994 386.21589661 C249.90676292 386.22697701 249.90676292 386.22697701 248.18359375 386.23828125 C247.01675552 386.246353 245.8499173 386.25442474 244.64772034 386.26274109 C242.17556234 386.27657173 239.70338533 386.28729844 237.23120117 386.29516602 C233.47602383 386.31232398 229.72173959 386.35621483 225.96679688 386.40039062 C223.55990228 386.41052296 221.15300022 386.41903736 218.74609375 386.42578125 C217.63423203 386.44328934 216.5223703 386.46079742 215.3768158 386.47883606 C205.27826213 386.45115704 196.62361076 384.15910601 189 377.375 C188.113125 376.59898437 187.22625 375.82296875 186.3125 375.0234375 C185.1678125 374.02183594 185.1678125 374.02183594 184 373 C179.38150156 369.92100104 175.43521132 370.40507251 170 371 C166.57976133 371.73925717 163.19935898 372.62189167 159.8125 373.5 C148.63202685 376.34792185 136.34220695 378.77421356 125.42578125 373.58203125 C114.49656422 366.45428101 105.79608934 355.72878179 97.6875 345.6875 C93.274613 340.23128595 88.55528972 335.11384549 83.7734375 329.984375 C79.48018201 325.37851774 75.37670578 320.6189993 71.296875 315.82421875 C70.28156606 314.63254314 69.26593033 313.4411459 68.25 312.25 C67.73526123 311.64639648 67.22052246 311.04279297 66.69018555 310.42089844 C63.30910646 306.47534169 59.84905793 302.61889068 56.3125 298.8125 C52.94416553 295.18716792 49.7207798 291.48767607 46.625 287.625 C42.57333783 282.58583594 38.22645384 277.89534229 33.79736328 273.19189453 C30.55451548 269.72938522 27.46570521 266.20713152 24.5 262.5 C19.93958074 256.80368295 14.98265337 251.52680934 9.99609375 246.20703125 C5.61883286 241.5360668 1.4485711 236.70252459 -2.69921875 231.828125 C-8.53018213 224.98481521 -14.45408334 218.26016783 -20.5546875 211.65625 C-24.71504527 207.13701153 -28.72685535 202.49821391 -32.70703125 197.8203125 C-38.5344906 190.97880293 -44.45656731 184.25747892 -50.5546875 177.65625 C-54.71504527 173.13701153 -58.72685535 168.49821391 -62.70703125 163.8203125 C-68.52341465 156.99180623 -74.43210717 150.2834338 -80.51953125 143.6953125 C-84.88687292 138.94969715 -89.17231521 134.19471508 -93 129 C-97.4084355 129.90880117 -100.56757014 132.25079806 -104.1875 134.8125 C-104.89165039 135.30314941 -105.59580078 135.79379883 -106.32128906 136.29931641 C-109.93890025 138.82555884 -113.53646221 141.3795462 -117.12890625 143.94140625 C-147.17974797 165.35575755 -175.30502824 182.87833649 -213.75073242 177.17724609 C-231.72260942 174.0913957 -250.72688295 166.74671774 -262.375 152.0625 C-268.60674089 143.09444229 -270.97810419 133.85695656 -270 123 C-266.43259162 106.13002665 -254.3941722 97.27037539 -241.02734375 87.859375 C-236.55319508 84.70062827 -232.15199166 81.44569877 -227.75 78.1875 C-221.52700549 73.58675774 -215.28146675 69.02058525 -209 64.5 C-202.80341727 60.03984469 -196.64023905 55.53740312 -190.5 51 C-182.12062325 44.80974505 -173.68892429 38.69525542 -165.23388672 32.60888672 C-162.23709941 30.45054482 -159.24327636 28.28811377 -156.24975586 26.12524414 C-154.75740558 25.0471567 -153.26473295 23.96951533 -151.77172852 22.89233398 C-147.8914951 20.09237113 -144.01634851 17.285716 -140.1484375 14.46875 C-139.34921875 13.88802734 -138.55 13.30730469 -137.7265625 12.70898438 C-136.21197766 11.60826865 -134.69883974 10.50555781 -133.1875 9.40039062 C-125.85217233 4.07614257 -118.99774732 -0.41898887 -110.3125 -3.1875 C-109.13457886 -3.56974731 -109.13457886 -3.56974731 -107.93286133 -3.9597168 C-101.35388301 -6.02432835 -94.86729978 -7.31770054 -88 -8 C-87.07316406 -8.10957031 -86.14632812 -8.21914063 -85.19140625 -8.33203125 C-56.40957489 -11.19874752 -27.67837333 -8.13925593 0 0 Z M210 85 C209.55461433 87.22085801 209.55461433 87.22085801 209.61968327 89.62241459 C209.61124332 90.55162851 209.60280338 91.48084244 209.59410769 92.43821436 C209.60011773 93.45561794 209.60612778 94.47302151 209.61231995 95.52125549 C209.60693441 96.60469787 209.60154887 97.68814025 209.59600013 98.80441421 C209.58165342 102.4472792 209.58884094 106.08978426 209.59594727 109.73266602 C209.5902473 112.3391957 209.5832845 114.94572288 209.57514954 117.55224609 C209.55794225 123.9041504 209.55712535 130.25595587 209.56236244 136.60787744 C209.5664011 141.76890358 209.56496422 146.92990048 209.55961418 152.09092522 C209.55886576 152.82498782 209.55811734 153.55905042 209.55734624 154.31535734 C209.55581479 155.80649902 209.55427645 157.29764069 209.55273127 158.78878235 C209.53899973 172.7757049 209.54444893 186.76257154 209.55591648 200.74949282 C209.56585385 213.55422302 209.55290069 226.35880883 209.52898229 239.16351677 C209.50462002 252.30458716 209.49497606 265.44559021 209.50163502 278.58668274 C209.5051331 285.96721499 209.5028563 293.3476361 209.48538399 300.72815132 C209.46916663 307.66468658 209.47379868 314.60094063 209.49268913 321.53746796 C209.49639263 324.08888888 209.49321579 326.64033004 209.48280334 329.19173241 C209.46971261 332.6633892 209.48103542 336.13411262 209.49879456 339.60572815 C209.48918955 340.62536244 209.47958454 341.64499674 209.46968848 342.69552904 C209.47950277 343.62213522 209.48931706 344.5487414 209.49942875 345.50342655 C209.49953609 346.3051262 209.49964342 347.10682585 209.49975401 347.93281943 C209.84547452 350.15781808 209.84547452 350.15781808 211.78885406 351.75776619 C215.22141021 353.6861949 218.72958724 353.40751647 222.5625 353.36328125 C223.39080322 353.36377975 224.21910645 353.36427826 225.07250977 353.36479187 C226.82082523 353.36245516 228.5691443 353.35275033 230.31738281 353.33618164 C232.99054101 353.3125835 235.66270154 353.31562435 238.3359375 353.32226562 C240.03646427 353.31668865 241.73698684 353.30957865 243.4375 353.30078125 C244.23551025 353.30169266 245.03352051 353.30260406 245.85571289 353.30354309 C251.27332814 353.30979164 251.27332814 353.30979164 256 351 C256.94127002 348.17618994 257.12684886 346.45732261 257.13142776 343.53466129 C257.13718948 342.15520221 257.13718948 342.15520221 257.1430676 340.74787527 C257.14220112 339.73602287 257.14133463 338.72417048 257.14044189 337.68165588 C257.14341302 336.6079406 257.14638414 335.53422532 257.1494453 334.42797321 C257.15815173 330.81208177 257.15964217 327.19622337 257.16113281 323.58032227 C257.16575953 320.99526905 257.17078399 318.41021652 257.17617798 315.82516479 C257.18976253 308.79017599 257.19578593 301.75519289 257.20018864 294.72019315 C257.20295031 290.32921239 257.20718747 285.93823383 257.21169281 281.54725456 C257.2238846 269.39418075 257.23418477 257.2411087 257.2375679 245.08802891 C257.23778747 244.31015876 257.23800703 243.53228861 257.23823325 242.73084664 C257.23845153 241.95110146 257.23866981 241.17135627 257.2388947 240.36798245 C257.23933817 238.78788348 257.23978473 237.20778451 257.24023438 235.62768555 C257.24056652 234.45200664 257.24056652 234.45200664 257.24090537 233.25257664 C257.24485547 220.54548541 257.26231632 207.83845145 257.2855939 195.13138235 C257.30928982 182.09092267 257.32176891 169.05049175 257.32293582 156.01001018 C257.32385346 148.68589244 257.32962832 141.36184936 257.34775543 134.03775215 C257.36473707 127.15216838 257.36642226 120.26672876 257.35761642 113.38113022 C257.35684273 110.84947645 257.36123219 108.31781525 257.37107468 105.7861805 C257.38369392 102.33905783 257.37797193 98.89244608 257.36749268 95.44532776 C257.37554908 94.43570608 257.38360548 93.42608441 257.39190602 92.38586813 C257.38531618 91.463621 257.37872633 90.54137386 257.3719368 89.59117985 C257.37283243 88.39750013 257.37283243 88.39750013 257.37374616 87.17970568 C256.9028456 84.43339081 255.86499753 83.03973973 254 81 C252.0825398 80.40043764 252.0825398 80.40043764 249.94335938 80.48242188 C249.13241821 80.46981323 248.32147705 80.45720459 247.48596191 80.44421387 C246.17806702 80.45635925 246.17806702 80.45635925 244.84375 80.46875 C243.94507202 80.4649231 243.04639404 80.46109619 242.1204834 80.45715332 C240.22077311 80.45443179 238.3210255 80.46180986 236.42138672 80.47851562 C233.51054486 80.49992245 230.60217118 80.4787228 227.69140625 80.453125 C225.84634871 80.45576823 224.00129271 80.46089312 222.15625 80.46875 C221.28432007 80.46065308 220.41239014 80.45255615 219.51403809 80.44421387 C218.29762634 80.46312683 218.29762634 80.46312683 217.05664062 80.48242188 C216.34399048 80.48560425 215.63134033 80.48878662 214.89709473 80.49206543 C212.1519558 81.22705823 211.47906156 82.62420444 210 85 Z " fill="#FFCA54" transform="translate(638,331)"/>
<path d="M0 0 C2.1806258 0.01066084 4.36041561 0.00007397 6.54101562 -0.01269531 C39.04456457 -0.0460994 39.04456457 -0.0460994 49.69726562 9.88574219 C56.24634949 17.01696684 59.37731456 24.05088899 62.44726562 33.26074219 C89.50726563 33.26074219 116.56726563 33.26074219 144.44726562 33.26074219 C142.19660079 38.88740428 142.19660079 38.88740428 140.09179688 41.71386719 C139.63748291 42.32907227 139.18316895 42.94427734 138.71508789 43.578125 C137.99470337 44.53477051 137.99470337 44.53477051 137.25976562 45.51074219 C136.76726318 46.17170898 136.27476074 46.83267578 135.76733398 47.51367188 C134.3329614 49.43367968 132.89053873 51.34742174 131.44726562 53.26074219 C130.74085938 54.20949219 130.03445313 55.15824219 129.30664062 56.13574219 C125.46385459 61.21490285 122.84278493 64.66186236 116.44726562 66.26074219 C98.62726563 66.26074219 80.80726563 66.26074219 62.44726562 66.26074219 C62.77726562 134.57074219 63.10726562 202.88074219 63.44726562 273.26074219 C68.72726562 273.26074219 74.00726563 273.26074219 79.44726562 273.26074219 C88.03057384 276.7087378 94.6575027 280.80509046 101.61523438 286.81542969 C104.75532161 289.52673259 107.98809403 292.08655724 111.25976562 294.63574219 C112.45909077 295.57440834 113.65830894 296.5132112 114.85742188 297.45214844 C115.45441895 297.9189502 116.05141602 298.38575195 116.66650391 298.86669922 C118.3859649 300.21275382 120.10274486 301.56213343 121.81835938 302.91308594 C129.11578771 308.65910918 136.43954457 314.37045952 143.77441406 320.06860352 C148.90286077 324.05442881 154.01599141 328.05901459 159.11914062 332.07714844 C163.88101196 335.82329951 168.6625855 339.5437843 173.44726562 343.26074219 C179.35234158 347.84807468 185.24419346 352.45131387 191.11914062 357.07714844 C195.88101196 360.82329951 200.6625855 364.5437843 205.44726562 368.26074219 C210.79214335 372.41288713 216.12956662 376.57384058 221.44726562 380.76074219 C228.3157168 386.16692331 235.20857186 391.54131659 242.11914062 396.89355469 C244.77242149 398.95037057 247.40929129 401.0240632 250.02539062 403.12792969 C262.20720765 413.23256845 262.20720765 413.23256845 276.88476562 417.94824219 C282.38175543 416.88741959 285.23679221 414.73293959 288.75976562 410.44824219 C290.72225647 406.74131503 291.51987061 404.47183107 291.44726562 400.26074219 C288.54688356 393.86188152 283.60608016 389.01990285 278.63476562 384.19824219 C277.96123047 383.52986328 277.28769531 382.86148437 276.59375 382.17285156 C273.43849457 379.06590627 270.2326123 376.07162445 266.87329102 373.18676758 C261.5350118 368.53329118 256.54049871 363.53797027 251.52539062 358.54199219 C251.01918938 358.03861832 250.51298813 357.53524445 249.99144745 357.01661682 C247.31925528 354.35929543 244.64985707 351.69920638 241.98291016 349.03662109 C239.24393162 346.30314968 236.49577465 343.57910262 233.74541092 340.85709381 C231.61442887 338.74479658 229.49024376 336.62576146 227.36782074 334.50486755 C226.35769151 333.49774557 225.34508491 332.49310151 224.32987213 331.49110413 C212.23795982 319.54560703 212.23795982 319.54560703 210.91601562 312.38183594 C210.98413044 306.53247616 211.29419455 302.74168729 215.44726562 298.26074219 C219.74253593 294.64881034 223.82967496 293.03731529 229.44726562 293.26074219 C237.22742041 295.01755133 241.86047302 299.78107097 247.44726562 305.26074219 C248.383125 306.16953125 249.31898438 307.07832031 250.28320312 308.01464844 C254.22099212 311.88110792 258.06220848 315.7881444 261.66259766 319.97331238 C265.21338562 324.04219903 268.93063298 327.90503265 272.74023438 331.73071289 C273.43226959 332.42931931 274.12430481 333.12792572 274.83731079 333.84770203 C277.10026582 336.13017313 279.36705086 338.40878173 281.63476562 340.68652344 C282.41395355 341.46978689 283.19314148 342.25305035 283.99594116 343.06004906 C288.11185051 347.19671515 292.23095381 351.33017111 296.35253906 355.46118164 C300.60110012 359.72085391 304.83784563 363.99208361 309.0721283 368.26594257 C312.34090153 371.56085206 315.6185214 374.84685264 318.89859009 378.13051414 C320.46481159 379.70160029 322.02765885 381.27605792 323.58700562 382.85396767 C325.76677994 385.05809358 327.95884882 387.24924502 330.15429688 389.43774414 C330.7913858 390.08764313 331.42847473 390.73754211 332.08486938 391.40713501 C336.88501228 396.15221445 341.06063989 398.89788943 347.94726562 399.63574219 C353.23087164 399.06964154 357.01794419 397.72869393 360.75976562 393.88574219 C363.71887571 389.28268205 365.10350323 385.95847108 364.15429688 380.34667969 C362.71836495 376.11028384 359.57169219 373.34895851 356.44726562 370.26074219 C355.41032594 369.22346274 354.37390613 368.18566344 353.33789062 367.14746094 C351.63381777 365.44313978 349.92758561 363.7412646 348.21459961 362.04589844 C344.70346673 358.5626116 341.38623789 354.99030007 338.18554688 351.21777344 C335.30394844 347.97354689 332.18003019 344.97422347 329.07226562 341.94824219 C326.35994541 339.17134292 323.82727116 336.28493349 321.28564453 333.35302734 C318.31705436 329.97443268 315.22422576 326.71597143 312.13476562 323.44824219 C310.82053928 322.04890094 309.50673861 320.64915979 308.19335938 319.24902344 C306.40961816 317.34862691 304.6252396 315.44895384 302.83447266 313.55517578 C301.44893729 312.0881114 300.07275881 310.61222606 298.69726562 309.13574219 C297.93929688 308.32878906 297.18132812 307.52183594 296.40039062 306.69042969 C292.44506548 301.7700052 290.9159614 297.64229717 291.16601562 291.43261719 C291.79314422 286.58979083 293.89798637 283.54783759 297.50976562 280.44824219 C301.12693078 277.75460856 302.77442299 277.09115751 307.19726562 277.01074219 C308.03773438 276.98496094 308.87820313 276.95917969 309.74414062 276.93261719 C316.4056067 277.74123446 320.45144869 281.84101802 324.88476562 286.44824219 C325.45533691 287.02977051 326.0259082 287.61129883 326.61376953 288.21044922 C330.17586685 291.86599192 333.60351662 295.61219041 336.90820312 299.50292969 C339.05260656 301.95212143 341.37587783 304.19955775 343.69726562 306.47949219 C346.15361411 308.97970404 348.4103593 311.63754735 350.69726562 314.29199219 C352.38524848 316.1909729 354.13496296 317.98080207 355.94726562 319.76074219 C359.04083206 322.79906636 361.86832069 326.00839539 364.69726562 329.29199219 C366.89744373 331.76719256 369.24157611 334.06835972 371.60449219 336.38671875 C373.3773471 338.18963798 375.03407111 340.04646261 376.68164062 341.96386719 C380.41096774 346.25298759 384.28457403 350.38920841 388.19726562 354.51074219 C393.88536273 360.51886884 399.50236822 366.57794957 405.01757812 372.74511719 C410.5758983 378.5000339 415.20771864 381.96783712 423.44726562 382.26074219 C429.04216753 381.31690656 432.92105021 378.72036757 436.44726562 374.26074219 C439.07379852 368.50738441 439.00537917 363.53040394 437.50976562 357.44824219 C435.15374148 351.73899298 430.65939388 347.65238275 426.44726562 343.26074219 C424.75641956 341.40962635 423.0690782 339.55530477 421.38476562 337.69824219 C416.16649084 331.99802186 410.86650724 326.37510782 405.56445312 320.75292969 C400.586638 315.47456723 395.61887157 310.18713393 390.68652344 304.86621094 C387.63441734 301.57852203 384.55057055 298.3294468 381.41601562 295.12011719 C366.02451156 279.27206197 366.02451156 279.27206197 365.22070312 270.90136719 C365.4635703 265.33410428 367.53502798 261.18361091 371.44726562 257.26074219 C375.69199999 254.20058485 379.75885238 253.58676017 384.88867188 253.81542969 C395.02315018 255.57929309 402.20926924 266.10887745 408.72021484 273.34423828 C411.23060354 276.1300103 413.77600741 278.8827959 416.32226562 281.63574219 C416.80115234 282.15555664 417.28003906 282.67537109 417.7734375 283.2109375 C423.26095974 289.16234596 428.81998615 295.04635493 434.37304688 300.93652344 C437.62115623 304.38200189 440.86303725 307.83321806 444.09985352 311.28930664 C445.32827509 312.60019659 446.55792472 313.90993684 447.78881836 315.21850586 C451.09336524 318.73369421 454.37372019 322.26827626 457.62695312 325.83105469 C458.32755859 326.59160156 459.02816406 327.35214844 459.75 328.13574219 C461.08436898 329.58455752 462.41178422 331.03982423 463.73046875 332.50292969 C469.99948827 339.27740942 477.33399062 345.32023834 486.69726562 346.76074219 C492.66868275 345.96455324 497.23459693 342.47341088 501.44726562 338.26074219 C505.09611388 338.54957793 506.7707037 340.26511453 509.19726562 342.86621094 C509.88820313 343.60291016 510.57914063 344.33960938 511.29101562 345.09863281 C512.00257813 345.87400391 512.71414063 346.649375 513.44726562 347.44824219 C514.15882813 348.20427734 514.87039063 348.9603125 515.60351562 349.73925781 C519.30113086 353.71626375 522.60969936 357.62752851 525.44726562 362.26074219 C517.85573879 370.95426486 509.05834022 377.88381043 497.44726562 380.26074219 C495.91929243 380.35017629 494.38800859 380.39135579 492.85742188 380.39355469 C491.99052734 380.39484375 491.12363281 380.39613281 490.23046875 380.39746094 C488.8837207 380.39166016 488.8837207 380.39166016 487.50976562 380.38574219 C486.61580078 380.38960937 485.72183594 380.39347656 484.80078125 380.39746094 C480.56012466 380.39116449 476.57887265 380.34755322 472.44726562 379.26074219 C471.97417969 380.22753906 471.50109375 381.19433594 471.01367188 382.19042969 C463.21730009 397.70528943 453.18876091 409.21307065 436.43945312 414.94824219 C421.28786838 419.09620455 407.40625486 415.34274873 393.44726562 409.26074219 C392.43019531 410.43830078 392.43019531 410.43830078 391.39257812 411.63964844 C382.14308979 422.16071107 372.46924152 430.14800015 358.44726562 433.26074219 C347.28616373 433.84111949 336.28888524 433.89496092 325.93554688 429.09667969 C322.89514361 428.07525693 321.45682573 428.17903129 318.44726562 429.26074219 C316.29500111 431.04145146 316.29500111 431.04145146 314.32226562 433.32324219 C304.73579913 443.28999827 292.87208832 451.40960926 278.72070312 452.46386719 C254.16293922 452.86102779 236.36953977 436.84461337 218.44775391 422.11767578 C213.87115337 418.3699348 209.20129152 414.7799637 204.44726562 411.26074219 C198.23804248 406.66295124 192.21445931 401.87887793 186.24072266 396.97998047 C181.63292155 393.20645775 176.96277491 389.53249728 172.22851562 385.91943359 C168.37973185 382.98201723 164.56220926 380.00788606 160.75976562 377.01074219 C155.33859791 372.73956548 149.89777448 368.49440928 144.44726562 364.26074219 C137.32389214 358.72634237 130.220298 353.16766003 123.1328125 347.58740234 C120.23917735 345.30988013 117.3430724 343.03550211 114.44726562 340.76074219 C113.28058767 339.84408989 112.11392099 338.92742324 110.94726562 338.01074219 C110.36976563 337.55699219 109.79226563 337.10324219 109.19726562 336.63574219 C107.44726562 335.26074219 105.69726562 333.88574219 103.94726562 332.51074219 C103.36904053 332.05642822 102.79081543 331.60211426 102.19506836 331.1340332 C101.03570329 330.22309194 99.87636061 329.31212218 98.71704102 328.40112305 C95.68884877 326.02161604 92.66019672 323.6426975 89.63085938 321.26464844 C89.00373047 320.77222656 88.37660156 320.27980469 87.73046875 319.77246094 C86.53790563 318.83607805 85.3452068 317.89986796 84.15234375 316.96386719 C81.65968599 315.00640641 79.17969762 313.04052794 76.73242188 311.02636719 C73.26656033 308.34847075 70.15049977 307.18152199 65.75976562 307.38574219 C62.85105164 308.48633667 62.1321568 309.67694124 60.44726562 312.26074219 C59.8635456 313.78698261 59.32377734 315.33054931 58.82226562 316.88574219 C55.45346358 325.55752539 49.03721111 331.99862684 40.88085938 336.32324219 C33.61069211 339.12394868 26.90102376 339.57970495 19.18554688 339.59667969 C18.11789597 339.60333649 17.05024506 339.60999329 15.95024109 339.61685181 C13.69869701 339.62693842 11.44712329 339.63167007 9.19555664 339.63134766 C5.78740956 339.63570683 2.38057357 339.67203225 -1.02734375 339.70996094 C-28.49458592 339.85371972 -28.49458592 339.85371972 -39.55273438 330.29980469 C-49.42971832 320.2299109 -52.02603957 309.40814833 -51.92695618 295.59640503 C-51.93093058 294.4744631 -51.93490499 293.35252117 -51.93899983 292.19658101 C-51.9485671 288.4650693 -51.93683825 284.73394203 -51.92504883 281.00244141 C-51.9274786 278.31593821 -51.93108386 275.62945984 -51.93611145 272.94296265 C-51.94556565 266.42087907 -51.9390297 259.89890668 -51.92684851 253.3768314 C-51.91318062 245.77364879 -51.91487054 238.17049222 -51.91698184 230.56730045 C-51.92016668 216.99813199 -51.90853224 203.42901614 -51.88891602 189.85986328 C-51.86990651 176.7068522 -51.86283107 163.55390274 -51.8684082 150.40087891 C-51.8744715 136.0589744 -51.8742794 121.71709694 -51.86292237 107.37519467 C-51.86171514 105.84485761 -51.86050916 104.31452056 -51.85930443 102.7841835 C-51.85870089 102.03132856 -51.85809735 101.27847362 -51.85747552 100.5028049 C-51.85360332 95.20845937 -51.85398726 89.91412394 -51.85589027 84.61977768 C-51.85801642 78.16552433 -51.8527562 71.71132483 -51.83827672 65.25708662 C-51.83105359 61.96683384 -51.82801437 58.67667487 -51.83152008 55.38641357 C-51.83474822 51.81456005 -51.82564381 48.24294144 -51.81343079 44.67111206 C-51.81721011 43.63871112 -51.82098943 42.60631017 -51.82488328 41.54262435 C-51.75218118 29.50596155 -49.19757278 19.98273485 -40.86523438 11.01074219 C-29.38370496 0.23741926 -14.95420668 -0.08655596 0 0 Z " fill="#FFCA54" transform="translate(218.552734375,369.7392578125)"/>
<path d="M0 0 C3.61296442 1.82994302 6.40798954 4.3102982 8.22859478 7.94718075 C11.37132516 18.72510407 10.07921457 31.8909832 10.07495117 43.07983398 C10.0779532 44.68333513 10.08135808 46.28683556 10.08512878 47.89033508 C10.09385799 52.19151156 10.0963019 56.49266808 10.09694457 60.79385257 C10.09766039 63.48823737 10.09980446 66.18261724 10.10244179 68.87700081 C10.11165209 78.29552655 10.11578132 87.71403826 10.11499023 97.13256836 C10.11438769 105.88620248 10.12498515 114.63977533 10.1407339 123.39339393 C10.15382393 130.94029447 10.15917365 138.48717497 10.15853482 146.03408676 C10.15828066 150.52838153 10.16108787 155.02262148 10.17171288 159.51690483 C10.18142088 163.73678786 10.1814546 167.95656384 10.17419624 172.17645073 C10.1731544 173.71912798 10.17548937 175.26181202 10.1815567 176.80447769 C10.22546807 188.74702187 9.93368895 197.81550551 2.23046875 207.484375 C-1.71544177 210.68665892 -5.88899808 209.94539859 -10.7734375 209.80859375 C-14.0703125 209.3515625 -14.0703125 209.3515625 -17.2578125 207.1015625 C-17.8559375 206.1940625 -18.4540625 205.2865625 -19.0703125 204.3515625 C-19.6271875 203.7534375 -20.1840625 203.1553125 -20.7578125 202.5390625 C-24.01914786 197.10350357 -24.32125065 190.8380027 -24.33100891 184.64782715 C-24.33483446 183.9156804 -24.33866001 183.18353366 -24.34260148 182.42920065 C-24.35284274 179.99894935 -24.34895643 177.56893824 -24.3449707 175.13867188 C-24.34932203 173.38694543 -24.35450658 171.63522088 -24.36045837 169.88349915 C-24.37381256 165.14182984 -24.37443116 160.40024042 -24.37189507 155.65855598 C-24.37082319 151.69480359 -24.37571416 147.73106721 -24.3805005 143.76731825 C-24.39158274 134.41501631 -24.39203994 125.06275454 -24.38598633 115.71044922 C-24.37994332 106.07192881 -24.39226882 96.43355426 -24.4135564 86.79505873 C-24.43118281 78.50863196 -24.43717221 70.22225158 -24.43391865 61.93580675 C-24.43210773 56.99148113 -24.43472321 52.04725964 -24.44863319 47.10295105 C-24.46122426 42.4538689 -24.45925532 37.80501402 -24.44622231 33.15593529 C-24.44385998 31.45320241 -24.44657887 29.75045347 -24.45484543 28.04773903 C-24.46534378 25.71666364 -24.45718823 23.38634664 -24.4445343 21.05529785 C-24.44470204 19.75305519 -24.44486979 18.45081253 -24.44504261 17.10910797 C-23.86939753 11.3369202 -22.56791344 6.2946964 -18.0703125 2.4140625 C-12.67805722 -1.293113 -6.28256894 -1.96774801 0 0 Z " fill="#FFCA54" transform="translate(557.0703125,853.6484375)"/>
<path d="M0 0 C1.93359375 -0.01933594 1.93359375 -0.01933594 3.90625 -0.0390625 C8.33237196 0.77880786 9.71822492 2.15778753 12.5 5.625 C13.828125 7.65234375 13.828125 7.65234375 14.75 9.5625 C15.06453125 10.19027344 15.3790625 10.81804688 15.703125 11.46484375 C17.58283396 16.5603293 17.62057989 21.72551815 17.60247803 27.10168457 C17.60080938 28.19945811 17.60080938 28.19945811 17.59910703 29.31940889 C17.59408649 31.76050587 17.58173828 34.20150832 17.56933594 36.64257812 C17.56410025 38.39725126 17.55927363 40.15192565 17.55482483 41.90660095 C17.54120081 46.66479062 17.52075454 51.42292657 17.49825954 56.18108177 C17.48438338 59.15445506 17.47175128 62.12783111 17.4595108 65.10121155 C17.42092637 74.40666578 17.37832663 83.71208814 17.32973552 93.01749563 C17.27366959 103.75581655 17.23066315 114.49408415 17.19905448 125.23250437 C17.17384465 133.53759507 17.13724825 141.84258672 17.09196877 150.14759207 C17.06517469 155.10638346 17.04317293 160.06508542 17.03295135 165.02394104 C17.02301245 169.68618165 16.99893872 174.34813746 16.96401787 179.01025581 C16.95363102 180.72025284 16.94830973 182.43028935 16.94845009 184.14031792 C16.94785781 186.47663888 16.92892664 188.81212822 16.90545654 191.14831543 C16.89954876 192.45499931 16.89364098 193.7616832 16.88755417 195.10796356 C16.30880851 200.36005407 14.46196114 203.569189 10.9375 207.4375 C6.91161548 210.53202318 2.4569894 210.89252006 -2.5 210.625 C-7.73075887 209.08149738 -11.10189192 206.8969073 -14.5 202.625 C-16.23792315 197.66081514 -16.75390388 193.30331897 -16.76742554 188.06170654 C-16.77195665 187.33253092 -16.77648776 186.6033553 -16.78115618 185.85208344 C-16.79374579 183.42573732 -16.79218336 180.99961722 -16.79052734 178.57324219 C-16.79651605 176.82653009 -16.80332238 175.07982063 -16.81088257 173.33311462 C-16.82851614 168.59945623 -16.83323687 163.86587019 -16.83451414 159.13218212 C-16.83593793 156.17098175 -16.84021187 153.20979965 -16.84550858 150.24860382 C-16.86400095 139.90709775 -16.87218028 129.56564316 -16.87060547 119.22412109 C-16.86940467 109.60211746 -16.89049698 99.98033836 -16.9220928 90.35839152 C-16.94829331 82.08297703 -16.95897116 73.8076357 -16.95769465 65.53218007 C-16.95718608 60.59608768 -16.96281113 55.66019486 -16.98405075 50.72414398 C-17.00349652 46.0783009 -17.00351447 41.43284646 -16.98901749 36.78698921 C-16.98693605 35.0887374 -16.99159033 33.39046085 -17.0037384 31.69225121 C-17.0749322 21.04421537 -16.69861166 11.41965924 -10.21875 2.4765625 C-6.65160612 0.04721451 -4.2910389 -0.04291039 0 0 Z " fill="#FFCA54" transform="translate(549.5,32.375)"/>
<path d="M0 0 C4.31395425 3.80643022 6.2272098 8.26331376 7.125 13.875 C7.23222149 16.56459732 7.29228082 19.22919389 7.30200195 21.91894531 C7.31185875 23.11267509 7.31185875 23.11267509 7.32191467 24.33052063 C7.3415663 26.95472318 7.35329199 29.57886873 7.36328125 32.203125 C7.36735678 33.10300896 7.3714323 34.00289291 7.37563133 34.93004608 C7.39645727 39.69310778 7.41077407 44.45614097 7.42016602 49.21923828 C7.43122401 54.12280049 7.46562688 59.02590814 7.50533772 63.92930984 C7.53155718 67.71444508 7.53986256 71.49947281 7.54344749 75.28469086 C7.54829954 77.09148987 7.55987387 78.89828453 7.57848549 80.7049942 C7.77705183 101.25770858 7.77705183 101.25770858 0.4375 108.875 C-0.7071875 109.865 -0.7071875 109.865 -1.875 110.875 C-2.205 111.205 -2.535 111.535 -2.875 111.875 C-14.59008693 113.39827538 -14.59008693 113.39827538 -19.2890625 110.265625 C-29.22485382 99.01915482 -27.02973271 83.40316801 -26.89453125 69.359375 C-26.88757421 68.54189034 -26.88061718 67.72440567 -26.87344933 66.88214874 C-26.83634603 62.56750554 -26.79249183 58.25299385 -26.74291992 53.93847656 C-26.69332726 49.50493328 -26.66729595 45.07157205 -26.64648914 40.63781357 C-26.62607382 37.20255248 -26.58818945 33.76763968 -26.5456295 30.3325882 C-26.52838176 28.69809759 -26.5176157 27.06352432 -26.51368141 25.42894745 C-26.46428562 9.57862939 -26.46428562 9.57862939 -21.875 2.875 C-15.58006141 -3.26256513 -7.96009136 -3.11481836 0 0 Z " fill="#FFCA54" transform="translate(639.875,951.125)"/>
<path d="M0 0 C3.82047983 2.85705448 5.31520839 6.89875016 6.796875 11.34375 C6.91365661 14.04388774 6.97495054 16.71919028 6.98974609 19.42016602 C7.00201233 20.65493935 7.00201233 20.65493935 7.01452637 21.91465759 C7.03936046 24.64231648 7.05589535 27.36992322 7.0703125 30.09765625 C7.07563618 31.03122389 7.08095985 31.96479153 7.08644485 32.92664909 C7.1131736 37.87239638 7.13254546 42.8181185 7.14697266 47.76391602 C7.16028711 51.84650196 7.18809398 55.92858515 7.22900391 60.01098633 C7.2784822 64.94877679 7.3031129 69.8861128 7.31019974 74.82414055 C7.31688842 76.69990943 7.33204794 78.57566913 7.35609055 80.45129585 C7.49371027 91.84139713 7.58110273 101.12828325 -0.61328125 109.93359375 C-5.55354341 112.62354042 -10.76051536 112.11147327 -16.203125 111.34375 C-20.19816258 109.75185763 -22.3243343 106.55638715 -24.32446289 102.86547852 C-27.65941083 95.08086869 -26.75461646 86.23702678 -26.69921875 77.93359375 C-26.69937393 76.03748011 -26.70086613 74.14136615 -26.70362854 72.24525452 C-26.70500843 68.28372058 -26.69252219 64.32255049 -26.66967773 60.36108398 C-26.64127501 55.29837469 -26.64404129 50.23626842 -26.65676785 45.17351437 C-26.66374164 41.26228233 -26.65591665 37.35118825 -26.64351082 33.43997383 C-26.63901422 31.5737721 -26.63864376 29.70755547 -26.64257622 27.84135246 C-26.6455057 25.228483 -26.62889992 22.61642825 -26.60717773 20.00366211 C-26.61167938 19.24240021 -26.61618103 18.48113831 -26.62081909 17.69680786 C-26.53430237 11.39357855 -25.44193691 5.58256191 -20.828125 0.96875 C-13.7145307 -3.43490362 -7.45501089 -4.04535475 0 0 Z " fill="#FFCA54" transform="translate(479.203125,951.65625)"/>
<path d="M0 0 C5.38707069 3.12583114 7.30483458 9.26999774 9 15 C9.3885062 17.80476297 9.41160998 20.55604703 9.38818359 23.38452148 C9.39344055 24.18077942 9.39869751 24.97703735 9.40411377 25.79742432 C9.41721812 28.40551917 9.40860914 31.01299367 9.3984375 33.62109375 C9.40046119 35.44898087 9.40337508 37.27686721 9.40713501 39.10475159 C9.41154559 42.92676517 9.40516897 46.74856769 9.39111328 50.57055664 C9.37403434 55.4504578 9.38386246 60.32986341 9.40183067 65.20974636 C9.4127132 68.98203713 9.40920153 72.75421201 9.4014473 76.52650642 C9.39945699 78.32490155 9.4018631 80.12330747 9.40888596 81.92168999 C9.47370174 103.18438986 9.47370174 103.18438986 4.54818726 108.5947113 C-0.37875976 112.89336265 -3.82871272 113.3608595 -10.171875 113.26953125 C-14.59911301 112.84759835 -16.52496251 111.8367653 -20 109 C-23.51748505 103.79774135 -24.59401134 98.99734416 -24.57763672 92.81494141 C-24.59118698 92.03979691 -24.60473724 91.2646524 -24.61869812 90.46601868 C-24.65807975 87.92770224 -24.66952214 85.39015051 -24.6796875 82.8515625 C-24.69978134 81.07089632 -24.72129988 79.29024571 -24.74417114 77.50961304 C-24.78787699 73.78602869 -24.81844971 70.06265063 -24.83886719 66.33886719 C-24.86538174 61.58890211 -24.91830075 56.83970161 -24.98036003 52.09008217 C-25.02650346 48.4147874 -25.06168152 44.73945258 -25.09332657 41.06400681 C-25.10908543 39.31386151 -25.12743482 37.56373739 -25.14852524 35.81364822 C-25.40641112 12.62251106 -25.40641112 12.62251106 -20.5625 5.5 C-20.15128906 4.8709375 -19.74007812 4.241875 -19.31640625 3.59375 C-14.64861955 -2.05745764 -6.6044843 -0.91907063 0 0 Z " fill="#FFCA54" transform="translate(638,33)"/>
<path d="M0 0 C5.25856642 3.40554778 7.35676455 8.11166646 9 14 C9.18874739 16.81975457 9.28383512 19.53922903 9.2746582 22.35693359 C9.27976913 23.17401291 9.28488007 23.99109222 9.29014587 24.83293152 C9.3039929 27.521509 9.30308869 30.2098287 9.30078125 32.8984375 C9.30467108 34.77641901 9.30900635 36.65439964 9.31376648 38.53237915 C9.32121834 42.46464899 9.32094506 46.39682903 9.31567383 50.32910156 C9.30988296 55.35486121 9.326806 60.38025187 9.3500185 65.40595055 C9.36478953 69.2837029 9.36562292 73.1613671 9.36250877 77.03914261 C9.36302037 78.89140173 9.3682276 80.74366599 9.37832069 82.59589767 C9.39073224 85.19226422 9.38386529 87.78792116 9.37231445 90.38427734 C9.38378006 91.51921379 9.38378006 91.51921379 9.39547729 92.67707825 C9.33056337 99.31745127 7.9023673 104.76471843 3.5 109.9375 C-1.38349014 113.96637936 -6.9443655 113.48907474 -13 113 C-17.8604216 111.03514871 -20.72987923 107.48332612 -23.09611511 102.85688782 C-24.28049715 99.11343923 -24.28710046 95.55011647 -24.2746582 91.66479492 C-24.27976913 90.83810806 -24.28488007 90.0114212 -24.29014587 89.15968323 C-24.30401859 86.43320425 -24.30308653 83.70697879 -24.30078125 80.98046875 C-24.3046701 79.07863776 -24.30900516 77.17680764 -24.31376648 75.27497864 C-24.32122418 71.28965439 -24.32094113 67.30441872 -24.31567383 63.3190918 C-24.30988673 58.22492398 -24.32679403 53.13112065 -24.3500185 48.03701305 C-24.36478996 44.10864662 -24.36562278 40.18036721 -24.36250877 36.25197792 C-24.3630205 34.37459912 -24.36823018 32.49721526 -24.37832069 30.61986351 C-24.39073093 27.98746847 -24.38386566 25.35577348 -24.37231445 22.72338867 C-24.37995819 21.95584259 -24.38760193 21.18829651 -24.39547729 20.39749146 C-24.3308981 13.70058728 -22.59448765 8.01813849 -18.75 2.5 C-13.76529497 -2.04524741 -6.16916273 -1.23652063 0 0 Z " fill="#FFCA54" transform="translate(477,33)"/>
<path d="M0 0 C3.24219051 1.8702969 5.59643025 4.15046671 8 7 C8.77671555 7.89684761 8.77671555 7.89684761 9.56912231 8.81181335 C11.25529975 11.39042017 11.42065517 12.87480622 11.51513672 15.93286133 C11.56805374 17.40007378 11.56805374 17.40007378 11.62203979 18.89692688 C11.64106354 19.94801132 11.66008728 20.99909576 11.6796875 22.08203125 C11.70153107 23.16957199 11.72337463 24.25711273 11.74588013 25.37760925 C11.78296647 27.67812744 11.81096655 29.9788074 11.83056641 32.27954102 C11.8747376 35.79163648 11.99350553 39.29642331 12.11328125 42.80664062 C12.41791441 59.11095267 12.41791441 59.11095267 8.70019531 64.06396484 C5.78545182 65.97203955 3.34201892 67.05084459 0 68 C-1.59255615 68.55155762 -1.59255615 68.55155762 -3.21728516 69.11425781 C-7.38148127 70.4397275 -10.85503034 70.41373072 -15 69 C-18.45591061 66.18487282 -20.59417011 63.21748967 -22 59 C-22.12756343 57.59097611 -22.20642971 56.17720569 -22.25292969 54.76318359 C-22.28255798 53.91154633 -22.31218628 53.05990906 -22.3427124 52.1824646 C-22.36883606 51.26373566 -22.39495972 50.34500671 -22.421875 49.3984375 C-22.44977112 48.44740143 -22.47766724 47.49636536 -22.50640869 46.51651001 C-22.56281885 44.50082704 -22.61643471 42.48506423 -22.66748047 40.46923828 C-22.74914041 37.40723221 -22.85286471 34.34646757 -22.95703125 31.28515625 C-23.00918777 29.32295274 -23.06001087 27.36071325 -23.109375 25.3984375 C-23.14359558 24.49185394 -23.17781616 23.58527039 -23.21307373 22.6512146 C-23.33666923 16.32934124 -22.95837052 9.31348683 -18.54705811 4.37265015 C-12.77143161 -0.55287229 -7.41482005 -1.15073553 0 0 Z " fill="#FFCA54" transform="translate(1054,510)"/>
<path d="M0 0 C0.76441406 0.25209229 1.52882813 0.50418457 2.31640625 0.76391602 C9.40529424 3.24797019 15.25339461 6.24970825 18.6875 13.25 C19.6153854 18.43858368 19.1289642 22.98072772 16.1484375 27.47265625 C13.09093716 31.19234249 9.91157901 34.8850413 5.6875 37.25 C-0.00023739 37.11261504 -5.02392379 35.07278972 -10.25 33 C-11.38985352 32.56880859 -11.38985352 32.56880859 -12.55273438 32.12890625 C-27.35470454 26.33957889 -27.35470454 26.33957889 -30.3125 20.25 C-32.08678394 13.38943544 -30.79304439 8.39533619 -27.3125 2.25 C-19.19976157 -5.66957799 -9.88092475 -3.2839189 0 0 Z " fill="#FFCA54" transform="translate(393.3125,1002.75)"/>
<path d="M0 0 C4.99291075 2.81952607 7.21107008 5.58225131 8.9375 11.125 C12.94539882 32.87695998 12.94539882 32.87695998 7.75 41.3125 C4.67993324 44.76737077 1.40420289 47.04960752 -3.30078125 47.515625 C-8.39891633 47.62128583 -11.90683383 47.27374966 -16.25 44.3125 C-22.76134616 37.9525805 -24.6309514 30.35208107 -24.80664062 21.3984375 C-24.80857422 20.50382813 -24.81050781 19.60921875 -24.8125 18.6875 C-24.84923828 17.78515625 -24.88597656 16.8828125 -24.92382812 15.953125 C-24.96246171 10.06364887 -23.95125292 6.91657313 -19.82348633 2.66821289 C-13.77496155 -2.54318479 -7.11488705 -3.25327549 0 0 Z " fill="#FFCA54" transform="translate(59.25,563.6875)"/>
<path d="M0 0 C3.94443552 3.67549673 5.69195577 7.62689093 7.75 12.5625 C8.0190918 13.20461426 8.28818359 13.84672852 8.56542969 14.50830078 C9.44001165 16.62261502 10.28731937 18.74581408 11.125 20.875 C11.53782227 21.8973877 11.53782227 21.8973877 11.95898438 22.94042969 C13.44253812 26.85739692 14.26768272 29.58371017 12.75 33.5625 C10.71273511 36.50339045 8.24439357 39.00387312 5.75 41.5625 C4.96625 42.366875 4.1825 43.17125 3.375 44 C-0.3997563 46.24687875 -3.88239333 46.75541549 -8.25 46.5625 C-14.18513397 44.54679412 -17.00418515 40.91703046 -19.8828125 35.4765625 C-23.97233779 26.46247795 -27.34449361 18.61816008 -26.25 8.5625 C-24.13363831 3.43867695 -20.43536541 0.60551531 -15.5 -1.75 C-9.88579988 -2.93761926 -5.23622197 -2.31602126 0 0 Z " fill="#FFCA54" transform="translate(91.25,705.4375)"/>
<path d="M0 0 C4.4392404 4.0262878 6.4087333 8.12771874 7.125 14.0625 C6.1935184 21.24821521 2.57537423 25.04118346 -2.765625 29.60546875 C-10.61697199 35.25314013 -19.79091507 37.25234245 -29.3125 36.4375 C-34.59347404 34.64396165 -37.11145251 31.82750798 -40.3125 27.4375 C-42.13965217 21.95604349 -41.95323426 17.15583279 -39.9375 11.75 C-32.4330724 0.50634204 -12.05797538 -5.68772424 0 0 Z " fill="#FFCA54" transform="translate(758.3125,990.5625)"/>
<path d="M0 0 C5.62891522 1.98054424 8.39596505 5.11273708 11.25 10.25 C13.34296994 17.92422313 11.57246436 24.52679529 8.75 31.75 C8.44964844 32.57371094 8.14929687 33.39742187 7.83984375 34.24609375 C5.86012629 39.47760243 3.88060922 44.05411908 -0.9140625 47.29296875 C-6.21203807 49.08872451 -12.14650596 48.61783135 -17.375 46.875 C-21.92640448 43.6239968 -25.01554064 40.62185419 -26.0625 35.0625 C-26.6507537 25.11260889 -22.44760306 13.23703837 -17 5 C-11.55941357 -0.1875359 -7.30205402 -0.61786611 0 0 Z " fill="#FFCA54" transform="translate(1032,674)"/>
<path d="M0 0 C4.17513858 2.03334671 6.39000665 4.98966061 8.14453125 9.13671875 C10.19555944 16.10293286 8.68834887 22.73472912 7.0546875 29.62890625 C6.89806641 30.30244141 6.74144531 30.97597656 6.58007812 31.66992188 C5.09995978 37.40325384 2.42816561 42.55951129 -2.1953125 46.37890625 C-7.47549576 48.13896734 -13.32593424 48.46486996 -18.58984375 46.47265625 C-23.02343461 43.90627341 -25.70411779 41.41168839 -27.1953125 36.37890625 C-28.0983974 29.74866266 -26.99441824 23.55907223 -25.4453125 17.12890625 C-25.21026001 16.13721436 -25.21026001 16.13721436 -24.97045898 15.12548828 C-23.48532186 9.44254383 -21.52398227 4.24565956 -16.8125 0.46875 C-11.54078783 -1.72648537 -5.46676809 -1.54664791 0 0 Z " fill="#FFCA54" transform="translate(71.1953125,419.62109375)"/>
<path d="M0 0 C6.37728524 4.27116102 7.47189056 12.13708307 8.9375 19.1875 C10.5191775 27.21367201 11.16726497 34.22630674 7.1875 41.5625 C3.21074519 45.76018563 -1.25261999 47.39208021 -7.015625 47.66796875 C-11.96669497 47.4406237 -15.7135008 46.29134377 -19.30859375 42.8046875 C-25.09385804 34.17938437 -27.02754699 19.07476168 -25.40625 9.05078125 C-24.27363445 5.40348952 -22.80435636 3.55574251 -19.875 1.125 C-13.73888952 -2.00566861 -6.40780336 -3.03818263 0 0 Z " fill="#FFCA54" transform="translate(1048.8125,439.4375)"/>
<path d="M0 0 C7.81606936 7.45253125 13.9831521 18.519021 15.0625 29.3125 C14.97808946 34.33961679 12.95009316 37.82910226 9.6875 41.5625 C5.51054492 45.2523164 1.32019658 46.17871438 -4.1796875 45.87109375 C-9.13618769 45.15394445 -12.1272471 43.09267456 -15.25 39.3125 C-20.94980593 31.1029652 -26.63194507 21.2158418 -25.8671875 10.9375 C-24.64324152 5.69694258 -21.931564 2.75752343 -17.6875 -0.375 C-11.65982733 -2.27260065 -5.84715295 -2.53744373 0 0 Z " fill="#FFCA54" transform="translate(1001.3125,303.4375)"/>
<path d="M0 0 C3.114 3.19185 5.06787415 5.7906336 5.58984375 10.2890625 C5.19932213 20.17095732 0.10463738 31.58427883 -6.5703125 38.80078125 C-10.17233733 41.93215824 -13.21951985 43.9828011 -18.0625 44.25 C-24.23369265 43.69977128 -28.84370617 41.43113919 -32.9375 36.8125 C-36.24163175 29.93990596 -35.85712284 25.86804421 -33.5 18.75 C-30.20517847 10.22922543 -26.245924 1.81199669 -18.5 -3.4375 C-12.28203205 -5.39698444 -5.0792984 -4.1308299 0 0 Z " fill="#FFCA54" transform="translate(1013.5,745.4375)"/>
<path d="M0 0 C6.43417836 5.48797566 8.04811023 11.88585519 10.125 19.8125 C10.52138672 21.28589844 10.52138672 21.28589844 10.92578125 22.7890625 C12.40316393 29.22428768 12.14157974 33.88664969 9.125 39.8125 C6.81511095 43.31458984 5.00043739 45.26900683 1.125 46.8125 C-4.71665384 47.60665948 -11.01758117 48.21133008 -15.9375 44.5 C-23.12674788 36.91925842 -24.8001146 24.05517748 -25.1875 14 C-25.06469835 9.95476933 -24.23012045 7.18817264 -21.875 3.8125 C-15.35611684 -1.21247244 -7.85664463 -3.24513583 0 0 Z " fill="#FFCA54" transform="translate(69.875,635.1875)"/>
<path d="M0 0 C4.62031311 2.7048083 7.8502189 6.2381567 9.5625 11.375 C9.93525724 16.4072227 9.80087131 19.42823497 6.5625 23.375 C0.72611924 28.54840785 -5.76651784 31.6952213 -12.9375 34.625 C-13.93136719 35.07746094 -14.92523438 35.52992187 -15.94921875 35.99609375 C-23.11036085 38.91920195 -23.11036085 38.91920195 -26.81665039 37.39941406 C-28.91314521 35.86444164 -30.66369959 34.26987709 -32.4375 32.375 C-33.11683594 31.69953125 -33.79617188 31.0240625 -34.49609375 30.328125 C-35.17865234 29.48507813 -35.17865234 29.48507813 -35.875 28.625 C-36.34808594 28.05265625 -36.82117188 27.4803125 -37.30859375 26.890625 C-39.3954202 24.08893413 -39.65074695 22.07273751 -39.75 18.625 C-39.78738281 17.78453125 -39.82476562 16.9440625 -39.86328125 16.078125 C-39.26165221 12.25860855 -37.93334244 10.32998327 -35.4375 7.375 C-32.87756471 5.63748736 -30.18537352 4.34500169 -27.375 3.0625 C-26.65505859 2.71638672 -25.93511719 2.37027344 -25.19335938 2.01367188 C-17.20365817 -1.79200753 -8.47147563 -3.89623211 0 0 Z " fill="#FFCA54" transform="translate(397.4375,61.625)"/>
<path d="M0 0 C5.09459883 2.73598826 8.1667679 5.5003037 10 11 C11.04702583 17.48095737 9.61752558 21.94557876 6.04296875 27.37109375 C0.80052544 34.11710588 -4.99579443 40.6559249 -13 44 C-19.28745548 44.70987401 -23.80531171 43.69732803 -29 40 C-32.51037451 36.12958708 -33.82256516 32.47976406 -34.1484375 27.3515625 C-33.5881545 18.47550016 -27.18028803 11.81558204 -21 6 C-13.97742953 0.53677195 -8.87877479 -1.97306106 0 0 Z " fill="#FFCA54" transform="translate(929,863)"/>
<path d="M0 0 C7.92677661 4.14354232 10.4667236 14.90797557 13.375 22.8125 C13.65013428 23.54170654 13.92526855 24.27091309 14.20874023 25.0222168 C15.63114605 29.03551564 16.55954362 31.94942065 15 36 C11.70608749 40.87281272 7.3468277 45.53223337 2 48 C-3.239641 48.90640224 -8.32097537 49.10152957 -12.8125 45.9375 C-19.04689547 39.70310453 -23.01420449 27.47906851 -23.3125 18.75 C-23.21585401 12.86425907 -21.35409357 8.46109782 -17.28125 4.203125 C-11.61239099 -0.8411987 -7.38380025 -1.61765235 0 0 Z " fill="#FFCA54" transform="translate(1028,368)"/>
<path d="M0 0 C26.54127282 10.01947401 26.54127282 10.01947401 30.69140625 16.73828125 C32.16298869 20.40625539 32.40072655 23.12204975 32.375 27.0625 C32.38660156 28.84333984 32.38660156 28.84333984 32.3984375 30.66015625 C31.96871567 34.26223631 31.1692123 36.12489201 29 39 C24.46397546 42.05917934 20.33765417 42.87583799 15 42 C-6.46765721 36.33021243 -6.46765721 36.33021243 -12.59765625 29.12109375 C-14.87709874 25.17263574 -15.61685405 21.48848933 -14.73046875 17.00390625 C-12.63711584 11.26117874 -8.33091555 7.16166424 -3.78515625 3.25390625 C-2.71793335 2.33266968 -2.71793335 2.33266968 -1.62915039 1.39282227 C-1.09153076 0.93319092 -0.55391113 0.47355957 0 0 Z " fill="#FFCA54" transform="translate(726,63)"/>
<path d="M0 0 C5.17522868 5.80252913 5.55286393 11.20747816 5.34375 18.76171875 C4.66470015 27.33472314 3.84817804 35.67558513 -2.33984375 42.078125 C-7.47422598 46.04503157 -12.64752065 46.05196056 -18.9375 45.3125 C-23.38896251 43.12723658 -26.12635145 40.3730479 -28.9375 36.3125 C-32.09715344 26.83353969 -29.52429938 15.09566281 -26.05859375 6.0078125 C-23.64537416 1.30253915 -20.04304516 -1.62218825 -15.05859375 -3.33203125 C-9.88002778 -4.19989405 -4.46620985 -2.56569502 0 0 Z " fill="#FFCA54" transform="translate(1053.9375,606.6875)"/>
<path d="M0 0 C9.13690018 5.28399047 16.32061931 13.3092031 19.8125 23.375 C20.35811745 26.98971562 20.42507591 29.3377549 18.5390625 32.53125 C12.62979583 40.48714073 12.62979583 40.48714073 7.8125 41.375 C-0.0720771 42.27905865 -5.2613056 40.40339568 -11.4765625 35.609375 C-18.18256381 29.9126381 -24.72629286 23.81724427 -25.5 14.6875 C-25.41194002 9.90584325 -24.04482325 6.20737421 -21.1875 2.375 C-15.3976971 -3.09229399 -6.9964366 -3.22703858 0 0 Z " fill="#FFCA54" transform="translate(206.1875,886.625)"/>
<path d="M0 0 C9.28292219 4.33203035 26.303555 12.60711001 31 22 C31.68410242 29.28961598 31.66276561 36.02763047 27 42 C23.07296243 45.62235362 19.75855291 45.73925412 14.56640625 45.60546875 C5.03147982 43.98672439 -5.04440754 38.68681338 -10.87109375 30.8671875 C-13.84414934 25.94981528 -15.05586824 20.7128029 -14 15 C-11.26719693 9.07680824 -5.9170523 5.06690774 -1 1 C-0.67 0.67 -0.34 0.34 0 0 Z " fill="#FFCA54" transform="translate(792,93)"/>
<path d="M0 0 C5.20414372 1.96060966 9.62909619 4.72438148 14.3125 7.6875 C15.12912109 8.19216797 15.94574219 8.69683594 16.78710938 9.21679688 C30.39760126 17.79520252 30.39760126 17.79520252 33 23 C33.60772001 27.20788414 33.88462574 31.23727713 31.94140625 35.109375 C27.73342986 40.44632066 23.04385349 42.38937189 16.46484375 43.3828125 C7.47678041 43.9777059 0.41918793 40.22205921 -6.7109375 35.0234375 C-12.06672344 30.28914208 -13.42398147 24.28951368 -14.21484375 17.39453125 C-13.69618607 11.6138556 -9.44045011 8.32980892 -5.3125 4.6875 C-4.80138672 4.23310547 -4.29027344 3.77871094 -3.76367188 3.31054688 C-2.51423665 2.20123522 -1.25782177 1.09979322 0 0 Z " fill="#FFCA54" transform="translate(312,967)"/>
<path d="M0 0 C3.77980012 2.79614129 5.00040074 5.65229884 6.12109375 10.07421875 C6.41943882 13.20433785 6.44594676 16.30661287 6.43359375 19.44921875 C6.44970703 20.26132812 6.46582031 21.0734375 6.48242188 21.91015625 C6.48898094 30.09587007 4.36272996 36.52379084 -1.28125 42.59765625 C-4.78381614 45.83474672 -8.17710951 47.22567788 -12.87890625 47.51171875 C-18.41344293 47.26925333 -21.50173214 44.29068864 -25.5234375 40.73828125 C-29.41579995 35.97197464 -28.52118428 29.907618 -28.37890625 24.07421875 C-28.38148437 22.91148437 -28.3840625 21.74875 -28.38671875 20.55078125 C-28.2598565 9.46302098 -28.2598565 9.46302098 -24.87890625 5.07421875 C-17.98136477 0.37266874 -8.12542657 -4.00358856 0 0 Z " fill="#FFCA54" transform="translate(62.87890625,491.92578125)"/>
<path d="M0 0 C4.2991168 2.10303116 6.39739336 5.06258212 8.20703125 9.31640625 C10.42881435 16.27098176 8.01745403 22.16054694 4.8671875 28.3828125 C1.04582299 34.66884406 -4.46554581 41.04917915 -11.1328125 44.3828125 C-16.38856415 44.9066701 -20.77807345 45.04786622 -25.5703125 42.6953125 C-30.42945242 38.31023501 -32.79831261 35.29677236 -33.22265625 28.703125 C-32.8306408 18.57889987 -24.23621992 8.08629618 -17.1328125 1.3828125 C-12.09667928 -1.79678009 -5.60861162 -1.62300483 0 0 Z " fill="#FFCA54" transform="translate(974.1328125,805.6171875)"/>
<path d="M0 0 C4.56347681 2.28664537 7.23651021 5.54638786 9.00390625 10.34765625 C10.14508209 14.24025606 10.63452543 17.56805552 9.2578125 21.453125 C4.05037631 30.76884996 -6.28497935 36.68332908 -15.99609375 40.34765625 C-20.83557716 41.3170329 -23.90881384 40.90155357 -28.30859375 38.66015625 C-32.83329745 34.76680656 -35.71958455 31.26601709 -36.99609375 25.34765625 C-37.09626342 19.13713697 -35.63599359 15.85655525 -31.36328125 11.37109375 C-22.95775745 4.18617407 -11.47221438 -3.7492364 0 0 Z " fill="#FFCA54" transform="translate(818.99609375,955.65234375)"/>
<path d="M0 0 C5.26594344 1.85856827 7.79395768 4.60314196 11 9 C12.67499803 14.0249941 13.02031277 18.56028532 10.94140625 23.53125 C5.53258486 33.02966806 -1.57655216 40.2858979 -12 44 C-17.84163812 44.90646109 -22.23615319 43.32433658 -27 40 C-30.52926022 36.10876437 -31.82146983 32.43919926 -32.1484375 27.28515625 C-31.60881838 18.97786184 -24.70217789 12.43886075 -19 7 C-12.77963968 2.21882242 -8.04460483 -0.81197881 0 0 Z " fill="#FFCA54" transform="translate(209,171)"/>
<path d="M0 0 C9.53632533 3.58526809 18.44088624 9.06841074 23.46875 18.21484375 C25.54386351 23.40262753 24.32569748 28.30971064 22.296875 33.28515625 C20.00763257 37.32948454 16.63536031 39.68404656 12.2421875 41.1484375 C2.57314098 42.31177446 -3.06080022 38.62366853 -10.5078125 32.8359375 C-15.7063446 28.39447318 -19.29026023 25.31744522 -20.0859375 18.22265625 C-20.27988509 12.54968923 -20.17334015 8.85374482 -16.7578125 4.1484375 C-11.63556515 -0.98648868 -7.04493682 -2.17534876 0 0 Z " fill="#FFCA54" transform="translate(858.7578125,137.8515625)"/>
<path d="M0 0 C4.0097358 4.11254954 5.17693949 7.59662652 5.4375 13.25 C5.34691291 18.17405521 4.67084205 20.85112417 1.16015625 24.3203125 C-3.59884643 28.02080283 -8.79824349 30.9752975 -14 34 C-15.44826172 34.928125 -15.44826172 34.928125 -16.92578125 35.875 C-17.79589844 36.431875 -18.66601562 36.98875 -19.5625 37.5625 C-20.32691406 38.05878906 -21.09132813 38.55507812 -21.87890625 39.06640625 C-24 40 -24 40 -25.95703125 39.921875 C-28.81972573 38.63010464 -30.80829975 36.80019232 -33.125 34.6875 C-33.99382812 33.90761719 -34.86265625 33.12773438 -35.7578125 32.32421875 C-39.01423997 28.94865369 -39.90025089 26.98086626 -40.375 22.3125 C-40.1948525 16.62195843 -38.22685072 11.6107905 -34.52734375 7.2734375 C-25.11651194 -1.40321594 -11.91262272 -6.55194249 0 0 Z " fill="#FFCA54" transform="translate(333,91)"/>
<path d="M0 0 C4.6449845 2.56861378 7.16404809 6.06396804 9.9375 10.5 C10.49953125 11.33917969 11.0615625 12.17835938 11.640625 13.04296875 C15.81467532 19.80141938 17.29244954 25.59033728 15.9375 33.5 C13.77812362 37.97870656 11.00797061 40.68198188 6.9375 43.5 C2.18443693 45.08435436 -2.42740016 45.61522952 -7.1484375 43.6171875 C-14.67800588 38.64707715 -20.32837814 28.97041675 -23.0625 20.5 C-23.69728693 15.01573615 -23.75203193 10.10890783 -21.5625 5 C-15.40933695 -1.15316305 -8.29636665 -3.52634939 0 0 Z " fill="#FFCA54" transform="translate(118.0625,770.5)"/>
<path d="M0 0 C9.07315936 7.74999029 15.81776861 16.78020965 17.4375 28.8125 C16.84645691 33.87858366 14.57699359 36.99371053 11 40.5625 C6.00689036 43.90204736 -0.26314623 43.10818321 -6 42.5625 C-13.57097528 39.41983101 -20.03314288 30.10075908 -23.37109375 22.69140625 C-25.15655467 16.64745467 -25.0278812 10.64611822 -22 5.0625 C-17.02793418 -1.77233978 -7.51008215 -3.59858103 0 0 Z " fill="#FFCA54" transform="translate(963,242.4375)"/>
<path d="M0 0 C6.35028619 6.48203487 12.34590818 13.46441961 13.18359375 22.90234375 C12.45280104 27.8090948 8.55088348 31.37167627 5.05859375 34.6171875 C0.47354284 37.36657171 -4.99335385 36.6302391 -10.1171875 35.921875 C-19.20398689 32.60845644 -24.45093441 25.65232402 -29.0546875 17.484375 C-30.71279475 11.92483892 -31.07964694 6.62879216 -29.1171875 1.109375 C-25.63181008 -2.70275656 -21.43862801 -5.20758481 -16.6171875 -7.015625 C-9.35701176 -7.19712939 -5.12203012 -4.86090702 0 0 Z " fill="#FFCA54" transform="translate(923.1171875,192.078125)"/>
<path d="M0 0 C6.76821709 3.86755262 12.87118672 8.35972925 15.6875 15.875 C17.04401633 21.49057865 17.2343834 26.58531909 14.6875 31.875 C11.56859629 35.33451204 8.23324892 38.31663871 3.5859375 39.3359375 C-5.49052877 38.96200069 -16.6480097 32.44270779 -23.046875 26.25390625 C-27.32493834 21.59292983 -27.85336489 17.892647 -27.66015625 11.66796875 C-26.97541071 6.16692313 -25.15034214 2.34527371 -20.8125 -1.125 C-13.63395852 -3.17601185 -6.81934046 -3.22747411 0 0 Z " fill="#FFCA54" transform="translate(264.3125,935.125)"/>
<path d="M0 0 C3.04839449 1.47537954 4.87608015 3.39737283 7 6 C7.60070312 6.66128906 8.20140625 7.32257813 8.8203125 8.00390625 C12.0771771 11.8522642 12.0771771 11.8522642 13 14 C11.31285762 21.17665043 5.39935768 28.00369014 1.31738281 34.03320312 C0.24781053 35.63002935 -0.77759456 37.25637549 -1.7890625 38.890625 C-4.33848203 42.52518208 -5.89604941 43.78750247 -10.328125 44.640625 C-15.39873789 44.87400049 -20.46350997 45.100186 -24.6875 41.9375 C-28.45898001 37.14670107 -30.69564048 32.5269219 -30.40625 26.29296875 C-28.7487356 16.93757495 -23.66314947 8.64990265 -17 2 C-12.02162491 -1.33992253 -5.71470581 -0.78245361 0 0 Z " fill="#FFCA54" transform="translate(123,286)"/>
<path d="M0 0 C4.46885113 2.45193602 8.14434838 5.13346266 10 10 C11.04361551 17.02620208 9.75969424 23.00903321 6 29 C1.61621908 34.77914885 -4.08602786 38.79341315 -11 41 C-16.48677384 41.72649591 -21.27919497 41.54341211 -26.5625 39.875 C-31.12648173 36.36424483 -32.49255142 31.41724865 -33.30859375 25.921875 C-33.63788153 20.37387486 -32.55793462 17.15813689 -28.96484375 12.9140625 C-21.4135698 5.5579507 -10.92822292 -1.73463856 0 0 Z " fill="#FFCA54" transform="translate(876,913)"/>
<path d="M0 0 C2.87102524 1.4568472 4.78663956 3.24165945 6.77734375 5.74609375 C8.60836543 11.88540174 9.60860865 18.75938893 6.65625 24.68359375 C-0.49707679 33.46657532 -11.24758165 38.85526372 -22.22265625 40.87109375 C-26.70223839 40.01330143 -29.93463576 37.47599676 -33.16015625 34.30859375 C-36.48364563 29.28546974 -36.04124886 23.0494628 -35.16015625 17.30859375 C-33.38645525 13.92747622 -31.07454603 11.7372519 -28.16015625 9.30859375 C-27.41507813 8.67050781 -26.67 8.03242188 -25.90234375 7.375 C-18.01095634 0.94151298 -10.38291746 -3.32328461 0 0 Z " fill="#FFCA54" transform="translate(268.16015625,126.69140625)"/>
<path d="M0 0 C7.74062953 6.86101254 15.05605982 16.49063651 16.11328125 27.07421875 C15.73145306 30.60920874 15.07236754 32.35923333 13.0625 35.25 C12.56363281 35.99894531 12.06476563 36.74789062 11.55078125 37.51953125 C8.76137297 40.49046285 6.05196654 41.27451729 2.06640625 41.7734375 C-6.1303813 41.88970399 -9.88878855 39.73067325 -15.8125 34.1875 C-22.26998325 27.54388087 -25.56753766 21.24369025 -25.47265625 11.9453125 C-25.10334199 7.78566772 -23.39280571 4.96124094 -20.9375 1.6875 C-15.03310248 -2.68612779 -6.48704358 -3.11877095 0 0 Z " fill="#FFCA54" transform="translate(160.25,832.5625)"/>
<path d="M0 0 C3.7459567 2.26775826 7.02171695 5.04343389 9 9 C9.35572345 14.54510089 8.42215283 19.07994474 6.8125 24.3125 C6.58691406 25.05580566 6.36132812 25.79911133 6.12890625 26.56494141 C1.69235489 40.72185355 1.69235489 40.72185355 -3.4375 45.0625 C-10.14464233 47.51633256 -14.57640628 46.89180234 -21 44 C-24.51245768 41.6832726 -26.39531405 39.85404922 -28 36 C-29.59666737 25.91871649 -25.97651453 14.87517042 -20.29296875 6.5859375 C-14.91520967 -0.01034706 -8.14773294 -1.39675422 0 0 Z " fill="#FFCA54" transform="translate(91,351)"/>
<path d="M0 0 C8.03916963 7.35009795 8.03916963 7.35009795 8.33203125 12.58203125 C6.65833136 24.16536022 0.12097839 33.6830558 -8.8125 41 C-14.78534824 42.99094941 -21.28514964 42.65550435 -27.08203125 40.15625 C-30.50029918 37.8722606 -31.77932048 34.88886204 -32.8125 31 C-34.07291512 22.95735114 -32.44176641 16.64989309 -27.8125 10 C-20.24943209 1.05561227 -11.95098087 -4.24923764 0 0 Z " fill="#FFCA54" transform="translate(164.8125,227)"/>
<path d="M0 0 C6.61564174 0 9.90404938 0.09531056 15 4 C18.37541189 8.0025376 19.31190008 11.94994832 19.0625 17.125 C18.45457426 20.93622674 17.49955149 23.89159201 14.73046875 26.75 C10.45944047 29.83516716 5.2775132 32 0 32 C0 21.44 0 10.88 0 0 Z " fill="#FFCA54" transform="translate(678,1014)"/>
<path d="M0 0 C5.9115984 1.9705328 8.92528964 3.53973133 12.1171875 8.86328125 C13.95961289 13.32260289 13.79105645 18.49419845 12.34765625 23.06640625 C9.9077611 27.91478158 6.73503234 29.8078554 2 32 C1.34 32 0.68 32 0 32 C0 21.44 0 10.88 0 0 Z " fill="#FFCA54" transform="translate(678,49)"/>
</svg>
