<?xml version="1.0" encoding="UTF-8"?>
<svg version="1.1" xmlns="http://www.w3.org/2000/svg" width="1080" height="1081">
<path d="M0 0 C0.89141693 0.00021149 1.78283386 0.00042297 2.70126343 0.00064087 C18.14718963 0.03700612 32.96922749 1.19873426 48.125 4.375 C49.01300293 4.55691895 49.90100586 4.73883789 50.81591797 4.92626953 C105.43610197 16.46487363 154.06820413 48.2030682 194.421875 85.85546875 C197.01927365 88.27645448 199.65763256 90.64237999 202.3125 93 C209.74491565 99.68202753 216.70298939 106.71751687 223.125 114.375 C223.5679541 114.89352539 224.0109082 115.41205078 224.46728516 115.94628906 C249.23748254 145.02752374 265.16473026 176.4750682 274.98095703 213.18457031 C276.50143704 218.85521511 278.03980065 224.52993771 279.953125 230.08203125 C280.33065918 231.19735229 280.33065918 231.19735229 280.71582031 232.33520508 C284.1112513 237.25010908 291.38172063 239.51436492 296.7265625 241.9140625 C297.43727905 242.23660507 298.14799561 242.55914764 298.88024902 242.89146423 C300.39094064 243.57692585 301.90224621 244.26103579 303.41412354 244.94387817 C307.35344173 246.72496548 311.28552625 248.52191144 315.21875 250.31640625 C316.76167546 251.01978898 318.30464315 251.72307909 319.84765625 252.42626953 C320.57581543 252.7581427 321.30397461 253.09001587 322.05419922 253.4319458 C323.9248777 254.28386319 325.79637462 255.13398283 327.66796875 255.98388672 C330.53433964 257.28984774 333.39331722 258.61051442 336.25 259.9375 C337.03971191 260.29344238 337.82942383 260.64938477 338.64306641 261.01611328 C352.80306784 267.6562186 362.51332922 277.95217392 367.94140625 292.57421875 C371.19780607 303.80082792 368.73302436 315.61466205 363.625 325.875 C360.54344946 331.1512158 356.69179052 335.52972561 352.45751953 339.90258789 C350.23288111 342.21159069 348.03120711 344.5391438 345.84863281 346.88793945 C335.08159639 358.4599051 323.99038472 369.69733824 312.81396484 380.87133789 C310.24086366 383.44433633 307.67479162 386.02422942 305.11028481 388.60579014 C303.09406104 390.6332161 301.07322355 392.65599614 299.05112839 394.67756462 C297.65134354 396.07906423 296.25608185 397.48507697 294.86099243 398.89125061 C287.45994711 406.26607969 279.94424755 413.6290411 270.25 417.8125 C269.18007813 418.28558594 268.11015625 418.75867188 267.0078125 419.24609375 C257.51489477 422.96351004 245.06042118 423.05039156 235.5625 419.3125 C222.20762274 412.71795371 213.92637285 402.10083781 207.5625 388.875 C207.06999756 387.87178711 206.57749512 386.86857422 206.07006836 385.83496094 C200.21633018 373.75251202 194.83600878 361.44668421 189.47265625 349.140625 C189.03583023 348.13944641 189.03583023 348.13944641 188.59017944 347.11804199 C186.80576488 343.00664708 185.11642552 338.86536617 183.453125 334.703125 C180.04012285 326.47845219 174.50365148 319.76551177 166.2421875 316.09375 C165.54351563 315.8565625 164.84484375 315.619375 164.125 315.375 C162.61292969 314.84326172 162.61292969 314.84326172 161.0703125 314.30078125 C156.15045735 312.93335668 151.1981894 313.03330059 146.125 313.0625 C145.1026123 313.06813965 144.08022461 313.0737793 143.02685547 313.07958984 C98.4847708 313.78883634 70.81434736 344.51339149 41.44941902 373.91625547 C38.82241222 376.54583793 36.1929167 379.17293014 33.56384277 381.80044556 C29.16153609 386.20094771 24.76130888 390.60352087 20.36230469 395.00732422 C15.29656729 400.07852472 10.22720593 405.14608121 5.15599489 410.21180761 C0.76905596 414.59419447 -3.61591399 418.97854433 -7.99927187 423.36451304 C-10.60333936 425.97012877 -13.20805223 428.57508973 -15.81455994 431.17826462 C-18.71454163 434.07479475 -21.6103821 436.97543193 -24.50585938 439.87646484 C-25.35479767 440.72337891 -26.20373596 441.57029297 -27.07839966 442.44287109 C-31.34800397 446.72760607 -35.46972214 451.07837532 -39.39985847 455.67767048 C-41.59517545 458.20364934 -43.94483027 460.52106609 -46.3359375 462.86328125 C-47.31132129 463.8260469 -48.28657831 464.788941 -49.26171875 465.75195312 C-50.76752777 467.23277255 -52.27494005 468.7118965 -53.78466797 470.1887207 C-55.26444651 471.63839161 -56.73801504 473.0941496 -58.2109375 474.55078125 C-59.08282715 475.40583252 -59.9547168 476.26088379 -60.85302734 477.1418457 C-63.06997222 479.28936991 -63.06997222 479.28936991 -63.875 482.375 C-61.04597124 485.23346007 -58.21099221 488.08594984 -55.375 490.9375 C-54.18777344 492.13729492 -54.18777344 492.13729492 -52.9765625 493.36132812 C-49.36873549 496.98394131 -45.7554745 500.54012701 -41.875 503.87109375 C-36.24878113 508.70568736 -31.1411445 514.0644551 -25.94140625 519.34765625 C-25.14605469 520.15074219 -24.35070312 520.95382812 -23.53125 521.78125 C-22.82806641 522.49603516 -22.12488281 523.21082031 -21.40039062 523.94726562 C-19.39832127 525.87191543 -17.37222026 527.68046231 -15.26612854 529.4858551 C-10.685619 533.48426206 -6.38391173 537.72546443 -2.09155273 542.02905273 C-1.25306793 542.86578522 -0.41458313 543.7025177 0.4493103 544.56460571 C3.1991832 547.31010492 5.94541427 550.05921334 8.69140625 552.80859375 C10.61339299 554.73035727 12.5359783 556.65152166 14.45848083 558.57276917 C18.4789203 562.59139574 22.49726154 566.61211132 26.5144043 570.6340332 C31.14091429 575.26598411 35.77101535 579.89432189 40.40299755 584.52080005 C44.39914261 588.51238883 48.3933128 592.50594589 52.38587612 596.50111729 C54.76201195 598.87880211 57.13899015 601.25562603 59.51736641 603.63107109 C62.17099434 606.28214558 64.82137202 608.93642864 67.47094727 611.59155273 C68.24672623 612.36530746 69.02250519 613.13906219 69.8217926 613.93626404 C70.55188538 614.66917664 71.28197815 615.40208923 72.03419495 616.1572113 C72.65891976 616.78231315 73.28364458 617.40741499 73.92730045 618.05145931 C75.80875948 620.04065142 77.60113929 622.06870904 79.389678 624.14051914 C83.08531401 628.38594538 86.99190806 632.37596232 90.98095703 636.34448242 C91.74153978 637.10521403 92.50212254 637.86594564 93.28575325 638.64972973 C95.81573868 641.17902486 98.34927199 643.70473506 100.8828125 646.23046875 C102.70519911 648.05093471 104.52735708 649.87162958 106.3493042 651.6925354 C110.26383073 655.60418541 114.18012555 659.51405761 118.09759521 663.42276001 C123.76961205 669.082177 129.43834798 674.7448714 135.10621381 680.40844524 C144.31449393 689.60966957 153.52464019 698.80902334 162.73632812 708.00683594 C163.28678779 708.55646779 163.83724745 709.10609964 164.40438771 709.672387 C168.31120856 713.573308 172.21809648 717.47416181 176.125 721.375 C180.5879369 725.83100834 185.05084344 730.28704708 189.51367188 734.74316406 C190.33834831 735.56659831 190.33834831 735.56659831 191.17968488 736.40666759 C200.35855514 745.57183465 209.53544861 754.73897858 218.71094322 763.90752506 C224.36228016 769.5543916 230.01538411 775.19947794 235.67081118 780.8422482 C240.00610104 785.16808796 244.3388264 789.49648785 248.67063141 793.82581711 C250.44384816 795.59716503 252.21792758 797.36764987 253.99294281 799.13719559 C256.42064048 801.55764912 258.8452023 803.98120252 261.26904297 806.40551758 C261.96759462 807.10047427 262.66614628 807.79543097 263.38586617 808.51144695 C267.28570003 812.41943211 271.00070197 816.43121394 274.59267902 820.62458229 C276.83820259 823.1897134 279.24598526 825.51862404 281.70703125 827.87890625 C282.72828948 828.86828027 283.74860254 829.85863067 284.76806641 830.84985352 C285.28701477 831.35412872 285.80596313 831.85840393 286.34063721 832.37796021 C304.9466798 850.54912931 318.05365827 869.07882343 318.5 895.9375 C318.48360729 921.08625544 307.83497745 941.63256391 290.234375 959.26953125 C273.50344458 974.84054423 253.04968226 980.08927173 230.86328125 979.6796875 C208.27200346 978.78564184 188.9803243 965.76246049 173.54199219 950.1484375 C172.65430145 949.26279114 171.76661072 948.37714478 170.85202026 947.46466064 C168.45001918 945.06512848 166.05482163 942.65919175 163.66271114 940.24982452 C161.14075551 937.7126638 158.61052818 935.18377565 156.08135986 932.65380859 C151.84020773 928.40898178 147.60469776 924.15859456 143.37304688 919.90429688 C137.96117119 914.46351502 132.54003758 909.0320566 127.11591721 903.60348511 C122.42386484 898.90743648 117.73606826 894.20714597 113.04895115 889.50617218 C111.55534401 888.0084921 110.06116994 886.51137941 108.56691742 885.01434326 C105.77162537 882.21319246 102.98077638 879.40763997 100.19042969 876.6015625 C99.37261017 875.78262512 98.55479065 874.96368774 97.71218872 874.11993408 C96.94436066 873.34639587 96.17653259 872.57285767 95.38543701 871.77587891 C94.72773693 871.11520416 94.07003685 870.45452942 93.39240646 869.77383423 C91.46714219 867.73697409 89.6279383 865.66255475 87.79514694 863.54346466 C84.39008806 859.63085089 80.81956806 855.93433717 77.14221191 852.27868652 C76.14222034 851.27847166 76.14222034 851.27847166 75.12202692 850.25805044 C72.90989041 848.04660285 70.69421132 845.83874049 68.47851562 843.63085938 C66.88272688 842.03699178 65.28716713 840.44289489 63.69181824 838.84858704 C60.26661477 835.42653541 56.83986606 832.00604149 53.41191101 828.58674622 C47.98787381 823.17627103 42.56768822 817.76194832 37.14807129 812.3470459 C29.54691463 804.75321232 21.94436984 797.1607726 14.34033203 789.56982422 C13.85865651 789.08897651 13.37698098 788.60812879 12.88070923 788.11270994 C9.46218948 784.70008988 6.04360256 781.28753711 2.625 777.875 C-1.28015703 773.97677169 -5.18528364 770.07851292 -9.09033203 766.18017578 C-9.81195712 765.45979288 -9.81195712 765.45979288 -10.54816049 764.72485679 C-18.583461 756.70326513 -26.61675936 748.67967183 -34.64870119 740.65471697 C-40.03272081 735.27567003 -45.41916721 729.89906881 -50.80750275 724.5243454 C-54.16253364 721.17679078 -57.51547626 717.82715046 -60.86786461 714.47694969 C-62.41854756 712.92813358 -63.97009215 711.38017958 -65.52257729 709.83316994 C-67.64812789 707.71487824 -69.77052504 705.5934741 -71.89221191 703.47131348 C-72.50127176 702.86584859 -73.1103316 702.26038371 -73.73784781 701.63657141 C-77.42153581 697.94411556 -80.89239535 694.11722296 -84.30410969 690.17256737 C-86.14076231 688.07088859 -88.0558061 686.07108289 -90.03068542 684.09906006 C-90.77497299 683.35339783 -91.51926056 682.6077356 -92.28610229 681.83947754 C-93.07751617 681.05165894 -93.86893005 680.26384033 -94.68432617 679.45214844 C-95.96369301 678.17256256 -95.96369301 678.17256256 -97.26890564 676.86712646 C-99.58506465 674.55154052 -101.90341218 672.2381742 -104.22279143 669.92581463 C-106.65972485 667.4951839 -109.09377748 665.06167161 -111.52815247 662.628479 C-116.13230569 658.0274218 -120.7389985 653.4289162 -125.34663421 648.83134675 C-130.58007649 643.60909118 -135.81067371 638.38398997 -141.04103124 633.15864515 C-149.98198145 624.2263608 -158.92505804 615.29621111 -167.8704834 606.3684082 C-168.60631149 605.63402527 -169.34213959 604.89964233 -170.1002655 604.14300537 C-171.05451054 603.19070856 -171.05451054 603.19070856 -172.02803326 602.21917343 C-173.97803187 600.27212396 -175.92670772 598.32375677 -177.875 596.375 C-178.68130859 597.18654541 -179.48761719 597.99809082 -180.31835938 598.83422852 C-183.3424333 601.87655509 -186.36994062 604.91544591 -189.3984375 607.95336914 C-190.70274584 609.26267174 -192.00615108 610.57287469 -193.30859375 611.8840332 C-195.19287751 613.78059948 -197.08050611 615.67378363 -198.96875 617.56640625 C-199.53992554 618.14274307 -200.11110107 618.7190799 -200.69958496 619.31288147 C-203.51288127 622.12655724 -206.3671534 624.8233534 -209.39868164 627.40087891 C-216.06215272 633.16946132 -222.17924046 639.53582804 -228.40234375 645.76953125 C-229.80084388 647.16735689 -231.19949235 648.56503413 -232.59828186 649.96257019 C-235.51384378 652.87666488 -238.42760674 655.79254314 -241.34008789 658.7097168 C-245.0782137 662.45357122 -248.82085408 666.19287543 -252.56482601 669.93088245 C-255.44643063 672.80888218 -258.32566005 675.68924859 -261.20416451 678.57034874 C-262.58417882 679.95103088 -263.96493841 681.33096851 -265.3464489 682.71015358 C-267.26846585 684.62964179 -269.18726672 686.55228721 -271.10522461 688.47583008 C-271.96462395 689.33219307 -271.96462395 689.33219307 -272.84138489 690.20585632 C-277.08568553 694.47317691 -277.94420388 696.2602622 -278.11376953 702.29101562 C-278.74239465 722.72341349 -286.56534378 734.56819863 -300.83984375 748.66455078 C-301.93360695 749.75582473 -303.02669695 750.84777376 -304.11917114 751.94033813 C-306.45609928 754.27457963 -308.79766349 756.60402684 -311.14309692 758.92972183 C-314.85801079 762.61337716 -318.56230278 766.3075955 -322.26538086 770.00314331 C-328.12651871 775.84984032 -333.99483625 781.68927084 -339.86619091 787.52570617 C-350.3763287 797.97379261 -360.87426041 808.43413653 -371.3693819 818.89730442 C-375.04659871 822.56275164 -378.72697336 826.22498927 -382.41009521 829.88450265 C-384.70635635 832.16685347 -387.00056569 834.4512591 -389.29433823 836.73611069 C-390.35155119 837.78829189 -391.4096451 838.83958886 -392.4687233 839.88989258 C-399.01461718 846.35892344 -399.01461718 846.35892344 -405.18666077 853.18070984 C-410.71377649 859.62490048 -416.85629175 865.51284262 -422.85327148 871.5144043 C-424.27006741 872.93583533 -425.6866678 874.3574613 -427.10308838 875.77926636 C-430.9332089 879.62243922 -434.76660043 883.46233235 -438.60102344 887.30121207 C-440.99913803 889.70226676 -443.39666832 892.10390342 -445.79402351 894.50571632 C-453.30313543 902.0284793 -460.81422996 909.54925426 -468.32823509 917.06712979 C-476.98828663 925.73166753 -485.64174987 934.40271489 -494.28956741 943.07946271 C-500.98680944 949.79832814 -507.68981185 956.51141105 -514.39720589 963.22014171 C-518.39833509 967.22231771 -522.39700933 971.22687445 -526.38970757 975.237463 C-530.1432157 979.00746485 -533.90383773 982.77022288 -537.66998291 986.52759933 C-539.04799455 987.90484153 -540.42346021 989.28463676 -541.79612923 990.6672039 C-543.6756255 992.5594524 -545.56423266 994.4421319 -547.45530701 996.32279968 C-547.99141694 996.86696602 -548.52752687 997.41113236 -549.07988256 997.97178859 C-557.19332829 1005.98175852 -566.35352101 1010.36777895 -577.8125 1010.8125 C-595.56419391 1010.2669934 -607.26815855 997.44342852 -618.984375 985.6640625 C-620.32290754 984.32755558 -621.66188475 982.99149387 -623.00128174 981.65585327 C-625.79302331 978.86851048 -628.57932881 976.07587666 -631.36181641 973.27929688 C-634.91096201 969.7130445 -638.47343219 966.16045592 -642.04009628 962.61173439 C-644.80292559 959.85979497 -647.55850939 957.10068922 -650.31201935 954.33942795 C-651.62222028 953.02724025 -652.93461321 951.71723713 -654.24932098 950.40956497 C-665.77985972 938.92724417 -676.16986325 928.00391892 -676.375 910.875 C-676.08635735 890.46352411 -660.0122423 878.23937468 -646.49609375 864.8359375 C-644.79742486 863.14355081 -643.09927795 861.45064005 -641.40162659 859.75723267 C-636.95181735 855.32065953 -632.49646139 850.88970324 -628.03942871 846.46038818 C-620.9025408 839.36678996 -613.77245952 832.26636657 -606.64564705 825.16264725 C-604.16708755 822.69424285 -601.68510779 820.22931729 -599.20274353 817.76473999 C-597.67207253 816.24090203 -596.14151348 814.7169516 -594.61108398 813.19287109 C-593.92881241 812.51733688 -593.24654083 811.84180267 -592.54359436 811.14579773 C-589.50395199 808.11328755 -586.56518439 805.05561356 -583.78334045 801.78433228 C-578.08488443 795.18998618 -571.77627199 789.15458588 -565.60546875 783.0078125 C-564.15746119 781.56172649 -562.7096829 780.11541088 -561.26211548 778.66888428 C-558.15612658 775.56604521 -555.04859362 772.46476398 -551.93984985 769.36468506 C-547.01988155 764.45828928 -542.10377447 759.54803677 -537.18823242 754.63720703 C-525.86680675 743.32780229 -514.54036689 732.02342362 -503.21388245 720.71908569 C-492.82912544 710.35453029 -482.44543982 699.98890749 -472.06580448 689.61922264 C-467.18355934 684.74194701 -462.29888923 679.86711728 -457.412323 674.99417114 C-454.36867364 671.95800343 -451.32711753 668.91974531 -448.28611374 665.88092804 C-446.88056168 664.47724119 -445.47414884 663.07441564 -444.06679153 661.67253876 C-437.4495151 655.08021162 -430.90860405 648.5141574 -424.875 641.375 C-421.68771142 637.9580112 -418.41018034 634.63523957 -415.125 631.3125 C-413.87976563 630.02375977 -413.87976563 630.02375977 -412.609375 628.70898438 C-401.65534376 617.64507473 -391.25880559 611.44752427 -375.75 610.9375 C-374.98550537 610.93443848 -374.22101074 610.93137695 -373.43334961 610.92822266 C-372.68964111 610.91194824 -371.94593262 610.89567383 -371.1796875 610.87890625 C-370.51952637 610.87705322 -369.85936523 610.8752002 -369.17919922 610.87329102 C-362.4177529 609.41110497 -357.76844586 604.67700049 -353.12890625 599.88671875 C-352.51409897 599.26529495 -351.89929169 598.64387115 -351.26585388 598.00361633 C-349.31575824 596.03029183 -347.37615175 594.04706274 -345.4375 592.0625 C-343.50073998 590.09039853 -341.56175258 588.12056432 -339.61985779 586.15351868 C-338.41764685 584.93465392 -337.21855195 583.71270386 -336.02333069 582.48698425 C-333.13879935 579.55195271 -330.20081415 576.75454918 -327.07788086 574.07348633 C-322.05468403 569.73337113 -317.42022246 565.02597304 -312.75 560.3125 C-311.7944063 559.35248625 -310.83850816 558.39277547 -309.88232422 557.43334961 C-306.8770245 554.41673631 -303.87570388 551.39618404 -300.875 548.375 C-297.39206989 544.86829849 -293.90743498 541.36332534 -290.41851807 537.86257935 C-289.03846867 536.4761466 -287.66152256 535.08662702 -286.28466797 533.69702148 C-281.82827409 529.22340036 -277.32022384 524.89014853 -272.51623535 520.79014587 C-270.36688056 518.93687689 -268.36332489 516.96133069 -266.375 514.9375 C-265.7046875 514.25816406 -265.034375 513.57882812 -264.34375 512.87890625 C-263.8590625 512.38261719 -263.374375 511.88632812 -262.875 511.375 C-266.19999972 503.42788529 -274.59377044 497.51144293 -281.01171875 492.01953125 C-283.49761183 489.82548306 -285.79334845 487.46841529 -288.11328125 485.1015625 C-289.86346344 483.38630634 -291.68390835 481.82259425 -293.5625 480.25 C-300.89952253 473.92645724 -307.34764905 466.4613618 -313.5 459 C-320.44749246 451.08153269 -328.44593889 446.73911593 -338.875 445.375 C-347.76600603 445.42790109 -356.16680478 447.15380189 -364.75 449.3125 C-374.12157615 451.56751054 -383.26153663 453.49898026 -392.875 454.375 C-394.03644531 454.48457031 -395.19789063 454.59414063 -396.39453125 454.70703125 C-450.91614456 459.21543367 -504.60779344 441.91881495 -546.875 407.375 C-550.07560484 404.61799086 -553.16389312 401.75675338 -556.2265625 398.84765625 C-558.12304108 397.07705014 -560.00904444 395.41620456 -562.01171875 393.77734375 C-564.26967615 391.88287745 -566.16886421 390.10877948 -568.0625 387.875 C-568.94035156 386.84052734 -568.94035156 386.84052734 -569.8359375 385.78515625 C-570.50882813 384.98980469 -571.18171875 384.19445312 -571.875 383.375 C-572.71289062 382.42496094 -573.55078125 381.47492188 -574.4140625 380.49609375 C-585.40430717 367.95516266 -594.12875441 354.1152218 -601.875 339.375 C-602.21772949 338.72370117 -602.56045898 338.07240234 -602.91357422 337.40136719 C-618.3773643 307.51013486 -625.36093701 273.69747758 -625.1875 240.1875 C-625.18534485 239.4287558 -625.1831897 238.6700116 -625.18096924 237.88827515 C-625.06844472 213.04864968 -620.71800766 189.31698716 -612.375 165.875 C-612.11493164 165.12839111 -611.85486328 164.38178223 -611.58691406 163.61254883 C-608.98181271 156.68061095 -605.11353954 150.54012464 -598.875 146.375 C-593.53366198 144.59455399 -589.40624697 144.77966948 -584.24346924 146.78689575 C-578.47981477 149.82536679 -574.20487869 154.5037685 -569.66699219 159.09716797 C-568.66823053 160.09378034 -567.66860274 161.08952534 -566.66818237 162.08447266 C-563.96918875 164.77382271 -561.28277934 167.47542252 -558.59880733 170.17975378 C-555.78059434 173.01561516 -552.95175974 175.8408458 -550.12432861 178.66751099 C-545.38007207 183.41363684 -540.64360261 188.16742138 -535.91210938 192.92626953 C-530.44964863 198.42019515 -524.97679086 203.90358336 -519.4978435 209.3810643 C-513.65180352 215.22575116 -507.81341312 221.07803386 -501.97723484 226.93256617 C-500.30032966 228.61372408 -498.62201661 230.29346539 -496.94338226 231.97289658 C-494.30219185 234.61610297 -491.66618556 237.26437666 -489.03403091 239.9165802 C-487.61158787 241.34760627 -486.18430526 242.77381675 -484.75686646 244.19985962 C-480.63139013 248.3666302 -476.84968972 252.30565735 -473.875 257.375 C-470.83920193 256.01796597 -468.75788958 254.4995168 -466.42675781 252.13793945 C-465.7721759 251.47997879 -465.11759399 250.82201813 -464.44317627 250.14411926 C-463.39622589 249.07697945 -463.39622589 249.07697945 -462.328125 247.98828125 C-461.59809265 247.25304733 -460.8680603 246.51781342 -460.11590576 245.76029968 C-457.78080512 243.4073975 -455.45247553 241.04794328 -453.125 238.6875 C-450.81100133 236.34573528 -448.4955138 234.00549486 -446.17694092 231.66825867 C-444.73597625 230.21520192 -443.29769026 228.75948192 -441.86260986 227.3006134 C-437.92192182 223.32135122 -433.86886168 219.55418557 -429.62664795 215.89833069 C-427.60855225 214.14328218 -425.69503098 212.30949554 -423.8125 210.41015625 C-422.83603516 209.42885742 -422.83603516 209.42885742 -421.83984375 208.42773438 C-421.19144531 207.77095703 -420.54304687 207.11417969 -419.875 206.4375 C-418.85599609 205.41172852 -418.85599609 205.41172852 -417.81640625 204.36523438 C-416.16691641 202.70412841 -414.5198332 201.04071487 -412.875 199.375 C-413.61105469 198.64023438 -414.34710938 197.90546875 -415.10546875 197.1484375 C-416.75926278 195.4923109 -418.40913651 193.83223292 -420.05078125 192.1640625 C-420.75589844 191.44992188 -421.46101562 190.73578125 -422.1875 190 C-423.23357422 188.93652344 -423.23357422 188.93652344 -424.30078125 187.8515625 C-426.31669603 185.912124 -428.35342565 184.08909139 -430.47445679 182.27058411 C-435.11937248 178.2163288 -439.49218095 173.92003685 -443.85791016 169.5690918 C-444.71750839 168.71606476 -445.57710663 167.86303772 -446.4627533 166.98416138 C-449.28274861 164.18374379 -452.09884775 161.37943945 -454.9140625 158.57421875 C-455.89087284 157.60146371 -456.86771403 156.62873965 -457.84458542 155.65604591 C-462.4325711 151.08705061 -467.01818231 146.51568862 -471.60086691 141.94137639 C-476.86394081 136.68808179 -482.13520187 131.44318441 -487.41352808 126.20521611 C-491.51340324 122.13560254 -495.60547535 118.0582459 -499.6918987 113.97512561 C-502.12397341 111.5453878 -504.55915839 109.11898629 -507.00270462 106.70078087 C-509.72831519 103.9996008 -512.44093116 101.28597321 -515.15087891 98.5690918 C-515.94895462 97.78382614 -516.74703033 96.99856049 -517.56929016 96.1894989 C-523.36785631 90.33692648 -529.42061721 83.55227137 -530.9375 75.1875 C-530.85072923 69.89448293 -529.88768206 66.4372716 -526.22021484 62.67944336 C-521.57683514 58.5898452 -516.93316259 55.33487477 -511.4375 52.5 C-510.63038574 52.08145752 -509.82327148 51.66291504 -508.99169922 51.23168945 C-459.36001072 26.350331 -401.22223368 24.18570344 -348.8125 41.125 C-308.53398438 54.78350496 -271.75438434 80.49415863 -246.20263672 114.60302734 C-245.34048982 115.75371917 -244.47262877 116.90015984 -243.59814453 118.04150391 C-209.80472699 162.20650528 -197.74113124 220.82479336 -204.875 275.375 C-206.82391161 288.27640891 -209.54928321 300.93406772 -214.08300781 313.18920898 C-215.92318467 318.38812629 -216.23579929 321.97084216 -214.875 327.375 C-212.9055709 330.1483196 -212.9055709 330.1483196 -210.25 332.375 C-207.12582775 335.27791359 -204.12401562 338.11301017 -201.375 341.375 C-196.07899625 347.54328672 -190.32725658 353.28476493 -184.16381836 358.58398438 C-180.12281336 362.11090883 -176.30686272 365.81379086 -172.53125 369.62109375 C-171.54940735 370.60505882 -171.54940735 370.60505882 -170.54772949 371.60890198 C-168.48776177 373.67440145 -166.43132634 375.74337595 -164.375 377.8125 C-162.9663795 379.22614434 -161.55752733 380.63955786 -160.1484375 382.05273438 C-156.72127867 385.49083149 -153.29727981 388.93204656 -149.875 392.375 C-142.72347133 388.89610235 -137.61786665 383.18216758 -132.32402039 377.34866333 C-126.44490355 370.92897402 -120.36585582 364.74234215 -114.19067383 358.60888672 C-113.08013206 357.50191516 -111.96983395 356.39469911 -110.85975647 355.28726196 C-108.49757573 352.93155411 -106.13388855 350.5773728 -103.76899147 348.22439194 C-100.01952765 344.49346585 -96.2746263 340.75798167 -92.53044128 337.02175903 C-81.89267952 326.40796891 -71.24889135 315.80023427 -60.60083008 305.19677734 C-54.69799476 299.31858896 -48.79883875 293.4367323 -42.90350932 287.55101597 C-39.19198578 283.84598042 -35.47603309 280.1454668 -31.75657427 276.44839835 C-29.43555221 274.13920966 -27.11882273 271.82575006 -24.80321312 269.5111351 C-23.73963089 268.44967711 -22.67435588 267.38991175 -21.60714722 266.33209991 C-1.04168454 245.94056004 17.76217655 220.11379504 18.4375 189.9375 C18.24918757 170.10192429 8.76379693 155.2196618 -4.5625 141.375 C-36.81225001 110.00478863 -82.32427997 93.97418839 -124.984375 82.75390625 C-125.98235107 82.4899707 -126.98032715 82.22603516 -128.00854492 81.95410156 C-129.9015107 81.45865165 -131.79738954 80.97414452 -133.6965332 80.50292969 C-139.43777728 79.01496037 -144.44032161 77.35650455 -148.3359375 72.5859375 C-151.02433912 67.18615646 -151.79961934 62.36535293 -150.875 56.375 C-144.60839648 39.85395437 -118.0829857 29.28059979 -102.96923828 22.31494141 C-70.10583215 7.56510303 -35.9989641 -0.07948834 0 0 Z M-85.875 55.375 C-83.43976791 57.81023209 -81.41878782 58.41841793 -78.1796875 59.58984375 C-77.00083984 60.02288818 -75.82199219 60.45593262 -74.60742188 60.90209961 C-73.97892334 61.13138153 -73.3504248 61.36066345 -72.70288086 61.59689331 C-38.11908447 74.26965618 -5.4776545 90.42119073 21.125 116.375 C21.90875 117.096875 22.6925 117.81875 23.5 118.5625 C42.07331908 136.10396802 53.16335266 160.68202521 54.29296875 186.1640625 C54.41877972 210.87333718 47.40808068 233.66071731 34.05761719 254.41625977 C31.09607438 259.06538134 31.09607438 259.06538134 30.125 264.375 C32.53289251 269.37393945 36.41775592 273.00804609 40.27734375 276.8984375 C40.97388565 277.60400787 41.67042755 278.30957825 42.38807678 279.03652954 C43.85714379 280.52006236 45.32900247 282.0008353 46.8034668 283.47900391 C49.06349887 285.75100416 51.3042064 288.04099847 53.54492188 290.33203125 C54.97541174 291.77197746 56.40701454 293.21081906 57.83984375 294.6484375 C58.50974838 295.33787445 59.17965302 296.0273114 59.86985779 296.73764038 C60.50053665 297.36224152 61.13121552 297.98684265 61.78100586 298.63037109 C62.33155136 299.18598724 62.88209686 299.74160339 63.44932556 300.3140564 C65.08965454 301.60154163 65.08965454 301.60154163 67.18676758 301.11553955 C69.5893151 300.19759935 71.8192822 299.09342014 74.09765625 297.8984375 C106.49323595 281.14904506 139.7125562 270.31139254 176.125 281.375 C192.26582163 286.62846607 205.10231016 297.05482609 213.05078125 312.09765625 C216.02971686 318.05410419 218.48001404 324.24285493 220.98095703 330.41088867 C224.54498603 339.14944481 228.43057393 347.70837159 232.4375 356.25 C232.73400452 356.88357422 233.03050903 357.51714844 233.33599854 358.16992188 C239.20493686 373.31911649 239.20493686 373.31911649 249.125 385.375 C252.60321938 385.63750712 254.82579692 385.30626286 257.71270752 383.23693848 C265.07929467 376.68693737 272.00706263 369.67710924 278.984375 362.71875 C279.68916237 362.01679001 280.39394974 361.31483002 281.1200943 360.59159851 C284.84269109 356.88391339 288.56246389 353.17342332 292.27978516 349.46044922 C296.10836139 345.6373763 299.94614299 341.82368501 303.786129 338.01207733 C306.75090835 335.06594627 309.70893461 332.11310467 312.66516876 329.15840149 C314.07721743 327.7493699 315.49175547 326.34282826 316.90886688 324.93888855 C318.89011049 322.97476686 320.86159888 321.00132255 322.83105469 319.02539062 C323.41190323 318.45375687 323.99275177 317.88212311 324.59120178 317.29316711 C328.57555379 313.26778865 332.96857889 308.65984336 333.25 302.75 C330.02986359 295.95193424 321.92495151 293.06446134 315.5 290.0625 C314.43547607 289.55759033 313.37095215 289.05268066 312.27416992 288.5324707 C300.90162628 283.18385013 289.40299896 278.10915082 277.89013672 273.07104492 C270.98236868 270.0424494 264.09151811 266.97462219 257.29296875 263.70703125 C256.19621826 263.18471924 255.09946777 262.66240723 253.96948242 262.12426758 C248.31072128 258.64430675 245.83479866 253.63512955 244.125 247.375 C243.21691434 242.83310348 242.51885471 238.26446339 241.8125 233.6875 C236.40918044 200.9765085 224.21988178 173.08132105 203.125 147.375 C202.48377197 146.58947754 202.48377197 146.58947754 201.82958984 145.78808594 C193.02528376 135.0428528 183.88933915 124.04012802 173.19140625 115.12890625 C171.06937314 113.32778552 169.04034086 111.44237362 167.01098633 109.53808594 C160.62505331 103.56591267 153.93854227 98.09835211 146.98876953 92.79736328 C145.729036 91.83597901 144.47226732 90.87069923 143.21826172 89.90185547 C82.72197729 43.16371975 -14.43581686 10.1923823 -85.875 55.375 Z M-483.875 80.375 C-483.14708598 80.94930787 -482.41917196 81.52361574 -481.66919994 82.11532688 C-473.71959539 88.5441824 -466.41786794 95.68067346 -459.19018555 102.89868164 C-457.82478889 104.25663094 -457.82478889 104.25663094 -456.43180847 105.64201355 C-453.96686283 108.0940139 -451.5051036 110.54918714 -449.04438376 113.0054276 C-447.50196531 114.54489101 -445.9589718 116.08377586 -444.41581154 117.62249565 C-439.5723633 122.45232708 -434.73087784 127.28411303 -429.89229077 132.11881453 C-424.33332898 137.67328507 -418.76786314 143.22112923 -413.19672173 148.76338297 C-408.86843674 153.0700102 -404.54597391 157.38242521 -400.22783691 161.69922727 C-397.65762015 164.26840058 -395.08507729 166.83513188 -392.50641441 169.39583015 C-389.63348314 172.249126 -386.77272763 175.11434158 -383.9128418 177.98071289 C-383.0675592 178.8167807 -382.22227661 179.65284851 -381.35137939 180.51425171 C-370.940744 190.99890032 -370.940744 190.99890032 -369.17578125 198.24609375 C-369.17964844 199.09300781 -369.18351563 199.93992188 -369.1875 200.8125 C-369.16300781 201.65683594 -369.13851562 202.50117188 -369.11328125 203.37109375 C-371.23331038 211.7316189 -378.22923961 218.16525556 -384.171875 224.06005859 C-384.98241333 224.87585388 -385.79295166 225.69164917 -386.62805176 226.53216553 C-389.28624932 229.20347486 -391.95515955 231.86376848 -394.625 234.5234375 C-396.4857901 236.38625027 -398.34613483 238.24950803 -400.20605469 240.1131897 C-404.09423749 244.00680866 -407.98865402 247.89410806 -411.88671875 251.77783203 C-416.38448124 256.25923763 -420.87128848 260.75139439 -425.3526268 265.2492193 C-429.68029456 269.59216542 -434.01637957 273.92660418 -438.3560791 278.2575264 C-440.19547693 280.09492482 -442.03265389 281.93454933 -443.86755371 283.77643967 C-446.43055286 286.34706105 -449.00297844 288.90786382 -451.578125 291.46630859 C-452.33258911 292.2268454 -453.08705322 292.9873822 -453.86437988 293.77096558 C-458.7441391 298.59228456 -462.70276909 302.0168449 -469.75 302.8125 C-479.32126572 302.34512376 -485.43005158 295.37669446 -491.73168945 288.97241211 C-492.69264665 288.01032471 -493.65448929 287.04912102 -494.61714172 286.08872986 C-497.2125941 283.49441929 -499.79557509 280.88801157 -502.37640786 278.27916789 C-505.08504105 275.54541108 -507.80512037 272.82309041 -510.52397156 270.09950256 C-515.6670593 264.9440093 -520.79987351 259.77841345 -525.92902106 254.6090551 C-531.75949277 248.7338662 -537.60132711 242.87003184 -543.44415724 237.00713718 C-554.97371018 225.43752933 -566.49030964 213.85512231 -577.99770069 202.26347256 C-579.62051665 200.63099798 -581.24625191 199.00155307 -582.875 197.375 C-585.52506898 202.09034621 -586.66588419 206.30042757 -587.5 211.5625 C-587.62479736 212.31934082 -587.74959473 213.07618164 -587.87817383 213.85595703 C-595.08363127 258.67610176 -583.65086541 305.4991789 -557.80078125 342.74609375 C-527.41166182 384.23063203 -487.05209998 408.8737953 -436.62890625 418.1953125 C-402.54538749 423.31685712 -370.32024542 416.17330193 -338.8112793 403.5480957 C-335.28674213 402.16949899 -332.14853565 400.94477901 -328.3125 400.9375 C-327.28962891 400.90849609 -327.28962891 400.90849609 -326.24609375 400.87890625 C-320.08336644 402.16830719 -315.43217096 406.38230621 -311.15844727 410.7668457 C-310.63382904 411.29263214 -310.10921082 411.81841858 -309.56869507 412.36013794 C-307.85250126 414.08346286 -306.14708577 415.81705476 -304.44140625 417.55078125 C-303.2381983 418.76213992 -302.03424123 419.97275492 -300.82957458 421.18266296 C-297.66809944 424.36119811 -294.51530271 427.54819521 -291.36474609 430.73754883 C-286.32905577 435.83256512 -281.28065056 440.91497281 -276.23145866 445.99660301 C-274.48061962 447.76125843 -272.73374012 449.52975663 -270.98744202 451.29890442 C-265.95569893 456.38342591 -260.90439269 461.3805218 -255.45542908 466.02412415 C-253.561856 467.64266065 -251.78389558 469.35159581 -250.03125 471.12109375 C-249.42539062 471.73017578 -248.81953125 472.33925781 -248.1953125 472.96679688 C-247.29425781 473.88041992 -247.29425781 473.88041992 -246.375 474.8125 C-245.74335938 475.44865234 -245.11171875 476.08480469 -244.4609375 476.74023438 C-242.92994226 478.28282806 -241.40212333 479.82857314 -239.875 481.375 C-232.32284104 475.20975115 -225.61698698 468.18088431 -218.77514648 461.25463867 C-208.19656288 450.55724728 -208.19656288 450.55724728 -203.90234375 446.8984375 C-197.88954513 441.77520361 -192.4355408 436.03998624 -186.875 430.4375 C-185.70726626 429.26473991 -184.53929926 428.09221202 -183.37109375 426.91992188 C-180.53636766 424.07428311 -177.70481176 421.22552547 -174.875 418.375 C-178.5146453 414.04095909 -182.23887676 409.87436042 -186.25 405.875 C-187.12398438 404.9984375 -187.99796875 404.121875 -188.8984375 403.21875 C-190.96875592 401.19762448 -193.11427383 399.30878856 -195.3203125 397.4375 C-202.71352248 391.02503979 -209.44145175 383.8605455 -216.32080078 376.90869141 C-225.44600782 367.64324527 -225.44600782 367.64324527 -235.0859375 358.92382812 C-238.58164977 355.89751827 -241.8444369 352.63061585 -245.125 349.375 C-246.16527344 348.36566406 -246.16527344 348.36566406 -247.2265625 347.3359375 C-252.53859543 342.06460981 -256.97592712 337.490023 -257.38671875 329.65625 C-257.12457037 323.59363945 -254.9822277 318.42804236 -252.6875 312.875 C-234.30815462 266.08925144 -234.80779341 217.26748871 -254.75 170.98046875 C-265.24987879 147.33702987 -281.58672866 124.61298124 -301.875 108.375 C-302.78121094 107.63121094 -303.68742187 106.88742188 -304.62109375 106.12109375 C-353.72091 66.56125461 -425.7009999 52.29825093 -483.875 80.375 Z M3.30587769 298.96034241 C2.57055817 299.70311935 1.83523865 300.4458963 1.07763672 301.21118164 C-0.17474289 302.46862938 -0.17474289 302.46862938 -1.4524231 303.7514801 C-2.81015335 305.1293998 -2.81015335 305.1293998 -4.1953125 306.53515625 C-5.13684827 307.48296572 -6.07890324 308.43025968 -7.02145386 309.37705994 C-9.51161872 311.88056218 -11.99618211 314.38954489 -14.47918701 316.90014648 C-18.43063642 320.89457228 -22.38853013 324.88257967 -26.35003281 328.867033 C-27.72378487 330.25087861 -29.09388934 331.63834219 -30.46389771 333.02589417 C-34.15081746 336.74101495 -37.82982129 340.40238821 -41.80615234 343.80834961 C-46.63031229 347.94949644 -51.07695148 352.46465532 -55.55091858 356.97575378 C-57.13073133 358.56853491 -58.71382586 360.15799157 -60.29772949 361.7467041 C-63.65966861 365.11997313 -67.01763819 368.49717602 -70.375 371.875 C-74.27097349 375.79471835 -78.16863538 379.71272742 -82.0705719 383.62651062 C-83.61681555 385.17915238 -85.1599738 386.73481403 -86.70300293 388.29064941 C-91.26506571 392.87619783 -95.88256339 397.31138608 -100.79504395 401.51989746 C-104.8803832 405.16359138 -108.69738197 409.09023502 -112.55091858 412.97575378 C-114.13073133 414.56853491 -115.71382586 416.15799157 -117.29772949 417.7467041 C-120.65966861 421.11997313 -124.01763819 424.49717602 -127.375 427.875 C-131.27097349 431.79471835 -135.16863538 435.71272742 -139.0705719 439.62651062 C-140.61681555 441.17915238 -142.1599738 442.73481403 -143.70300293 444.29064941 C-148.26506571 448.87619783 -152.88256339 453.31138608 -157.79504395 457.51989746 C-161.8803832 461.16359138 -165.69738197 465.09023502 -169.55091858 468.97575378 C-171.13073133 470.56853491 -172.71382586 472.15799157 -174.29772949 473.7467041 C-177.65966861 477.11997313 -181.01763819 480.49717602 -184.375 483.875 C-188.27097349 487.79471835 -192.16863538 491.71272742 -196.0705719 495.62651062 C-197.61681555 497.17915238 -199.1599738 498.73481403 -200.70300293 500.29064941 C-205.26506571 504.87619783 -209.88256339 509.31138608 -214.79504395 513.51989746 C-218.8803832 517.16359138 -222.69738197 521.09023502 -226.55091858 524.97575378 C-228.13073133 526.56853491 -229.71382586 528.15799157 -231.29772949 529.7467041 C-234.65966861 533.11997313 -238.01763819 536.49717602 -241.375 539.875 C-245.27097349 543.79471835 -249.16863538 547.71272742 -253.0705719 551.62651062 C-254.61681555 553.17915238 -256.1599738 554.73481403 -257.70300293 556.29064941 C-262.26506571 560.87619783 -266.88256339 565.31138608 -271.79504395 569.51989746 C-275.8803832 573.16359138 -279.69738197 577.09023502 -283.55091858 580.97575378 C-285.13073133 582.56853491 -286.71382586 584.15799157 -288.29772949 585.7467041 C-291.65966861 589.11997313 -295.01763819 592.49717602 -298.375 595.875 C-302.27097349 599.79471835 -306.16863538 603.71272742 -310.0705719 607.62651062 C-311.61681555 609.17915238 -313.1599738 610.73481403 -314.70300293 612.29064941 C-319.40372814 617.015541 -324.14350734 621.63324589 -329.22644043 625.94909668 C-331.56929595 627.97552359 -333.71935741 630.15199358 -335.875 632.375 C-333.06772791 638.76934198 -327.27181555 643.21930357 -322.0625 647.6875 C-316.70932003 652.28204568 -311.8186998 657.34951105 -306.875 662.375 C-302.94285699 660.78560574 -300.54479654 658.21157498 -297.625 655.1875 C-294.63758723 652.10079461 -291.6607203 649.16163712 -288.38574219 646.38354492 C-283.43497624 642.07049723 -278.82007009 637.43358645 -274.19908142 632.77424622 C-272.61926867 631.18146509 -271.03617414 629.59200843 -269.45227051 628.0032959 C-266.09033139 624.63002687 -262.73236181 621.25282398 -259.375 617.875 C-255.47902651 613.95528165 -251.58136462 610.03727258 -247.6794281 606.12348938 C-246.13318445 604.57084762 -244.5900262 603.01518597 -243.04699707 601.45935059 C-238.48057061 596.86941687 -233.85879652 592.42919814 -228.94152832 588.2166748 C-224.92450631 584.6367344 -221.17166814 580.77896542 -217.38427734 576.95944214 C-215.8380726 575.40026273 -214.28858104 573.84441379 -212.73828125 572.28930664 C-209.44767017 568.98736864 -206.16103038 565.68149584 -202.875 562.375 C-199.06163495 558.53788524 -195.24657851 554.70248325 -191.42724609 550.87130737 C-189.91423948 549.35190534 -188.4043203 547.82948297 -186.89453125 546.30688477 C-182.99132644 542.38314914 -179.09401264 538.4913015 -174.88867188 534.88867188 C-170.08095305 530.76777002 -165.65494403 526.26708994 -161.19908142 521.77424622 C-159.61926867 520.18146509 -158.03617414 518.59200843 -156.45227051 517.0032959 C-153.09033139 513.63002687 -149.73236181 510.25282398 -146.375 506.875 C-142.47902651 502.95528165 -138.58136462 499.03727258 -134.6794281 495.12348938 C-133.13318445 493.57084762 -131.5900262 492.01518597 -130.04699707 490.45935059 C-125.48493429 485.87380217 -120.86743661 481.43861392 -115.95495605 477.23010254 C-111.8696168 473.58640862 -108.05261803 469.65976498 -104.19908142 465.77424622 C-102.61926867 464.18146509 -101.03617414 462.59200843 -99.45227051 461.0032959 C-96.09033139 457.63002687 -92.73236181 454.25282398 -89.375 450.875 C-85.47902651 446.95528165 -81.58136462 443.03727258 -77.6794281 439.12348938 C-76.13318445 437.57084762 -74.5900262 436.01518597 -73.04699707 434.45935059 C-68.48057061 429.86941687 -63.85879652 425.42919814 -58.94152832 421.2166748 C-54.92450631 417.6367344 -51.17166814 413.77896542 -47.38427734 409.95944214 C-45.8380726 408.40026273 -44.28858104 406.84441379 -42.73828125 405.28930664 C-39.44767017 401.98736864 -36.16103038 398.68149584 -32.875 395.375 C-29.06163495 391.53788524 -25.24657851 387.70248325 -21.42724609 383.87130737 C-19.91423948 382.35190534 -18.4043203 380.82948297 -16.89453125 379.30688477 C-12.33907372 374.72744786 -7.72484266 370.29589583 -2.81933594 366.09225464 C0.94991848 362.76321591 4.4573048 359.16415864 8 355.59765625 C9.21490112 354.38063271 9.21490112 354.38063271 10.4543457 353.13902283 C13.01361015 350.57420861 15.5693553 348.00592052 18.125 345.4375 C19.87086133 343.68661717 21.61695287 341.93596387 23.36328125 340.18554688 C27.61985198 335.91801384 31.87354716 331.64763134 36.125 327.375 C31.01321301 321.28958916 25.57392056 315.63774078 19.95556641 310.02026367 C18.35940256 308.42188087 16.77144686 306.81561854 15.18359375 305.20898438 C14.16975921 304.19222113 13.15545365 303.17592728 12.140625 302.16015625 C10.76825684 300.78162476 10.76825684 300.78162476 9.36816406 299.37524414 C6.64189328 296.94421056 6.07672835 296.54558062 3.30587769 298.96034241 Z M-96.94140625 513.8203125 C-97.58936661 514.43053253 -98.23732697 515.04075256 -98.90492249 515.66946411 C-109.18928764 525.43444659 -119.1494077 535.53944455 -129.15594482 545.58728027 C-131.95037515 548.39210953 -134.74779062 551.19395846 -137.54492188 553.99609375 C-142.99113128 559.45289187 -148.43413863 564.91286888 -153.875 570.375 C-151.48634786 572.86317932 -148.98861909 575.15147343 -146.36903381 577.38905334 C-140.639227 582.37125646 -135.3310413 587.77914936 -129.97045898 593.15014648 C-128.7887397 594.33050837 -127.60680831 595.51065793 -126.42468262 596.69061279 C-123.23443862 599.87632273 -120.04733613 603.06515787 -116.86094928 606.25472522 C-113.51452055 609.60369843 -110.16563814 612.95021662 -106.81715393 616.2971344 C-101.19604629 621.91642643 -95.57704188 627.5378151 -89.95922852 633.16040039 C-83.47864634 639.64642401 -76.99446977 646.12883749 -70.50841469 652.60938781 C-64.92417655 658.18907748 -59.34190264 663.77072666 -53.76124436 669.35399681 C-50.43495928 672.68183512 -47.10801605 676.00900789 -43.77929497 679.33440971 C-40.64891904 682.4618817 -37.52102867 685.59181909 -34.39498138 688.72361755 C-33.25225431 689.86765874 -32.10869057 691.01086497 -30.96419716 692.15313911 C-29.39264995 693.72192135 -27.82426624 695.29380401 -26.25657654 696.86643982 C-24.94339777 698.18018412 -24.94339777 698.18018412 -23.60369015 699.52046871 C-21.498417 701.72283239 -19.4914544 703.9467975 -17.50117588 706.24966526 C-13.9850152 710.29938032 -10.27624372 714.1082474 -6.47460938 717.88891602 C-5.40723919 718.95650949 -5.40723919 718.95650949 -4.31830597 720.04567051 C-1.95415477 722.40913208 0.41354172 724.76900858 2.78125 727.12890625 C4.48541163 728.83114699 6.18934445 730.53361682 7.89306641 732.23629761 C12.02823777 736.36790583 16.16565211 740.49725802 20.30395794 744.62572646 C25.13032963 749.44098578 29.95340472 754.25954148 34.7761755 759.07840693 C43.38548342 767.68066045 51.99665742 776.28104315 60.609375 784.87988281 C61.12394729 785.39362729 61.63851957 785.90737176 62.16868496 786.43668425 C65.82074002 790.08283954 69.4728622 793.72892759 73.125 797.375 C77.29692131 801.53999268 81.46881224 805.70501578 85.640625 809.87011719 C86.15456534 810.3832294 86.66850569 810.89634162 87.19801998 811.42500269 C95.78024503 819.99352178 104.36049115 828.56401988 112.93933868 837.13592052 C117.74955713 841.94206996 122.56085308 846.74713168 127.37475586 851.54959106 C131.90106213 856.06519772 136.42510753 860.5830569 140.94744873 865.10263443 C142.60456092 866.75787876 144.26253528 868.41226048 145.92144775 870.06570053 C148.1915032 872.32850463 150.45841421 874.59441474 152.72460938 876.86108398 C153.37646965 877.5093493 154.02832993 878.15761461 154.69994354 878.82552433 C158.50433574 882.63840816 162.11650246 886.56861038 165.6299898 890.6515159 C167.48858957 892.7941549 169.43773604 894.82838015 171.43286133 896.84399414 C172.58489799 898.01044212 172.58489799 898.01044212 173.76020813 899.20045471 C174.56765976 900.01215622 175.37511139 900.82385773 176.20703125 901.66015625 C177.06125168 902.52007675 177.91547211 903.37999725 178.795578 904.26597595 C180.59352585 906.07331775 182.39289108 907.87925053 184.19360352 909.68383789 C186.92604112 912.42600033 189.64761147 915.17865722 192.36914062 917.93164062 C194.12694231 919.69597216 195.88538497 921.45966536 197.64453125 923.22265625 C198.44591019 924.03638199 199.24728912 924.85010773 200.07295227 925.68849182 C210.42498365 936.00056406 221.01114011 943.66031009 236.0625 943.875 C247.17237178 943.72976437 256.48334689 940.30126878 265.125 933.375 C265.81335938 932.82328125 266.50171875 932.2715625 267.2109375 931.703125 C275.69924113 924.09292175 281.3993131 912.10440936 282.4609375 900.796875 C282.64152544 883.82160879 276.04678335 873.29751304 264.49275112 861.43880939 C260.67608931 857.58513771 256.82260482 853.76948696 252.96484375 849.95703125 C251.28837522 848.28871544 249.61265247 846.6196499 247.93763733 844.94987488 C243.54921454 840.57847551 239.15228573 836.21574008 234.75299072 831.85528564 C227.70774302 824.86949285 220.67529735 817.87081854 213.64346504 810.87152672 C211.1984985 808.44042428 208.74970351 806.01323265 206.30027771 803.58662415 C204.78986086 802.08623834 203.27952635 800.58576965 201.76928711 799.08520508 C201.09636627 798.42059265 200.42344543 797.75598022 199.73013306 797.07122803 C196.68884904 794.04406818 193.75170206 790.98386796 190.9666748 787.71835709 C186.83814468 782.97843767 182.43423677 778.54529761 177.98500061 774.10801697 C176.63692366 772.75760003 176.63692366 772.75760003 175.26161283 771.37990195 C172.78676147 768.90090388 170.30883505 766.42500032 167.83035529 763.94963062 C165.15024488 761.27179318 162.47302652 758.59106692 159.79542542 755.91072083 C154.55733622 750.66819521 149.31655954 745.42836425 144.07480032 740.18950837 C139.81309007 735.93006052 135.55236176 731.66963274 131.29232597 727.40851021 C130.68500471 726.80103571 130.07768345 726.19356122 129.45195852 725.56767841 C128.21803288 724.33343303 126.98410947 723.09918541 125.75018828 721.86493558 C114.19146498 710.30336373 102.62968389 698.74485364 91.06684767 687.18739534 C81.15488885 677.27990399 71.24555474 667.36979377 61.33813477 657.45776367 C49.8207917 645.93506383 38.30182137 634.41399474 26.78026575 622.89550692 C25.55067167 621.66623138 24.32107968 620.43695376 23.09148979 619.20767403 C22.48657614 618.60291465 21.8816625 617.99815528 21.25841813 617.37506987 C17.00468512 613.12219869 12.75211032 608.8681715 8.49998665 604.61369133 C3.31496323 599.42585747 -1.8718501 594.23982109 -7.06093543 589.05605 C-9.70620181 586.41340383 -12.350677 583.76997906 -14.99297333 581.12436295 C-17.86193834 578.25184803 -20.73478819 575.38324948 -23.60801697 572.51499939 C-24.84991355 571.26975672 -24.84991355 571.26975672 -26.11689895 569.99935764 C-30.34451341 565.78591432 -34.64457836 561.72628863 -39.18020219 557.84508276 C-41.61840409 555.73016465 -43.88743642 553.46695445 -46.15771484 551.17407227 C-46.62384186 550.70487869 -47.08996887 550.23568512 -47.57022095 549.75227356 C-48.56430919 548.75112544 -49.55725552 547.74884231 -50.54911423 546.74548531 C-52.11851315 545.15846484 -53.69162823 543.57521259 -55.26577759 541.99290466 C-59.73443127 537.499976 -64.19714404 533.00117843 -68.65576172 528.49829102 C-71.39697162 525.73037885 -74.14296954 522.9672934 -76.89201736 520.20716667 C-77.93614333 519.15682469 -78.97836691 518.10458808 -80.01865768 517.05044746 C-81.46417506 515.58582148 -82.91564927 514.12736035 -84.36865234 512.67016602 C-85.19279633 511.83856461 -86.01694031 511.0069632 -86.86605835 510.15016174 C-91.16210368 506.35404585 -93.60719217 510.65538646 -96.94140625 513.8203125 Z M-376.875 650.375 C-385.051005 657.81371564 -393.03484588 665.39883219 -400.82035255 673.24518776 C-402.51391397 674.95185414 -404.21087918 676.65507647 -405.90861511 678.35758972 C-409.50446462 681.96469048 -413.09628711 685.57578381 -416.6875 689.1875 C-420.87461194 693.39838963 -425.06345444 697.60752971 -429.25653648 701.8124752 C-430.91358886 703.47592124 -432.56756004 705.14238715 -434.22138977 706.80903625 C-442.53561926 715.16333679 -442.53561926 715.16333679 -446.8503418 718.8503418 C-451.99641798 723.25203493 -456.70990243 728.09905692 -461.47689819 732.9017334 C-463.22474922 734.662525 -464.97585972 736.42001864 -466.7277832 738.17675781 C-470.44636351 741.90668125 -474.16098204 745.64053437 -477.875 749.375 C-482.18401429 753.70773773 -486.49470377 758.03878153 -490.80966187 762.36560059 C-492.5220917 764.08444044 -494.23144512 765.80629812 -495.94067383 767.52832031 C-504.55976707 776.18752483 -504.55976707 776.18752483 -508.86132812 779.86132812 C-514.07129818 784.31347213 -518.83747514 789.22689347 -523.66209412 794.08692932 C-525.44355248 795.88132335 -527.22826638 797.67242409 -529.01379395 799.46276855 C-532.80370266 803.26402275 -536.58965097 807.06920588 -540.375 810.875 C-544.76662221 815.29034185 -549.15991726 819.70399248 -553.55747986 824.11341858 C-555.3031471 825.86549796 -557.04573952 827.62059477 -558.78820801 829.37585449 C-563.64693987 834.25677019 -568.53418643 839.02373063 -573.77404785 843.49890137 C-578.18840687 847.44081548 -582.30890086 851.70253882 -586.47689819 855.9017334 C-588.22474922 857.662525 -589.97585972 859.42001864 -591.7277832 861.17675781 C-595.44636351 864.90668125 -599.16098204 868.64053437 -602.875 872.375 C-607.18401429 876.70773773 -611.49470377 881.03878153 -615.80966187 885.36560059 C-617.5220917 887.08444044 -619.23144512 888.80629812 -620.94067383 890.52832031 C-625.89367991 895.50355139 -630.8456254 900.40786225 -636.26489258 904.88378906 C-638.07181922 906.55728534 -639.45261086 908.36977955 -640.875 910.375 C-638.71156815 912.5657786 -636.54438036 914.75262406 -634.375 916.9375 C-633.47394531 917.85112305 -633.47394531 917.85112305 -632.5546875 918.78320312 C-631.64589844 919.69682617 -631.64589844 919.69682617 -630.71875 920.62890625 C-630.17412109 921.17877197 -629.62949219 921.7286377 -629.06835938 922.29516602 C-627.15537122 924.10914043 -625.20043765 925.82760825 -623.203125 927.546875 C-618.52332108 931.62114486 -614.15287098 935.97090864 -609.78125 940.37109375 C-608.53305481 941.62141136 -608.53305481 941.62141136 -607.25964355 942.89698792 C-604.62905065 945.53313262 -602.00197559 948.17275105 -599.375 950.8125 C-597.58096145 952.61155979 -595.78669285 954.4103902 -593.9921875 956.20898438 C-589.61712875 960.59500812 -585.24494488 964.98388142 -580.875 969.375 C-571.35577249 965.19963827 -563.75598596 955.38595387 -556.5546875 948.1171875 C-555.60195434 947.16003019 -554.6489141 946.20317846 -553.69558716 945.24661255 C-550.71084461 942.25059966 -547.73011203 939.25061794 -544.75 936.25 C-541.28278987 932.75899392 -537.81384917 929.26974186 -534.34064102 925.7847023 C-532.96944709 924.40713198 -531.60135984 923.02647155 -530.23336792 921.64572144 C-526.54517863 917.94316605 -522.85962231 914.29786698 -518.89306641 910.89306641 C-513.84521895 906.55714651 -509.21291611 901.81773951 -504.53125 897.09375 C-503.55323581 896.11131622 -502.57491749 895.12918512 -501.59631348 894.14733887 C-498.51968605 891.05939429 -495.44703564 887.96751186 -492.375 884.875 C-488.80946097 881.28569537 -485.24222072 877.69811492 -481.67070007 874.11476135 C-480.25741371 872.69508843 -478.84722889 871.27233001 -477.43713379 869.8494873 C-473.06323619 865.45906846 -468.63322944 861.24263767 -463.93200684 857.20715332 C-459.61493246 853.36198275 -455.59924563 849.1985213 -451.53125 845.09375 C-450.55323581 844.11131622 -449.57491749 843.12918512 -448.59631348 842.14733887 C-445.51968605 839.05939429 -442.44703564 835.96751186 -439.375 832.875 C-435.80946097 829.28569537 -432.24222072 825.69811492 -428.67070007 822.11476135 C-427.25741371 820.69508843 -425.84722889 819.27233001 -424.43713379 817.8494873 C-420.06323619 813.45906846 -415.63322944 809.24263767 -410.93200684 805.20715332 C-406.61493246 801.36198275 -402.59924563 797.1985213 -398.53125 793.09375 C-397.55323581 792.11131622 -396.57491749 791.12918512 -395.59631348 790.14733887 C-392.51968605 787.05939429 -389.44703564 783.96751186 -386.375 780.875 C-382.80946097 777.28569537 -379.24222072 773.69811492 -375.67070007 770.11476135 C-374.25741371 768.69508843 -372.84722889 767.27233001 -371.43713379 765.8494873 C-367.04715681 761.44292835 -362.60167863 757.20591329 -357.88269043 753.15560913 C-353.86713538 749.59423638 -350.12591691 745.74698897 -346.34375 741.94140625 C-345.46722778 741.06346909 -344.59070557 740.18553192 -343.68762207 739.2809906 C-340.91437204 736.50218504 -338.14463718 733.71990603 -335.375 730.9375 C-333.48489195 729.04180135 -331.59398482 727.14690217 -329.703125 725.25195312 C-325.09108996 720.62894811 -320.48192859 716.00309343 -315.875 711.375 C-317.45436984 707.51379517 -320.06736922 704.89977405 -322.97973633 702.01147461 C-323.49868973 701.48901657 -324.01764313 700.96655853 -324.55232239 700.42826843 C-326.26556868 698.70623529 -327.98600946 696.99160341 -329.70703125 695.27734375 C-330.90318071 694.07984657 -332.09903318 692.88205266 -333.29460144 691.68397522 C-335.80066363 689.17496572 -338.31030403 686.66960571 -340.82250977 684.16674805 C-344.03718065 680.96345904 -347.24280614 677.75129215 -350.44579029 674.53632259 C-352.91375829 672.06111493 -355.38648585 669.59070628 -357.86066246 667.12170601 C-359.04423405 665.93946573 -360.22632965 664.75574584 -361.40690041 663.57050896 C-363.06049216 661.9118188 -364.72039441 660.25970723 -366.38208008 658.60913086 C-366.86590149 658.12126099 -367.3497229 657.63339111 -367.84820557 657.1307373 C-370.64350612 654.369831 -373.42347747 652.25202987 -376.875 650.375 Z " fill="#FFCA54" transform="translate(675.875,42.625)"/>
<path d="M0 0 C5.14671406 2.78583605 9.16675789 6.48688552 13.38671875 10.50390625 C16.14311972 13.08346699 18.99078196 15.45431935 21.9375 17.8125 C25.69324705 20.84373415 29.1585755 23.96771749 32.50390625 27.44140625 C34.35995417 29.29745417 36.31379875 30.98655685 38.3125 32.6875 C45.57568743 39.02347201 49.55227107 44.9844537 50.5625 54.75 C49.92514532 60.48619216 48.96236358 63.50715437 44.71484375 67.37890625 C37.25082036 73.1552366 37.25082036 73.1552366 33.71484375 73.0546875 C22.78266577 69.03326809 14.42561211 61.0302591 6.1875 53.125 C4.82167691 51.90630327 3.44779469 50.69651706 2.0625 49.5 C-1.79004044 46.1590002 -5.57411837 42.74544052 -9.35546875 39.32421875 C-11.58545525 37.3282213 -13.84831675 35.3797552 -16.125 33.4375 C-20.89494491 29.2758679 -25.41615848 25.26384509 -26.05078125 18.63671875 C-26.21023933 12.56891917 -26.06297063 8.82288859 -21.8125 4.125 C-15.17126485 -2.23879452 -8.45713413 -3.82456384 0 0 Z " fill="#FFCA54" transform="translate(802.8125,140.875)"/>
<path d="M0 0 C1.29760322 0.50324909 2.58633185 1.02975335 3.8671875 1.57421875 C4.90431885 1.9906665 4.90431885 1.9906665 5.96240234 2.41552734 C8.23359175 3.33932361 10.48825712 4.29662503 12.7421875 5.26171875 C13.53753906 5.59768066 14.33289063 5.93364258 15.15234375 6.27978516 C17.56299927 7.30276598 19.9666711 8.34018087 22.3671875 9.38671875 C23.48504639 9.87265503 23.48504639 9.87265503 24.62548828 10.3684082 C30.46430929 12.97835458 36.28685217 15.62406637 39.7421875 21.26171875 C41.60792971 26.85894539 41.04704938 31.94525719 38.8671875 37.33203125 C36.55158574 41.3039315 32.82353972 44.22104264 28.7421875 46.26171875 C14.70193786 48.46247217 -2.60857582 40.73207413 -14.2578125 33.26171875 C-17.60179523 29.61936719 -19.0835002 27.03970426 -19.5703125 22.07421875 C-18.85077491 13.29586011 -13.65954591 7.90074564 -7.2578125 2.26171875 C-6.66226563 1.64296875 -6.06671875 1.02421875 -5.453125 0.38671875 C-3.2578125 -0.73828125 -3.2578125 -0.73828125 0 0 Z " fill="#FFCA54" transform="translate(724.2578125,99.73828125)"/>
<path d="M0 0 C5.04097983 3.60069988 8.42284454 7.74400715 9.625 13.875 C9.71239417 19.93797046 8.59663992 24.13109676 4.625 28.875 C-0.57225003 33.56520125 -4.67801542 34.30138207 -11.515625 34.2109375 C-16.05583263 33.67752513 -19.1085253 32.04155901 -22.375 28.875 C-25.82178896 24.38343366 -27.06040722 19.73550586 -26.75 14.109375 C-25.79609612 8.42569772 -23.49060263 4.29472184 -18.8125 0.875 C-12.81827143 -2.441433 -6.36006182 -2.12002061 0 0 Z " fill="#FFCA54" transform="translate(339.375,290.125)"/>
<path d="M0 0 C4.91957021 2.64080825 8.16838994 5.99735731 9.9296875 11.28125 C10.62734955 18.463738 10.32504954 23.46036514 5.9296875 29.28125 C0.80854047 34.02767896 -3.41652998 34.70197955 -10.2109375 34.62109375 C-15.45008136 33.99840862 -18.93383937 31.61139775 -22.44921875 27.77734375 C-25.90381336 22.78202402 -25.91529146 17.13574707 -25.0703125 11.28125 C-23.31358624 5.92224799 -19.9427059 2.97661656 -15.0703125 0.28125 C-10.22916635 -1.33246538 -4.88419867 -1.69564633 0 0 Z " fill="#FFCA54" transform="translate(369.0703125,258.71875)"/>
<path d="M0 0 C4.66743313 2.64959335 6.94520519 6.33561558 8.625 11.375 C9.40697998 17.87440741 8.5018445 23.03563332 4.625 28.375 C1.67614801 31.84622005 -0.98885853 33.17969578 -5.5078125 33.81640625 C-10.57222169 33.99521796 -14.32185099 33.87386006 -18.9375 31.6875 C-24.06778646 26.82030516 -26.4983281 23.25379375 -26.6875 16.125 C-26.61153944 10.8906269 -25.96585451 7.28030787 -22.375 3.375 C-15.79023691 -2.58770022 -8.11750455 -3.57592672 0 0 Z " fill="#FFCA54" transform="translate(247.375,383.625)"/>
<path d="M0 0 C4.95170091 2.84264311 8.55208681 6.46876044 10.375 11.9375 C11.14849855 18.36641418 10.36648758 23.72135146 6.375 28.9375 C2.18260001 33.08958845 -1.9147756 34.27556829 -7.75 34.5 C-12.79495024 34.2712617 -15.82451201 33.45295139 -19.625 29.9375 C-24.65058612 24.23278063 -24.9768708 20.65520181 -24.90234375 13.14453125 C-24.54352039 8.99532025 -23.52860228 6.91751287 -20.625 3.9375 C-13.92005697 -1.12541616 -8.03347757 -2.35463998 0 0 Z " fill="#FFCA54" transform="translate(276.625,352.0625)"/>
<path d="M0 0 C3.81854877 2.66808857 6.34230662 5.81988862 7.828125 10.27734375 C8.3916918 15.96720086 8.15608933 20.44642778 4.828125 25.27734375 C0.22348937 29.91463637 -3.28687518 32.40388753 -9.984375 32.52734375 C-16.17639179 32.43734351 -19.55088836 30.93517099 -23.921875 26.46484375 C-27.73774956 21.05902145 -28.63184045 16.91388515 -27.71875 10.45703125 C-26.89338631 7.1673674 -25.28683071 4.88993609 -23.171875 2.27734375 C-22.718125 1.69984375 -22.264375 1.12234375 -21.796875 0.52734375 C-15.19925852 -4.54774585 -6.8770259 -3.80402417 0 0 Z " fill="#FFCA54" transform="translate(310.171875,322.72265625)"/>
</svg>
