<?xml version="1.0" encoding="UTF-8"?>
<svg version="1.1" xmlns="http://www.w3.org/2000/svg" width="1080" height="1081">
<path d="M0 0 C1.07475586 -0.00067474 2.14951172 -0.00134949 3.25683594 -0.00204468 C22.54056456 0.01704918 41.54975066 0.87807617 60.6875 3.25 C61.37465088 3.33485657 62.06180176 3.41971313 62.76977539 3.50714111 C113.36002497 9.84195344 162.37466566 23.96240297 208.6875 45.25 C210.34487026 45.99649756 212.00241205 46.74261445 213.66015625 47.48828125 C254.9450869 66.30052799 294.83684127 92.9054723 328.0625 123.8359375 C329.45266286 125.11439084 330.84896213 126.38738942 332.28735352 127.61132812 C338.76366673 133.12688375 344.74868445 139.12509071 350.75952148 145.13671875 C352.61227468 146.98728967 354.47288706 148.82970076 356.33398438 150.671875 C362.52519821 156.83462099 368.4083053 163.03484966 373.81030273 169.91137695 C375.71167749 172.28012046 377.723111 174.48408753 379.8125 176.6875 C387.0852515 184.6735161 393.30816879 193.54929611 399.6875 202.25 C400.17428223 202.91112793 400.66106445 203.57225586 401.16259766 204.25341797 C411.94346207 218.9336595 421.4547088 234.34354794 430.64453125 250.05859375 C431.1442041 250.91050293 431.64387695 251.76241211 432.15869141 252.64013672 C433.2228531 254.4567909 434.28205714 256.27635448 435.33740234 258.09814453 C435.86930176 259.0054834 436.40120117 259.91282227 436.94921875 260.84765625 C437.42705811 261.66886963 437.90489746 262.49008301 438.3972168 263.33618164 C439.55175402 265.38697029 439.55175402 265.38697029 441.6875 266.25 C443.09366255 266.35492942 444.5041405 266.40520817 445.9140625 266.42578125 C466.84218204 266.93215421 485.61825641 270.83893352 501.6875 285.25 C502.82638672 286.26707031 502.82638672 286.26707031 503.98828125 287.3046875 C517.82714843 300.37602087 525.49002683 317.90028183 526.09228516 336.84008789 C526.36066764 359.17391686 519.18100136 377.14891134 503.60546875 393.42578125 C489.24082749 407.15080954 469.85848812 413.89602067 450.16796875 413.49609375 C433.2217128 412.29787363 419.03889724 406.92662237 405.6875 396.25 C404.140625 395.13625 404.140625 395.13625 402.5625 394 C391.47972314 383.399083 383.77876413 369.23644848 380.6875 354.25 C380.460625 353.156875 380.23375 352.06375 380 350.9375 C378.23946979 330.16324351 382.4613371 309.93547383 396.04443359 293.62011719 C404.55348941 283.81700529 404.55348941 283.81700529 407.6875 282.25 C406.04613656 276.40867717 403.22090942 271.34687743 400.3125 266.0625 C399.78011719 265.0928833 399.24773438 264.1232666 398.69921875 263.12426758 C384.59936668 237.71757825 367.64348491 214.23306467 348.6875 192.25 C347.76517578 191.17492187 347.76517578 191.17492187 346.82421875 190.078125 C345.12883265 188.11973151 343.41340996 186.1815503 341.6875 184.25 C340.56214844 182.98542969 340.56214844 182.98542969 339.4140625 181.6953125 C333.77245703 175.44380374 327.94371593 169.4025962 322 163.4375 C321.29955566 162.73246338 320.59911133 162.02742676 319.87744141 161.30102539 C315.30969886 156.74670791 310.57788946 152.45350479 305.6875 148.25 C304.63939456 147.32430796 303.59244377 146.39730626 302.546875 145.46875 C292.69424372 136.81296079 282.2567793 129.00377476 271.6875 121.25 C271.04280762 120.77288574 270.39811523 120.29577148 269.73388672 119.80419922 C207.28175569 73.62444238 132.47486349 45.78833852 55.6875 36.25 C54.21482666 36.0631665 54.21482666 36.0631665 52.71240234 35.87255859 C-29.66165822 25.8196765 -116.25136177 41.20028921 -198.3125 78.25 C-199.25077637 78.68521973 -200.18905273 79.12043945 -201.15576172 79.56884766 C-229.98005642 93.11395764 -257.30835025 110.55955529 -282.3125 130.25 C-282.98216797 130.7769043 -283.65183594 131.30380859 -284.34179688 131.84667969 C-292.31911881 138.15737803 -300.05030803 144.65694341 -307.46875 151.6171875 C-309.6446029 153.63164472 -311.84387259 155.57838989 -314.08984375 157.51171875 C-318.71599395 161.54253203 -323.04878372 165.83926735 -327.375 170.1875 C-328.13876953 170.94740234 -328.90253906 171.70730469 -329.68945312 172.49023438 C-334.43822904 177.2471348 -338.94197682 182.14536289 -343.3125 187.25 C-344.26194858 188.33297224 -345.21241784 189.41505077 -346.1640625 190.49609375 C-353.96554029 199.439896 -361.22416456 208.7342102 -368.3125 218.25 C-368.8502002 218.96671875 -369.38790039 219.6834375 -369.94189453 220.421875 C-378.79939891 232.26382856 -386.75802549 244.54062553 -394.3125 257.25 C-395.08424561 258.5479248 -395.08424561 258.5479248 -395.87158203 259.87207031 C-432.21250216 321.38983228 -454.82557864 391.60838144 -457.97192383 463.20556641 C-458.17283585 467.65262679 -458.67791087 471.80787606 -459.3125 476.25 C-388.0325 476.25 -316.7525 476.25 -243.3125 476.25 C-243.3125 461.4 -243.3125 446.55 -243.3125 431.25 C-248.5925 432.24 -253.8725 433.23 -259.3125 434.25 C-273.91628206 435.50386008 -288.03913982 433.29217577 -299.91015625 424.27734375 C-312.97583561 413.10352747 -319.86125348 399.04753145 -321.53125 382.01953125 C-322.22016749 366.26054368 -315.06377194 353.23586764 -304.82355237 341.95614898 C-300.89445847 337.72178351 -296.83596588 333.62540145 -292.75131226 329.54164124 C-291.83132309 328.61797538 -290.91133392 327.69430952 -289.96346629 326.74265379 C-287.43821943 324.20751178 -284.90994148 321.67541272 -282.38107944 319.14387763 C-279.64299432 316.40185224 -276.907731 313.65701413 -274.17202759 310.91261292 C-267.58206278 304.30299594 -260.9873518 297.6981245 -254.39201301 291.09387055 C-251.90289267 288.60123509 -249.41408798 286.10828458 -246.9252997 283.61531757 C-235.93586879 272.60743646 -224.94508775 261.60090546 -213.95027733 250.59839725 C-211.26680942 247.91301985 -208.58334697 245.227637 -205.89990234 242.54223633 C-204.89962019 241.54122857 -204.89962019 241.54122857 -203.87913032 240.51999842 C-193.07738792 229.70995594 -182.28419534 218.89141899 -171.49455015 208.06930346 C-160.39030494 196.93191645 -149.2784761 185.80214116 -138.15924227 174.67971796 C-131.92702664 168.44534468 -125.69809256 162.20777077 -119.47764206 155.96165657 C-114.18098735 150.64319796 -108.87743392 145.33173869 -103.56502907 140.02901036 C-100.86036225 137.32885922 -98.15890514 134.62570559 -95.46630096 131.91352081 C-82.11398465 118.46950421 -68.9052578 105.50907317 -51.8125 96.875 C-51.01408691 96.46564209 -50.21567383 96.05628418 -49.39306641 95.63452148 C-24.41634974 83.14118076 4.84897911 80.15366539 31.58203125 88.76171875 C49.1856191 94.80559982 64.98500291 103.85166887 78.60551453 116.56864929 C79.15723475 117.08129009 79.70895498 117.59393089 80.277394 118.12210625 C87.68960673 125.06097083 94.83362501 132.2727876 101.99926758 139.46411133 C103.59387139 141.06063887 105.1887064 142.65693552 106.78375244 144.25302124 C110.19208122 147.66448819 113.59885608 151.07749638 117.00440407 154.49173927 C122.39424733 159.89520327 127.78799096 165.29476283 133.18229675 170.69377136 C140.74625634 178.26503847 148.30881929 185.8376964 155.86987305 193.41186523 C156.34789325 193.89071325 156.82591346 194.36956127 157.31841912 194.86291983 C160.7123284 198.26273098 164.10617044 201.66260926 167.5 205.0625 C171.38561136 208.95504611 175.27125751 212.84755748 179.15698242 216.73999023 C179.63592407 217.21976001 180.11486572 217.69952978 180.60832075 218.19383804 C188.60747107 226.20669598 196.60862267 234.21755212 204.61113471 242.22705287 C209.9692792 247.5901665 215.32497936 252.95570542 220.67879355 258.32314169 C224.00995795 261.66178144 227.34320727 264.99833368 230.67701721 268.33433151 C232.21777483 269.87695586 233.75767041 271.42044179 235.29662132 272.96486855 C237.40369774 275.07920407 239.51388669 277.19038583 241.62483215 279.30085754 C242.22688644 279.90650679 242.82894072 280.51215603 243.44923908 281.13615829 C247.14446287 284.82256067 250.96748767 288.30920934 254.92351413 291.71448803 C257.29451481 293.77839341 259.53531697 295.95597461 261.76733398 298.16870117 C262.67865585 299.0704155 263.58997772 299.97212982 264.52891541 300.90116882 C265.49741961 301.86482272 266.46563855 302.8287634 267.43359375 303.79296875 C267.93355425 304.29010187 268.43351475 304.78723499 268.94862556 305.29943275 C271.59416939 307.93009212 274.23690637 310.56353173 276.87719727 313.19946289 C279.5708271 315.88762075 282.27361003 318.56637098 284.97869778 321.24299145 C287.08851006 323.33397188 289.19138242 325.43183335 291.29255867 327.53148842 C292.28458662 328.52053593 293.27905792 329.50714026 294.27624321 330.49098778 C308.31929422 344.35950235 320.43882665 359.60627949 321.0625 380.1875 C320.51133054 397.8019572 313.25237056 411.40563251 300.6875 423.25 C291.14452743 431.23722746 279.63452972 434.40328533 267.375 434.5625 C266.67310547 434.59150391 265.97121094 434.62050781 265.24804688 434.65039062 C256.67360925 434.74774232 250.63247658 432.48624415 241.6875 430.25 C241.6875 445.76 241.6875 461.27 241.6875 477.25 C248.81456543 477.23428955 255.94163086 477.2185791 263.28466797 477.20239258 C286.10777956 477.15420784 308.93089673 477.12085769 331.75404476 477.09680401 C335.30119924 477.09305205 338.84835357 477.08916906 342.39550781 477.08520508 C343.10166041 477.08441815 343.80781301 477.08363122 344.53536417 477.08282044 C355.95821815 477.0697787 367.38102668 477.04613168 378.80385374 477.01854161 C390.53116788 476.99045306 402.25845828 476.97381646 413.98580468 476.96773452 C420.57017036 476.96382557 427.15443306 476.95464629 433.73876572 476.93280983 C439.93897578 476.91241431 446.13904066 476.90617248 452.33928108 476.91067696 C454.61201962 476.90985314 456.88476313 476.90390591 459.15747261 476.89238358 C462.26766458 476.8773917 465.37731297 476.881071 468.48751831 476.88923645 C469.38054464 476.88049793 470.27357097 476.8717594 471.19365871 476.86275607 C478.21310136 476.9123473 485.6857882 477.69854497 491.1875 482.375 C497.58618493 494.63914611 494.75454525 511.43056825 493.9375 524.75 C493.89459839 525.45421082 493.85169678 526.15842163 493.80749512 526.88397217 C487.84591987 622.19725361 453.56134285 715.23161805 391.6875 796.25 C390.63755859 797.59964844 390.63755859 797.59964844 389.56640625 798.9765625 C381.34226715 809.40152755 372.65163428 819.45749687 363.6875 829.25 C363.23793945 829.74467773 362.78837891 830.23935547 362.32519531 830.74902344 C353.23566583 840.74935209 344.03281571 850.72749342 333.72265625 859.4921875 C331.27921962 861.6026414 328.92831179 863.80292879 326.5625 866 C320.76897725 871.28209453 314.66550498 876.08738178 308.45947266 880.87207031 C306.75465286 882.19778028 305.06805628 883.54311971 303.38671875 884.8984375 C282.37803537 901.7868566 259.61993823 916.27833557 235.90576172 929.05273438 C233.67183988 930.25845226 231.44739375 931.48056078 229.22265625 932.703125 C179.78911398 959.59128593 124.26727435 975.80220422 68.6875 983.4375 C67.5752002 983.5924292 66.46290039 983.7473584 65.31689453 983.90698242 C44.02713664 986.68108408 22.70435013 987.63452872 1.25 987.5625 C0.08050812 987.56034485 -1.08898376 987.5581897 -2.29391479 987.55596924 C-91.2856461 987.29455107 -179.05780084 963.46705775 -317.3125 872.25 C-318.25319336 871.46810303 -318.25319336 871.46810303 -319.21289062 870.67041016 C-326.15417846 864.87570677 -332.78397144 858.94209079 -339.1015625 852.4609375 C-341.02138268 850.54111732 -342.97691266 848.79608948 -345.0625 847.0625 C-351.07605026 841.91324543 -356.2937856 835.91067348 -361.63330078 830.08203125 C-363.12384104 828.45582972 -364.62093279 826.83606846 -366.12109375 825.21875 C-371.76937662 819.08582507 -377.0916309 812.7484064 -382.3125 806.25 C-383.22440989 805.14122702 -384.13721134 804.03318686 -385.05078125 802.92578125 C-401.71156272 782.59867629 -416.50753781 760.41798485 -429.18017578 737.40258789 C-433.88805822 728.06360619 -433.88805822 728.06360619 -441.3125 721.25 C-442.80342529 721.14470918 -444.29847104 721.09473581 -445.79296875 721.07421875 C-469.65271451 720.53094289 -489.56359601 714.63554733 -506.484375 696.984375 C-520.30895087 680.80211952 -525.92856347 661.58408764 -524.53125 640.52832031 C-522.77440076 622.23042178 -514.39949657 606.85301001 -501.3125 594.25 C-500.66796875 593.58613281 -500.0234375 592.92226563 -499.359375 592.23828125 C-485.4898706 578.8210433 -466.82921123 574.59625027 -448.15869141 574.78125 C-429.10611317 575.35887435 -412.58824534 582.55056066 -399.3125 596.25 C-398.60609375 596.95898438 -397.8996875 597.66796875 -397.171875 598.3984375 C-383.51171221 612.84067068 -377.78919375 631.34076824 -378.09765625 650.94921875 C-378.92511014 673.78386243 -390.11246684 691.14006253 -406.3125 706.25 C-392.14670667 735.29383325 -375.2643993 762.55537963 -354.3125 787.25 C-353.45364193 788.2818991 -352.59560767 789.31448427 -351.73828125 790.34765625 C-341.94714715 802.10231923 -331.51873319 813.13822009 -320.75 824 C-319.45666748 825.31291016 -319.45666748 825.31291016 -318.13720703 826.65234375 C-312.92301019 831.87345204 -307.52936695 836.68059353 -301.75463867 841.27539062 C-299.48503386 843.11049647 -297.32796902 845.01708595 -295.1875 847 C-224.71909113 910.19586846 -127.04801677 946.38785572 24.078125 953.9375 C101.47404401 949.43817691 180.23341671 926.4324798 245.6875 884.25 C246.44095703 883.76611816 247.19441406 883.28223633 247.97070312 882.78369141 C268.86276755 869.28386169 288.86640706 854.58609143 307.09765625 837.62890625 C309.13679395 835.75585216 311.20313953 833.9491919 313.3046875 832.1484375 C318.17869366 827.89703379 322.74492926 823.3430923 327.3059082 818.76196289 C328.74775221 817.31475615 330.19487116 815.87297974 331.64257812 814.43164062 C336.86998512 809.20831807 341.90810824 803.88685016 346.6875 798.25 C347.56453553 797.24039117 348.44210329 796.23124432 349.3203125 795.22265625 C409.65444843 724.76978592 449.1821031 636.05043653 459.34692383 524.65014648 C459.37810303 523.91481689 459.40928223 523.1794873 459.44140625 522.421875 C459.46533447 521.7834668 459.4892627 521.14505859 459.51391602 520.48730469 C459.7540106 517.39275233 460.24854898 514.32265711 460.6875 511.25 C388.4175 511.25 316.1475 511.25 241.6875 511.25 C242.13461711 563.46976104 242.13461711 563.46976104 242.6159668 615.68920898 C242.69299316 625.83215332 242.69299316 625.83215332 242.72517395 630.59364319 C242.74852282 633.89051064 242.78054861 637.18716593 242.81806946 640.48390198 C242.86587046 644.70979759 242.89820673 648.93556439 242.92009509 653.1616708 C242.93055768 654.69968545 242.94611816 656.23767759 242.96783006 657.77557456 C243.15041768 671.06393533 242.63590046 685.80861449 236.0625 697.6875 C235.71767578 698.34089355 235.37285156 698.99428711 235.01757812 699.66748047 C227.75690613 712.86248088 215.96456668 722.67678495 201.60546875 727.2265625 C191.64699078 729.70748716 181.8846432 729.54352118 171.6875 729.25 C171.5743042 730.10255371 171.4611084 730.95510742 171.34448242 731.83349609 C165.03627809 777.82071507 149.20074055 822.17749025 111.125 851.3125 C86.10963557 869.84394392 56.31958536 879.90080708 25.6875 884.25 C24.38941406 884.43433594 23.09132813 884.61867188 21.75390625 884.80859375 C1.90101906 886.91295326 -19.8156797 886.49075845 -39.3125 882.25 C-40.22854004 882.05132324 -41.14458008 881.85264648 -42.08837891 881.64794922 C-84.30008249 872.15937803 -121.70043771 850.90391298 -145.4375 814.0625 C-160.8960959 787.96028069 -168.79255976 759.37644976 -171.3125 729.25 C-173.16101563 729.19392578 -173.16101563 729.19392578 -175.046875 729.13671875 C-195.21658725 728.39748256 -211.80187785 724.21743804 -226.3125 709.25 C-226.88484375 708.68667969 -227.4571875 708.12335937 -228.046875 707.54296875 C-238.35514324 696.62364337 -242.3912688 680.8881456 -242.47071838 666.2580719 C-242.47565636 665.59055544 -242.48059434 664.92303899 -242.48568195 664.23529476 C-242.50093213 662.01827498 -242.50938334 659.80128386 -242.51782227 657.58422852 C-242.52741063 655.98715466 -242.53742126 654.3900833 -242.54782104 652.79301453 C-242.57477237 648.4712688 -242.59583462 644.14951225 -242.61582303 639.82772946 C-242.63774311 635.30602647 -242.66510225 630.78435643 -242.69187927 626.26268005 C-242.74172492 617.70643354 -242.78669379 609.15016865 -242.82990164 600.59388632 C-242.87934362 590.85023586 -242.93423586 581.10661847 -242.98958123 571.36300004 C-243.10327645 551.3253642 -243.21014246 531.28769675 -243.3125 511.25 C-244.52140648 511.24761165 -245.73031296 511.24522329 -246.97585297 511.24276257 C-275.6836182 511.18538205 -304.39131733 511.11263679 -333.09899315 511.02101372 C-336.63370342 511.00974578 -340.16841408 510.99860729 -343.703125 510.98754883 C-344.4068116 510.98534514 -345.11049821 510.98314146 -345.83550864 510.980871 C-357.22411226 510.94551473 -368.6127158 510.92064118 -380.00135392 510.89965298 C-391.6902847 510.8778776 -403.37914435 510.84481071 -415.06801462 510.80129844 C-421.63216233 510.77735198 -428.19623135 510.75863246 -434.76042175 510.75238609 C-440.9393391 510.74634179 -447.11805506 510.72636516 -453.29689789 510.69572449 C-455.56400403 510.68693385 -457.83113648 510.6832238 -460.09825897 510.68499184 C-463.19606903 510.68664485 -466.29326538 510.66994216 -469.39099121 510.64872742 C-470.73343281 510.65599878 -470.73343281 510.65599878 -472.10299444 510.66341704 C-478.69771891 510.58899872 -484.41942869 509.61013712 -489.6875 505.3125 C-494.36788912 496.49176666 -493.53495237 485.62502799 -493.125 475.9375 C-493.0991684 475.27182007 -493.07333679 474.60614014 -493.04672241 473.92028809 C-490.41978784 407.04459982 -474.42258648 341.53797704 -445.3125 281.25 C-444.76964355 280.12464844 -444.76964355 280.12464844 -444.21582031 278.9765625 C-442.30406154 275.03962002 -440.34260274 271.13109176 -438.33691406 267.24121094 C-437.62309205 265.85371514 -436.91450135 264.46352082 -436.20996094 263.07128906 C-418.65786842 228.3973751 -395.87600577 195.52157432 -369.6484375 166.83203125 C-367.74688363 164.73014646 -365.87871962 162.60779928 -364.01953125 160.46875 C-354.06692723 149.07360447 -343.61423468 138.30283904 -332.3125 128.25 C-331.3035844 127.32031173 -330.29711418 126.38796345 -329.29296875 125.453125 C-322.84253089 119.44893734 -316.22198577 113.72281955 -309.3125 108.25 C-308.68134277 107.74629883 -308.05018555 107.24259766 -307.39990234 106.72363281 C-284.45457061 88.44725237 -260.25087656 72.32324933 -234.42724609 58.39550781 C-232.397685 57.29614269 -230.3799098 56.17755433 -228.36328125 55.0546875 C-159.37459739 17.06746333 -78.33386216 0.04455593 0 0 Z M-63.38476562 146.9413147 C-64.3443209 147.89740371 -65.30452754 148.85283935 -66.26531887 149.80768621 C-68.87516141 152.40512314 -71.47570873 155.01168821 -74.07467532 157.62000132 C-76.88988735 160.44204627 -79.71377434 163.25538902 -82.53651428 166.06990051 C-88.0522411 171.5723354 -93.55988555 177.08279111 -99.06460828 182.59623243 C-103.53821007 187.07662487 -108.01475026 191.55406174 -112.49337769 196.02943039 C-113.13212957 196.66772258 -113.77088146 197.30601477 -114.42898947 197.96364915 C-115.72677572 199.26047618 -117.02456867 200.55729649 -118.32236826 201.85411017 C-130.4699496 213.99315182 -142.60834437 226.14134597 -154.74358237 238.29272537 C-165.15408904 248.71665005 -175.5724586 259.13266172 -185.99658203 269.54296875 C-198.11389011 281.64422367 -210.22631897 293.75032808 -222.33099556 305.86421907 C-223.62137357 307.1555527 -224.91175784 308.44688008 -226.20214844 309.73820114 C-226.83699091 310.37350644 -227.47183338 311.00881174 -228.1259135 311.66336871 C-232.59826755 316.13831223 -237.07409156 320.6097669 -241.55126953 325.07988358 C-247.00399213 330.52419466 -252.45134153 335.97381412 -257.89186281 341.43031909 C-260.66722776 344.21356888 -263.44493831 346.99436492 -266.22920418 349.768713 C-268.77790086 352.30846788 -271.3195628 354.85504917 -273.85580158 357.40724306 C-275.20905443 358.76543189 -276.56967686 360.11626562 -277.93054962 361.46681941 C-283.50141097 367.09189733 -287.62121957 371.89240282 -288.375 380.10546875 C-288.17617078 386.9277965 -285.19266897 392.58672743 -280.3125 397.25 C-275.21918573 400.97426852 -270.43432446 401.70636356 -264.21875 401.78125 C-255.50655134 400.18869756 -250.09359887 394.59168721 -244.11712646 388.51545715 C-243.22445989 387.62409158 -242.33179331 386.73272601 -241.41207623 385.81434935 C-238.94732841 383.35271007 -236.49518338 380.8788481 -234.04496884 378.40275419 C-231.39506324 375.72932794 -228.73347884 373.06757339 -226.07325745 370.40441895 C-221.46764285 365.79068066 -216.86924343 361.16985218 -212.27553558 356.54426003 C-205.62233694 349.84517271 -198.95659687 343.15867646 -192.28749195 336.47542831 C-181.45150984 325.61606814 -170.62338956 314.74890634 -159.80126953 303.87573242 C-159.15399663 303.22541059 -158.50672374 302.57508875 -157.83983651 301.90506019 C-155.21767352 299.27051514 -152.59553755 296.6359432 -149.97343437 294.00133862 C-142.76501084 286.75862133 -135.55546761 279.51701929 -128.34521484 272.27612305 C-127.69994944 271.62811054 -127.05468403 270.98009803 -126.38986513 270.31244878 C-115.61001724 259.48712068 -104.82414704 248.66780986 -94.03441644 237.85233229 C-87.38829889 231.18971065 -80.74785514 224.52152771 -74.11476812 217.84593268 C-69.56384131 213.26646667 -65.00759409 208.69234005 -60.44722667 204.12227533 C-57.82106412 201.4901246 -55.19742231 198.85558663 -52.58051491 196.21423149 C-19.96592664 163.30519937 -19.96592664 163.30519937 -0.6875 163 C24.81784801 163.3396596 42.32635248 186.74324664 58.85681081 203.37654042 C61.42743824 205.96193704 64.0011754 208.54423459 66.57461548 211.12683105 C70.44835343 215.01488643 74.32112254 218.90390257 78.19272922 222.79408021 C85.79642236 230.43423601 93.40646953 238.06803482 101.01876831 245.69961548 C102.22107922 246.90503643 103.42338631 248.1104612 104.62568963 249.31588972 C106.44685563 251.14178074 108.268025 252.9676684 110.089209 254.79354148 C116.93340993 261.65541806 123.77689758 268.51800557 130.61962891 275.38134766 C131.24423012 276.00782592 131.86883132 276.63430418 132.51235984 277.27976663 C142.65002138 287.44836695 152.78029048 297.62430488 162.90834464 307.80247311 C173.32957803 318.27483021 183.76038307 328.73758654 194.19967258 339.19194472 C200.62720276 345.62942281 207.04695398 352.07446277 213.4568107 358.52953954 C217.84758383 362.94992349 222.24749534 367.3610732 226.65464033 371.76513402 C229.19398779 374.30326608 231.72912804 376.84525023 234.25335693 379.39842606 C236.99446448 382.17076541 239.75490866 384.92333184 242.5173645 387.67440796 C243.69871528 388.87862823 243.69871528 388.87862823 244.90393174 390.10717618 C250.65239981 395.78416218 256.76681723 400.19645331 264.7890625 401.9140625 C271.30833384 401.81314499 275.79997218 400.69999803 280.6875 396.25 C285.08955796 391.39620247 287.35881557 387.60258121 288 381.0625 C287.35876841 373.23947465 284.07502821 368.41593999 278.7800293 362.71801758 C278.29668719 362.19764073 277.81334509 361.67726389 277.31535625 361.14111805 C271.8431683 355.28561532 266.19208888 349.60957553 260.51953125 343.94921875 C259.38842003 342.8174311 258.25745704 341.68549529 257.12663269 340.55342102 C254.77947837 338.20480807 252.43056542 335.85797302 250.08032227 333.51245117 C247.08824751 330.52609915 244.10072256 327.53524199 241.11449146 324.5430479 C238.78871664 322.21364003 236.46054143 319.88664295 234.13165855 317.56034279 C233.02946578 316.45881033 231.92799648 315.3565534 230.82731056 314.25351524 C229.28549221 312.70912175 227.7404437 311.16802862 226.19458008 309.62768555 C225.32174881 308.75564987 224.44891754 307.8836142 223.54963684 306.9851532 C221.38832561 304.91973227 219.21143691 302.95886581 216.94766045 301.0122633 C213.02853371 297.59221674 209.32239435 294.01274629 205.66279602 290.31863403 C205.00359749 289.65746767 204.34439897 288.99630131 203.66522473 288.3150996 C201.4792454 286.12146378 199.29689974 283.92424935 197.11450195 281.72705078 C195.53862399 280.14433501 193.96249107 278.56187306 192.38612366 276.97964478 C189.00188691 273.58211866 185.61907771 270.18317979 182.23726845 266.78323746 C176.88133345 261.39935915 171.51989371 256.02098568 166.15727234 250.64376831 C164.31743059 248.79878319 162.47759547 246.95379146 160.63776684 245.10879326 C159.7166484 244.18508926 158.79552996 243.26138526 157.84649885 242.30969024 C153.09176732 237.54124654 148.33774297 232.77209835 143.58422852 228.00244141 C143.10768297 227.52428112 142.63113743 227.04612083 142.14015111 226.55347084 C134.4241052 218.81090957 126.7137056 211.06274565 119.00492618 203.31295051 C111.06689913 195.33305243 103.12097927 187.36106868 95.16862649 179.39544284 C90.71336429 174.93213406 86.26185262 170.46522432 81.81920815 165.98935318 C77.63762712 161.77655133 73.44667348 157.57330121 69.24858665 153.37694931 C67.71695976 151.84264329 66.18872579 150.30494087 64.6643219 148.76345825 C46.41668583 130.32043429 27.28839888 117.46850164 0.375 116.9375 C-25.30748603 116.9375 -45.66580291 129.08522317 -63.38476562 146.9413147 Z M-18.99136353 208.56137085 C-19.70873605 209.27547454 -20.42610858 209.98957822 -21.16521966 210.72532141 C-23.54650951 213.09937862 -25.91699478 215.48392739 -28.28759766 217.86865234 C-30.00104708 219.58131022 -31.71515036 221.29331415 -33.42985535 223.00471497 C-37.58961785 227.15988751 -41.74242917 231.32192719 -45.89206196 235.48720954 C-50.73206136 240.34481728 -55.58017994 245.19428825 -60.42866282 250.04342599 C-69.08352373 258.69997209 -77.73131652 267.36354426 -86.375 276.03125 C-94.74879092 284.42829596 -103.12711096 292.82078616 -111.51074219 301.20800781 C-112.02714408 301.72463247 -112.54354597 302.24125713 -113.07559641 302.77353708 C-114.11602014 303.81440344 -115.15644417 304.8552695 -116.1968685 305.89613525 C-116.9668516 306.66644769 -116.9668516 306.66644769 -117.75238991 307.45232201 C-118.26447694 307.96462503 -118.77656398 308.47692805 -119.3041688 309.0047554 C-127.31275292 317.01704765 -135.31750944 325.03316325 -143.32174093 333.04980343 C-146.21522716 335.9477117 -149.10920236 338.84513061 -152.00352193 341.74220656 C-157.02676946 346.7703193 -162.04736055 351.80106997 -167.06513405 356.83464622 C-168.72873317 358.50275097 -170.3931605 360.17003021 -172.05848885 361.83640862 C-174.33718088 364.1168594 -176.61276892 366.40036425 -178.88760376 368.68466187 C-179.86918424 369.66494262 -179.86918424 369.66494262 -180.87059462 370.66502702 C-184.64358384 374.46146776 -188.22941932 378.36762009 -191.70811403 382.43599761 C-194.83776285 385.97454167 -198.31658609 389.18444527 -201.76953125 392.40429688 C-202.31480469 392.93216797 -202.86007812 393.46003906 -203.421875 394.00390625 C-203.90624023 394.46095947 -204.39060547 394.9180127 -204.88964844 395.38891602 C-209.62948568 401.58860361 -209.74485424 407.6391702 -209.70018005 415.15411377 C-209.70556559 416.242642 -209.71095113 417.33117023 -209.71649987 418.45268416 C-209.73079158 422.09519917 -209.72367243 425.73735139 -209.71655273 429.37988281 C-209.72225573 431.99357902 -209.72921971 434.60727274 -209.73735046 437.22096252 C-209.75452901 443.58115609 -209.75538024 449.94125081 -209.75013756 456.30146155 C-209.74609189 461.47378881 -209.74754413 466.64608691 -209.75288582 471.81841278 C-209.75363424 472.55530985 -209.75438266 473.29220692 -209.75515376 474.0514342 C-209.75668529 475.54859943 -209.75822364 477.04576465 -209.75976873 478.54292986 C-209.77349103 492.57779732 -209.7680586 506.61260902 -209.75658352 520.64747521 C-209.74665737 533.47247628 -209.75958155 546.29733295 -209.78351771 559.12231174 C-209.80793373 572.30419613 -209.81751007 585.48601334 -209.81086498 598.66791987 C-209.80737755 606.06319422 -209.80957298 613.45835761 -209.82711601 620.85361481 C-209.84341538 627.81073346 -209.83861732 634.76757265 -209.81981087 641.72468376 C-209.81612765 644.27435949 -209.81922558 646.82405565 -209.82969666 649.37371254 C-209.84292615 652.86210791 -209.83134018 656.34959481 -209.81370544 659.83795166 C-209.82331045 660.84001876 -209.83291546 661.84208586 -209.84281152 662.87451863 C-209.7424741 672.56293008 -207.19727761 681.43401767 -200.3515625 688.52734375 C-193.69320125 694.15251101 -186.03580856 696.75733297 -177.3125 696.25 C-174.31129395 695.1863351 -174.31129395 695.1863351 -172.3125 693.25 C-171.55018066 692.6166272 -171.55018066 692.6166272 -170.77246094 691.97045898 C-168.85800102 689.71440563 -168.53744995 687.86595159 -167.953125 684.97265625 C-167.72866699 683.91232178 -167.50420898 682.8519873 -167.27294922 681.75952148 C-167.03850098 680.62200439 -166.80405273 679.4844873 -166.5625 678.3125 C-159.5040956 646.30371216 -145.21315236 619.51899202 -126.72998047 592.76123047 C-123.30340629 587.79638014 -119.96232165 582.77512202 -116.625 577.75 C-115.35419097 575.83852551 -114.08335643 573.92706798 -112.8125 572.015625 C-112.12285156 570.97728516 -111.43320312 569.93894531 -110.72265625 568.86914062 C-108.91096282 566.14503638 -107.09139897 563.42629389 -105.26953125 560.70898438 C-102.44467519 556.49500317 -99.63102238 552.27369599 -96.82284546 548.04858398 C-95.70493712 546.37052591 -94.58346248 544.69483735 -93.4581604 543.02172852 C-80.34466335 524.00196066 -80.34466335 524.00196066 -77.6171875 501.59765625 C-83.65527944 472.11026204 -104.02423254 442.31190981 -119.75 417.0625 C-120.94029575 415.1267163 -122.12808035 413.18938459 -123.3125 411.25 C-123.83972656 410.40824219 -124.36695313 409.56648437 -124.91015625 408.69921875 C-128.709871 402.06294815 -129.52321171 395.81694819 -128.3125 388.25 C-127.08931403 385.03302089 -126.23057055 384.46773362 -123.3125 382.25 C-116.80329673 379.60356504 -110.59526774 378.81463311 -103.62864685 378.8757782 C-102.70765341 378.87180379 -101.78665998 378.86782939 -100.83775765 378.86373454 C-97.78026741 378.85418147 -94.72324805 378.86588712 -91.66577148 378.87768555 C-89.4621768 378.8752553 -87.25858323 378.87153371 -85.05499268 378.86662292 C-79.09023548 378.85724289 -73.12564321 378.86661488 -67.16089892 378.87995505 C-60.90976113 378.89129858 -54.6586311 378.88715983 -48.40748596 378.88520813 C-37.91233936 378.88432614 -27.41724663 378.89531493 -16.92211914 378.91381836 C-6.13889614 378.93282453 4.64425168 378.93990396 15.42749023 378.93432617 C28.44568666 378.92761217 41.46384529 378.93092703 54.4820385 378.94342995 C59.44553176 378.9480676 64.40900463 378.94895339 69.37249947 378.9468441 C75.2190856 378.94495704 81.06557566 378.95309733 86.91213989 378.9689045 C89.05467773 378.97313778 91.19722534 378.97400434 93.33976555 378.97121429 C96.27015842 378.96797788 99.20026685 378.97711103 102.13063049 378.98930359 C103.39427039 378.9836346 103.39427039 378.9836346 104.68343836 378.97785109 C113.42434578 379.04193357 120.34991595 379.91241595 126.6875 386.25 C129.1611334 391.19726681 128.74824892 397.98062634 127.07519531 403.13720703 C123.49303 411.78557757 118.25213225 419.71719862 113.31689453 427.63696289 C103.35347934 443.73287528 94.42493944 460.55620102 85.875 477.4375 C85.38974854 478.3857666 84.90449707 479.3340332 84.40454102 480.31103516 C78.16774157 492.8248931 75.08187801 505.32135232 79.0625 519.1875 C80.91752088 523.87319432 83.28429912 528.08500574 85.9765625 532.328125 C86.4092041 533.01472702 86.8418457 533.70132904 87.28759766 534.40873718 C92.62532759 542.81604729 98.2180259 551.05367884 103.8092041 559.29354858 C105.72853596 562.1229945 107.64367085 564.9552388 109.55761719 567.78833008 C114.24781902 574.73071039 118.94110773 581.67099762 123.63867188 588.60839844 C141.28043463 614.67741743 141.28043463 614.67741743 147.6875 627.25 C148.0887207 628.02408203 148.48994141 628.79816406 148.90332031 629.59570312 C157.87134809 647.04370275 164.55072229 664.92752202 167.09521484 684.46289062 C167.72340956 688.58800885 168.30082665 691.42333258 171.44921875 694.30859375 C177.78029296 698.10418348 184.97832484 696.89507539 191.9375 695.1875 C198.77257257 692.82489453 203.58752801 688.80684477 206.76799107 682.31562138 C209.14789688 676.81744861 209.24412261 671.81883216 209.18870544 665.89537048 C209.19423984 664.78259894 209.19977424 663.66982741 209.20547634 662.52333552 C209.21904225 658.81081838 209.20413489 655.09897823 209.18920898 651.38647461 C209.19299361 648.71833969 209.19834268 646.05024937 209.20558167 643.38212585 C209.21948416 636.89750737 209.21198041 630.41308418 209.19690608 623.92847507 C209.18001023 616.3714844 209.18326071 608.81454188 209.18700016 601.25753815 C209.19287316 587.77150624 209.17872867 574.28556782 209.15405273 560.79956055 C209.13012883 547.72302751 209.12305105 534.64661935 209.13354492 521.57006836 C209.14496179 507.31790569 209.14687507 493.06580072 209.13244683 478.81363875 C209.13092104 477.2931182 209.12940068 475.77259766 209.12788582 474.2520771 C209.127128 473.5040197 209.12637019 472.75596229 209.12558941 471.98523648 C209.1208529 466.72149695 209.12269349 461.45778324 209.12695122 456.19404411 C209.13188477 449.77738413 209.12586277 443.36084206 209.10605692 436.94420903 C209.09620543 433.6722829 209.09267228 430.40057212 209.09894943 427.12863159 C209.10490675 423.57811137 209.09238758 420.0281186 209.07518005 416.47764587 C209.0811901 415.44874975 209.08720014 414.41985362 209.09339231 413.35977882 C209.02324935 405.39914784 207.8332761 398.89226993 202.14324951 392.90232849 C201.33956688 392.05239759 200.53588425 391.2024667 199.7078476 390.32678032 C198.70300044 389.29929058 197.69601086 388.27389394 196.6875 387.25 C196.08505998 386.63459705 195.48261995 386.01919409 194.86192417 385.38514256 C189.40885257 379.82525313 183.90308616 374.318547 178.39550781 368.81274414 C176.54004897 366.95428968 174.6847942 365.09563146 172.82972717 363.23678589 C168.33361286 358.73241351 163.83477002 354.23077621 159.33480486 349.7302512 C155.6777905 346.07275993 152.02157043 342.4144765 148.36589813 338.75564384 C137.98788911 328.36884617 127.60780475 317.98412898 117.22502449 307.60210068 C116.66688457 307.04400072 116.10874466 306.48590075 115.53369141 305.91088867 C114.97486628 305.35210443 114.41604115 304.79332018 113.84028193 304.21760308 C104.76437692 295.14210537 95.69348362 286.0616166 86.62482229 276.97888119 C77.30003756 267.6397395 67.97153629 258.30432444 58.63913798 248.97279066 C53.40475602 243.73874061 48.17192359 238.50316276 42.94309235 233.26356697 C38.03275302 228.34318265 33.11728049 223.42797825 28.1982708 218.51626205 C26.39254787 216.71158759 24.58853823 214.90519702 22.78635597 213.09698677 C20.32995137 210.63289727 17.86749127 208.17502376 15.40338135 205.71864319 C14.33135243 204.63889893 14.33135243 204.63889893 13.23766637 203.53734165 C7.67541044 197.66267571 7.67541044 197.66267571 0.3126446 195.02648443 C-7.32908751 195.67713282 -13.86485803 203.37131776 -18.99136353 208.56137085 Z M421.9375 313.875 C415.46022077 321.70798884 412.29907413 331.87803817 412.47265625 341.984375 C413.44198504 352.20638766 417.97283132 363.25858151 425.6875 370.25 C435.12911052 377.47096857 445.66375637 381.81678358 457.6875 380.25 C469.83981725 377.62367503 479.43009344 372.50424608 486.6875 362.25 C492.79312666 351.74705673 494.54706684 340.9952772 492.00390625 329.03515625 C488.45148956 318.52530936 481.00732964 309.32048219 471.25 303.89453125 C453.91370727 295.99625315 435.06968282 300.23337905 421.9375 313.875 Z M-82.3125 412.25 C-74.81303573 428.09677176 -74.81303573 428.09677176 -67.17578125 443.875 C-66.38387642 445.49353882 -66.38387642 445.49353882 -65.57597351 447.14477539 C-64.47862526 449.38638543 -63.38062989 451.62767879 -62.28198242 453.86865234 C-60.61431957 457.27179519 -58.95065475 460.67687414 -57.28710938 464.08203125 C-56.20857537 466.28397274 -55.12980766 468.48579977 -54.05078125 470.6875 C-53.31931633 472.18627686 -53.31931633 472.18627686 -52.57307434 473.71533203 C-51.86654976 475.15368408 -51.86654976 475.15368408 -51.14575195 476.62109375 C-50.74209915 477.44536865 -50.33844635 478.26964355 -49.92256165 479.11889648 C-47.47602088 483.87670958 -44.87435206 488.55327122 -42.3125 493.25 C-14.5925 493.25 13.1275 493.25 41.6875 493.25 C47.61909489 481.97996972 53.53009035 470.72597008 59.2265625 459.33984375 C59.88482488 458.02654934 60.54314119 456.71328195 61.20150757 455.40003967 C62.55548413 452.69796741 63.90789368 449.99511794 65.25927734 447.29174805 C66.99240664 443.82538593 68.73111892 440.36185454 70.47107887 436.8989172 C71.82060635 434.21092991 73.16653534 431.52115325 74.51142502 428.83084297 C75.1520694 427.55073292 75.79400867 426.27127005 76.43727493 424.99247551 C77.32605131 423.22465871 78.20931345 421.45407281 79.09228516 419.68334961 C79.59506989 418.67920517 80.09785461 417.67506073 80.61587524 416.64048767 C81.82385481 414.38244762 81.82385481 414.38244762 81.6875 412.25 C27.5675 412.25 -26.5525 412.25 -82.3125 412.25 Z M9.5625 525.75 C-0.54697293 526.43558495 -10.66711996 526.30649823 -20.79345703 526.21289062 C-34.70903287 525.41487364 -34.70903287 525.41487364 -47.66015625 529.19921875 C-51.34735711 532.96432768 -54.0152044 537.59167632 -56.75 542.0625 C-57.65298828 543.50979492 -57.65298828 543.50979492 -58.57421875 544.98632812 C-59.84927071 547.03194351 -61.11984745 549.08035427 -62.38623047 551.13134766 C-64.88745392 555.18085695 -67.41196739 559.21559068 -69.9362793 563.25073242 C-71.19774328 565.26726919 -72.45830814 567.28436867 -73.71801758 569.30200195 C-77.7728535 575.79630723 -81.83744241 582.28413016 -85.9375 588.75 C-86.49091064 589.62325928 -87.04432129 590.49651855 -87.61450195 591.39624023 C-91.17043778 596.97552579 -94.79930192 602.50162392 -98.47265625 608.00390625 C-117.29194005 636.221174 -132.02197674 663.22288256 -137.3125 697.25 C-137.46332031 698.21035156 -137.61414063 699.17070313 -137.76953125 700.16015625 C-141.97384531 735.53245184 -134.81509378 774.98099244 -112.43774414 803.3996582 C-93.10926381 826.98799819 -68.87447216 841.01407188 -39.3125 848.25 C-38.49330078 848.45882813 -37.67410156 848.66765625 -36.83007812 848.8828125 C1.63108372 858.37049957 46.43917419 852.05102449 80.5625 831.875 C87.06825525 827.88445258 93.00847391 823.35665181 98.6875 818.25 C99.45449219 817.56550781 100.22148438 816.88101562 101.01171875 816.17578125 C112.0743043 805.73100152 119.51187641 793.00316406 125.6875 779.25 C126.15929687 778.20585938 126.63109375 777.16171875 127.1171875 776.0859375 C129.86157018 769.48919157 131.69362145 762.74052278 133.375 755.8125 C133.57762451 754.97887939 133.78024902 754.14525879 133.98901367 753.28637695 C136.85293493 740.8927786 138.055545 728.71266327 138 716 C137.99784485 715.32335297 137.9956897 714.64670593 137.99346924 713.94955444 C137.93833775 703.12163477 137.35302037 692.76480183 134.6875 682.25 C134.49414062 681.47221191 134.30078125 680.69442383 134.1015625 679.89306641 C126.27836985 649.39106603 109.31902488 624.86537439 91.6875 599.25 C87.85092354 593.66063668 84.02336949 588.06524635 80.20507812 582.46337891 C78.69594777 580.26232102 77.16928975 578.07423998 75.640625 575.88671875 C69.29802611 566.71041036 63.87940262 557.32316691 58.95874023 547.30371094 C53.89897238 537.1574087 48.97612899 529.39513397 37.95703125 525.6640625 C34.50412311 525.03409991 31.05954297 525.10414437 27.5625 525.125 C26.75828613 525.12693359 25.95407227 525.12886719 25.12548828 525.13085938 C19.92000677 525.16745327 14.7546769 525.39570738 9.5625 525.75 Z M-477.859375 617.22265625 C-485.29083001 624.09301147 -490.8095182 633.31544758 -491.55078125 643.53515625 C-491.81678238 657.07321394 -488.63842163 666.4434513 -479.34765625 676.34375 C-471.50742793 683.94295864 -462.24458692 687.90827824 -451.3203125 688.37890625 C-439.69062616 687.88049112 -428.98882764 682.99172714 -420.98046875 674.5078125 C-413.43500962 664.29405283 -410.0867635 653.54618662 -411.5859375 640.953125 C-413.58418393 630.32094588 -418.85850863 621.95931333 -427.3125 615.25 C-443.80417533 604.47851416 -462.28051974 605.15621161 -477.859375 617.22265625 Z " fill="#FFCA54" transform="translate(545.3125,33.75)"/>
<path d="M0 0 C4.33959924 2.60919537 6.91050015 5.37237089 8.625 10.125 C9.94686733 13.09637698 10.70612215 13.86364745 13.7109375 15.2578125 C17.11971396 16.28611324 20.54048488 17.15911897 24 18 C43.35213819 23.67258092 43.35213819 23.67258092 48 32 C48.62495824 37.6246242 48.15907697 41.14856037 45 46 C42.12084775 49.21136212 38.92593926 49.57779188 34.73339844 49.99780273 C29.31533144 50.00215809 24.16100484 48.44250231 18.9375 47.125 C3.05025104 43.39123408 -10.70146682 40.21580206 -25.76171875 48.5234375 C-28.07427249 49.81745951 -28.07427249 49.81745951 -29.125 51.875 C-29.19708747 54.26800924 -29.19708747 54.26800924 -26.91015625 56.4765625 C-18.70598624 63.59051395 -5.1659536 64.61206063 5.1875 66.5 C32.98060041 71.60550184 32.98060041 71.60550184 41.8125 83.42578125 C47.60865802 92.6076758 49.45105999 101.70257516 47.5703125 112.45703125 C44.83427914 122.10070438 37.50529164 129.97620774 29 135 C26.76626047 135.9732345 24.50914225 136.87355528 22.24609375 137.77636719 C13.08344298 141.25221317 13.08344298 141.25221317 7.1875 148.8125 C6.85105469 149.72644531 6.51460937 150.64039063 6.16796875 151.58203125 C4.6652861 154.69293614 3.07594256 155.5250412 0 157 C-4.27723641 158.18812122 -6.89368011 158.37341665 -10.75 156.25 C-14.82892346 153.42612992 -16.86308338 151.69731366 -18.4921875 147.04296875 C-19.81063003 144.31048098 -20.60486637 143.20907556 -23.31347656 141.77587891 C-26.22957333 140.81056101 -29.13807728 140.02898336 -32.125 139.3125 C-51.74599335 134.26746479 -51.74599335 134.26746479 -57 128 C-58.45667817 123.6299655 -58.86982886 119.38730204 -57.28125 115.02734375 C-55.19899197 111.07273274 -53.18138215 108.57963326 -49 107 C-42.54333089 106.31911194 -37.41344473 107.57224436 -31.4375 109.875 C-16.70656125 115.11457588 -1.74066945 117.04509811 13.25 111.1875 C16.20162209 109.73633144 16.88013562 109.2109613 18.5625 106.25 C18.706875 105.5075 18.85125 104.765 19 104 C10.11223791 94.00126765 -2.18915033 93.05258348 -14.79296875 91.546875 C-28.3829573 89.91788636 -41.02445647 85.11722421 -50.171875 74.47265625 C-56.84911017 65.29835586 -57.90049982 57.23870559 -57 46 C-55.09006257 36.65540681 -48.8157441 29.4141965 -41.16796875 23.9921875 C-36.09408077 20.91992505 -31.07538176 18.62833449 -25.5 16.625 C-21.40082477 15.05166012 -21.40082477 15.05166012 -18.5703125 11.8671875 C-17.95055925 10.3152434 -17.37677152 8.74397416 -16.85546875 7.15625 C-15.43673831 3.58027191 -13.13731995 2.13604763 -10 0 C-6.09649995 -1.30116668 -3.99981631 -0.99995408 0 0 Z " fill="#FFCA54" transform="translate(551,652)"/>
</svg>
